<?xml version="1.0" standalone="no"?>
<!DOCTYPE svg PUBLIC "-//W3C//DTD SVG 1.1//EN" "http://www.w3.org/Graphics/SVG/1.1/DTD/svg11.dtd" >
<svg xmlns="http://www.w3.org/2000/svg" xmlns:xlink="http://www.w3.org/1999/xlink" version="1.1">
<metadata>
Created by FontForge 20201107 at Sat Mar  7 04:44:53 2020
 By Jimmy Wärting
(c)2019. Putracetol Studio.
</metadata>
<defs>
<font id="TheExcitedRegular" horiz-adv-x="0" >
  <font-face 
    font-family="The Excited"
    font-weight="400"
    font-stretch="normal"
    units-per-em="1000"
    panose-1="0 0 0 0 0 0 0 0 0 0"
    ascent="800"
    descent="-200"
    x-height="219"
    cap-height="638.5"
    bbox="-2039 -485.565 1752.33 961"
    underline-thickness="0"
    underline-position="0"
    unicode-range="U+000A-FB06"
  />
<missing-glyph horiz-adv-x="427" 
d="M-50 700h427v-700h-427v700zM-22 680l185 -309l186 309h-371zM151 350l-180 300v-601zM164 329l-185 -308h370zM176 350l181 -303v605z" />
    <glyph glyph-name="ir.liga" unicode="ir" horiz-adv-x="693" 
d="M84 291q18 30 39 17q17 -12 12 -33q-2 -8 -8 -13q-8 -8 -21.5 -7t-23.5 10q-8 10 2 26zM649 133q-112 -72 -176.5 -102.5t-109.5 -30.5q-28 0 -49 8q-11 12 -12 31t6 37.5t18.5 40t22 36t20 27.5l9.5 13q-33 -7 -65.5 -12.5t-45.5 -8.5t-25.5 -5t-20 -8t-14 -11
t-21.5 -20q-58 -53 -120.5 -86.5t-103.5 -33.5q-21 0 -36.5 15.5t-15.5 35.5q0 13 8 32.5t21.5 40t30.5 39.5q49 55 84 49q16 -2 12 -13q-2 -7 -14 -12q-30 -12 -66 -57t-36 -71q0 -40 80 -3q79 36 138 94q3 2 5 5l18 19l-13 16q-16 16 -14 35.5t14 36.5t35.5 28.5
t50.5 11.5q34 0 39 -24.5t-21 -58.5l-16 -21q119 24 133 25q34 2 34 -16q-2 -18 -33 -57q-26 -33 -41 -60.5t-18 -44t7 -21.5q37 -12 164 55t174 103q22 14 29 8q6 -8 -6 -20t-60 -45zM266 278q-4 6 -30 -6.5t-32 -22.5q-8 -21 5 -29q16 -11 40 26q21 29 17 32z" />
    <glyph glyph-name="er.liga" unicode="er" horiz-adv-x="684" 
d="M674 181q30 26 33 20q1 -2 1 -7q0 -18 -52 -59.5t-120 -81t-138 -63.5t-101 -10q-16 6 -21.5 20.5t-1.5 33.5t10 36.5t17.5 38t17 29.5t11.5 19q1 1 1 2l-109 6l-40 -38q-89 -82 -168 -117t-105 -3q-20 25 2.5 75t62 91t66.5 47q14 5 26 -4.5t12 -24.5q0 -14 -34 -47.5
t-65 -51.5q-23 -12 -32.5 -21t-13.5 -21q-10 -37 26 -30q53 10 155 89q23 17 38 31q26 25 29 31t-4 18q-17 23 -7 58t38 51q39 22 64 14t19 -40q-4 -15 -14.5 -33t-19.5 -30t-9 -15q25 -3 54 -3q50 0 61.5 -8t-2.5 -31q-25 -41 -39 -69.5t-16 -39t-2.5 -20.5t-1.5 -14h26
q59 2 173.5 59t172.5 113zM-13 137q15 7 37 33q10 12 3 9q-1 0 -3 -1q-17 -9 -36 -34q-4 -7 -1 -7zM200 256q-10 -19 -7.5 -36.5t13.5 -17.5q1 0 4.5 3t8 9t8.5 12q46 60 23 59q-19 0 -44 -22z" />
    <glyph glyph-name="ch.liga" unicode="ch" horiz-adv-x="907" 
d="M542 -5q0 -34 205 95q158 99 173 106q9 4 10 2q4 -11 -5 -21q-17 -18 -157.5 -110t-166.5 -101q-70 -28 -88 2q-6 7 -6 18t2.5 20.5t9.5 24t12 23t14 23.5q9 13 12.5 19.5t8.5 17t5 14.5t-2.5 8.5t-10.5 4t-21.5 -3t-33.5 -9.5q-131 -38 -209 -109q-67 -59 -78 -32
q-6 12 8.5 28t60.5 52q35 26 76 62t76 69.5l35 33.5q-9 -4 -48 -24t-85.5 -44t-105.5 -52t-114 -50t-103.5 -36t-81.5 -12t-42 23q-12 35 35 91t112.5 97t104.5 43q20 0 35 -10.5t15 -25.5q0 -9 -7.5 -11t-13.5 6q-7 16 -61 -6.5t-104 -62.5q-29 -22 -54.5 -55t-25.5 -46
q0 -27 146.5 28t332.5 155.5t277 184.5q126 118 155 129q16 3 24.5 -8t2.5 -25q-9 -15 -53.5 -54t-109.5 -85q-47 -35 -159.5 -133t-108.5 -101q1 -2 16 3.5t35.5 11.5t44 11.5t41.5 3t28.5 -13t4.5 -38t-31 -69.5q-32 -50 -32 -62z" />
    <glyph glyph-name="ob.liga" unicode="ob" horiz-adv-x="823" 
d="M-4 29q-44 -26 -75.5 -28t-38.5 18.5t12 60.5q16 34 67 83t88 64q28 17 47 19.5t27.5 -3.5t19 -13.5t21.5 -7.5q66 0 272 95t279 145q59 39 62 8q0 -15 -43 -42q-25 -20 -104 -81.5t-146 -114.5t-68 -53q12 4 36 14t44 17.5t45 16.5t44 12.5t36 3t26.5 -10t9.5 -27.5
q0 -12 12 -13t84 3q92 5 94 -4v-4q-3 -8 -12.5 -11.5t-38.5 -4.5q-120 -10 -164 -19l-47 -46q-33 -31 -67.5 -53.5t-62.5 -33t-52 -15.5t-38.5 -4t-20.5 5q-10 8 -15 22t-1 24q7 14 36.5 37.5t62.5 38.5q28 16 87 35t76 19q6 0 12.5 3t10.5 8.5t4 10.5q0 14 -63 -6t-153 -62
t-162 -84q-39 -25 -51 -29.5t-17 1.5q-10 10 -6 19q0 1 93 70.5t190.5 143.5t107.5 84q5 5 -5 1q-7 -3 -34 -17q-196 -102 -318 -126q-40 -6 -50.5 -11t-19.5 -21q-12 -24 -58 -71t-75 -66zM411 83q-48 -29 -45 -40q4 -15 63 9q9 4 20 9q20 9 49 27t48.5 33.5t14.5 16.5
q-10 4 -63 -16t-87 -39zM103 187q-5 4 -11 10t-8 7.5t-6 3t-8 0t-11 -4.5q-31 -18 -81 -71t-60 -78q-4 -16 5 -15t35 15q22 10 44 26.5t38.5 34t29.5 32.5t22.5 27t10.5 13z" />
    <glyph glyph-name="of.liga" unicode="of" horiz-adv-x="751" 
d="M111 237q5 0 11 -5t8 -11q4 -9 11.5 -11t37.5 0q47 6 104 19q30 7 45 12.5t28.5 14t35.5 27.5q156 127 236 144q20 2 33.5 -9.5t8.5 -27.5q-7 -34 -82 -82.5t-169 -81.5q-93 -30 -88 -51q1 -2 3 -4q6 -6 110 -6q46 0 91 2.5t77 7t61 9t47.5 8t32 5.5t18.5 0t4 -8
q-3 -19 -98.5 -34.5t-175.5 -21.5t-95 -6v-26q0 -19 -15.5 -46t-40.5 -54t-57 -54.5t-64.5 -48.5t-63 -35t-52.5 -14t-33 14q-2 3 -4.5 8.5t-3.5 7.5t-2 6.5t0 8t3.5 11t6.5 16.5t10 22q18 37 45.5 76.5t53 68.5t48 52.5t34 36t7.5 12.5q-102 -18 -134 -18q-16 0 -22.5 -4.5
t-15.5 -19.5q-14 -27 -57 -70t-67 -53q-53 -25 -74 4q-25 33 23 105q17 25 42 51q26 27 46 42.5t34 19t22.5 3t19.5 -5.5t16 -6zM-23 64q37 16 90 88q10 16 11 20.5t-4 11.5q-6 5 -8.5 11.5t-2 10.5t-1 6t-6 -0.5t-17.5 -11.5q-45 -34 -84 -93q-36 -55 -9 -54q11 0 31 11z
M510 309q99 49 115 78q10 17 -41 -11q-80 -45 -130 -86q-12 -10 -8 -10q6 0 64 29zM288 143l-40 -42q-47 -49 -93 -118.5t-46 -90.5q0 -16 64 16q67 34 132.5 99t65.5 97q0 12 -16.5 20t-41 13.5t-25.5 5.5z" />
    <glyph glyph-name="sh.liga" unicode="sh" horiz-adv-x="867" 
d="M134 222q-4 0 -5 3t-4 19q-1 4 -13 7.5t-28.5 2t-27.5 -9.5q-8 -8 -24 -45t-27 -69.5t-5 -30.5q49 21 122 50.5t110 45t82 36.5t73.5 39t49.5 37q156 141 219 189q157 121 157 48q0 -30 -101.5 -110.5t-222.5 -146.5q-27 -14 -49 -31t-34.5 -30t-38 -41.5t-43.5 -48.5
l15.5 7t39 16.5t50 19t52.5 16t43 6.5q32 0 40.5 -22.5t-5.5 -71.5q-12 -40 -8.5 -47.5t37.5 -5.5q26 2 51 11t81 37q58 29 148 86q22 14 23 6q0 -3 -1 -9q-1 -14 -80 -68q-138 -93 -221 -103q-73 -9 -69 59q1 17 7 37q5 18 7.5 34t0.5 17q-8 9 -91.5 -20t-152.5 -65
q-27 -16 -38.5 -20t-16.5 1q-7 5 -9.5 9t1.5 11t9.5 12.5l19.5 19.5q34 35 58 63l33 37q-52 -23 -100.5 -43.5t-80.5 -34.5t-61.5 -26t-47 -20t-32.5 -14t-23.5 -11t-14.5 -8t-9.5 -7.5t-5.5 -7.5t-5 -10q-17 -31 -47 -70.5t-66.5 -78t-75.5 -58.5t-65 -7q-6 2 -13 10.5
t-8 16.5q-4 14 -2 22.5t12 31.5q12 24 34.5 48t47 42.5t54 36t50.5 28.5t42 20.5t24 11.5q49 147 75 179q29 37 80 31q38 -5 45 -29q3 -11 -5 -23q-10 -17 -16 -17zM-224 -69q-55 -51 -53 -78q2 -22 40 -2q14 7 31 21q53 41 102 107q33 44 16 41q-1 0 -3 -1q-21 -9 -66 -38
t-67 -50zM765 524l-19 -11q-26 -15 -77 -53.5t-89.5 -71.5t-33.5 -34q6 0 49.5 30.5t91 68t62.5 53.5z" />
    <glyph glyph-name="sk.liga" unicode="sk" horiz-adv-x="813" 
d="M329 103q-23 -7 -23.5 -12.5t20.5 -16.5l16 -8q62 -28 156 -2q28 6 68.5 19.5t81.5 29t77.5 31t61.5 29t29 19.5q4 8 13 6t9 -12q0 -15 -65 -50t-154.5 -69t-152.5 -47q-59 -12 -92.5 -5.5t-81.5 38.5q-12 8 -25.5 16.5t-21.5 13t-10 4.5q-4 0 -53 -35t-88 -66
q-24 -20 -24 5q0 3 10.5 15.5t27.5 29.5t33 32.5t30.5 30t16.5 15.5q-175 -93 -208 -114t-68 -65q-50 -66 -113 -108.5t-92 -30.5q-13 4 -16.5 17.5t5.5 27.5q10 19 57 56t108 76q22 13 31.5 19t21.5 18t16 17t12.5 24.5t13 32.5t16.5 48q15 49 27.5 80.5t26 51t27 27
t31.5 7.5q29 0 49 -22q17 -19 -2 -25q-5 -3 -15 1.5t-19.5 9t-22 0t-23.5 -22.5q-8 -13 -40 -101.5t-29 -90.5t230 123q53 32 82.5 58t141.5 138q124 122 163.5 153.5t61.5 20.5q48 -26 -52 -127q-88 -90 -252 -198l-67 -43q3 1 20 10q194 103 220 82q22 -19 -16 -62
q-61 -64 -185 -99zM544 395q61 55 82 89q6 10 1 10q-3 -1 -7 -3q-15 -6 -109 -102q-59 -60 -49 -58q8 2 82 64zM-267 -162q-4 -6 5 -3q28 11 80 53q8 6 14 12q38 35 20 26q-32 -16 -106 -76zM326 147l-18 -15l18 6q33 8 73 27t64.5 35.5t28.5 22.5q7 13 -104 -43z" />
    <glyph glyph-name="lk.liga" unicode="lk" horiz-adv-x="943" 
d="M265 0q-50 -33 -58 -36.5t-17 1.5q-8 4 -8.5 11t8.5 21t27 34.5t51 53.5l91 94q-26 -11 -87 -40q-198 -92 -270 -105q-82 -14 -82 41q0 33 68 115t162.5 165.5t162.5 120.5q61 25 57 5q-2 -5 -28.5 -23.5t-68.5 -49.5t-89 -68.5t-99 -90.5t-90 -106q-47 -69 -33 -76
q17 -7 127.5 33t246 106.5t201.5 121.5q182 150 221 150q18 0 18 -24q0 -21 -50.5 -62t-99 -71.5t-77.5 -45.5q-94 -52 -206 -166q-32 -33 -27 -32q86 55 187 103.5t128 48.5q32 0 34.5 -18.5t-26.5 -44.5q-60 -58 -192 -102q-35 -12 -36 -16q-1 -3 7 -5q6 -2 18 -4
q45 -6 117 11.5t141.5 45.5t132.5 55t102 40t39 1q0 -4 -7 -9.5t-28.5 -16t-57.5 -26.5t-97 -42q-141 -60 -188.5 -74t-115.5 -14q-55 0 -71 2t-31 11q-23 14 -35 14q-4 0 -27 -11t-45 -26zM615 195l-18 -8q-39 -14 -150 -74q-43 -23 -45 -28t53 16q40 16 72.5 33t47 28
t26.5 21.5t14 11.5z" />
    <glyph glyph-name="il.liga" unicode="il" horiz-adv-x="674" 
d="M132 330q-20 21 5 39t46 -3q16 -19 -4 -36q-21 -18 -42 -3q-3 1 -5 3zM311 10q-46 -2 -67 11t-37 53q-1 2 -19 -7l-45 -22.5t-59.5 -25.5t-62 -17t-52.5 3q-30 12 -37 47.5t12 77.5q19 35 65 82t70 55q34 12 42 -1q8 -11 -22 -24q-1 -1 -2 -1q-25 -12 -62.5 -50
t-59.5 -81.5t-3 -61.5q32 -38 183 42q24 12 35 18.5t20.5 13.5t13.5 13t9 17q30 59 107 144.5t169.5 155t151.5 77.5q20 2 26.5 0t13.5 -14q9 -12 9 -17.5t-9 -22.5q-16 -34 -135 -135t-247 -190q-48 -36 -57.5 -45.5t-9.5 -24.5q0 -13 3.5 -19.5t13.5 -9.5q80 -42 365 117
q68 35 75 32q16 -5 -41 -42l-87 -52q-92 -51 -154.5 -73.5t-115.5 -22.5zM456 363q-36 -31 -90 -91t-68 -83q-8 -13 -4 -12t35 25q31 19 140 105q201 162 194 184q-5 15 -90 -39q-64 -42 -117 -89z" />
    <glyph glyph-name="rr.liga" unicode="rr" horiz-adv-x="839" 
d="M421 198q34 0 40.5 -1.5t8.5 -11.5q0 -16 -10 -38t-19.5 -39t-14 -32.5t8.5 -23.5t46 -7q88 4 263 100q96 53 110 54q9 1 9 -6q0 -4 -5.5 -9.5t-21.5 -16t-42 -25.5t-70 -40q-84 -47 -136 -67t-99 -24q-37 -2 -61 4t-32 19t-9.5 27.5t5 31.5t13 30t13 23.5t6.5 11.5
q-15 0 -26 -0.5t-17.5 -0.5t-13 -3t-12.5 -8.5t-16 -17.5q-21 -22 -56 -49.5t-77.5 -51.5t-79 -31.5t-59.5 10.5q-12 10 -15.5 17.5t-3.5 21.5q1 27 12 52.5t18.5 34.5l12.5 15l-34 5q-59 8 -57 45q2 25 21 39q5 4 8 3q4 0 6 -1.5t2 -5v-7.5t-1 -12t-1 -15q15 -9 48.5 -12
t48.5 -9.5t0 -26.5q-1 -2 -3 -5q-49 -67 -49 -100q0 -7 4.5 -8t24.5 0q90 11 206 127l-22 10q-20 9 -32 26t-2 35q12 31 42.5 40.5t55 -6t22.5 -47.5l-3 -24h45zM339 235q-13 17 -34 1q-20 -15 -9 -28q4 -4 11 -7q9 -3 15.5 -3t10.5 2t6.5 5.5t3.5 8t0.5 8.5t-1.5 8t-3 5z
" />
    <glyph glyph-name="or.liga" unicode="or" horiz-adv-x="751" 
d="M88 254q23 5 37.5 -3.5t14.5 -30.5q0 -28 34.5 -32.5t70 5t45.5 17.5q-2 8 -8 18t-9 16t-4.5 21.5t5.5 32.5q5 19 16.5 36.5t25.5 28t31 8.5t31 -19q16 -18 16.5 -39.5t-13.5 -51.5l-16 -30q13 -8 45 -8q13 0 21.5 -2.5t10.5 -9.5t2 -13t-5.5 -18t-9 -19t-11.5 -21
q-5 -10 -8 -14.5t-7 -13t-6.5 -14t-4.5 -12.5t-3 -12q-7 -41 40 -40q73 1 222 85q86 49 104 72q6 8 13.5 5t7.5 -13q0 -12 -52 -50t-120 -74t-134.5 -53.5t-96.5 11.5q-20 20 -21 47t7.5 46.5t24 46.5t18.5 34q-14 0 -28 1l-21 1.5t-16.5 -0.5t-20 -5.5t-26.5 -12.5
q-31 -16 -59.5 -22.5t-46.5 -4t-31.5 7.5t-20.5 8t-8 1q-42 -77 -106 -121.5t-98 -20.5q-55 32 28 124.5t140 106.5zM-62 72q-2 -12 0 -15.5t13 -3.5q20 0 57.5 34t65 74t21.5 54q-5 16 -41 -9.5t-72.5 -67t-43.5 -66.5zM337 269q9 17 12 31.5t0.5 23t-12.5 8.5
q-19 0 -31 -33t2 -49q8 -8 14 -4.5t15 23.5z" />
    <glyph glyph-name="sl.liga" unicode="sl" horiz-adv-x="656" 
d="M-144 -169q-32 -7 -49 16q-24 33 30 83q39 36 113 73q56 27 65 33.5t7 22.5q0 17 -17 66t-10 70q16 47 69 52q35 4 44 -10q8 -10 -18 -19q-5 -2 -12 -4q-25 -6 -36.5 -13.5t-12 -19.5t4 -24t12 -35t11.5 -44l5 -28q348 138 380 150q20 19 70 67q159 153 220 190
q73 42 74 -18q0 -27 -36 -65.5t-102.5 -84t-153.5 -91.5q-14 -7 -24 -12.5t-17.5 -10t-16 -11.5t-13 -10t-15 -13.5t-14.5 -15t-19.5 -20.5t-22.5 -24q-141 -148 -159 -205q-9 -31 -24 -31q-14 0 -10 28q4 25 50 89.5t98 120.5q7 7 18 20q26 26 19 26q-6 0 -62 -22
q-62 -25 -109 -42q-104 -41 -123.5 -51t-28.5 -30q-20 -38 -84.5 -91t-100.5 -62zM-149 -107q-25 -25 -8 -27q19 -2 58 25q23 15 60 49.5t37 38.5q0 6 -31 -9.5t-67 -39t-49 -37.5zM656 321q31 22 71.5 60.5t40.5 45.5q0 28 -203 -157l-11 -10q4 3 18 11t37.5 21.5
t46.5 28.5z" />
    <glyph glyph-name="at.liga" unicode="at" horiz-adv-x="612" 
d="M64 217q26 0 33 -19t-12 -37q-12 -10 -20 -7t-4 15q4 13 -4 12q-11 -1 -52 -23q-37 -19 -65 -38.5t-39.5 -31t-26 -28t-18.5 -21.5q116 62 141 67q22 4 37.5 -6.5t26.5 -26.5t25 -29.5t43 -12.5t71 22q47 21 77.5 46.5t88.5 89.5l72 83h-155q-59 -1 -94 -1.5t-52.5 2.5
t-21.5 7.5t-1 12.5q3 6 49.5 7.5t179.5 0.5h127q108 103 141 129q89 71 94 24q1 -5 -1 -11t-7.5 -14t-12.5 -16t-19 -20.5t-23.5 -24t-29.5 -30.5t-35 -37h2q358 3 381 -24q3 -4 -1 -8t-107 0q-102 6 -302 6q-21 -20 -107.5 -94t-100.5 -83q-45 -26 -119 -145
q-99 -159 -114 -263q-10 -78 41 -89q21 -5 26 -8t1 -11q-9 -10 -32 -6t-36 17q-28 28 -33.5 70.5t9.5 90.5t36.5 90t49.5 85q12 19 26 41.5t21.5 34t7.5 12.5q3 3 -9 0q-9 -3 -22 -7q-33 -12 -65 -14t-53 8q-24 18 -38 37q-17 30 -32 30q-3 0 -15 -4.5t-32 -13.5t-38 -20
q-93 -47 -108 -33q-7 8 -2 31q6 27 54.5 71.5t107 79t90.5 35.5z" />
    <glyph glyph-name="it.liga" unicode="it" horiz-adv-x="590" 
d="M105 223q5 -9 -1.5 -14t-35.5 -15q-57 -22 -133 -85t-78 -89q0 -24 145.5 32.5t310 139t213.5 125.5l21 18q-69 1 -173 1q-143 -1 -155 8q-5 5 1 13q4 4 26.5 6.5t63.5 3.5t80.5 1.5t100 1t98.5 1.5q7 5 19 13t19.5 13.5t19.5 13t18.5 11t17.5 8t16 3.5t14 -2
q13 -4 8.5 -17.5t-22.5 -29.5q-21 -18 -11 -19q24 0 158.5 -7t157.5 -9q35 -3 35 -14q0 -4 -34.5 -5.5t-88 -0.5t-108 3t-103 3t-65.5 0q-41 0 -153 -97.5t-232.5 -224.5t-219 -237.5t-128.5 -151.5q-38 -55 -49 -46q-2 1 -3 4q-4 6 16.5 36.5t57.5 74.5t85.5 99t99.5 110.5
t100.5 108.5t88.5 94t63.5 66.5l24.5 25.5q-1 0 -3 -2q-39 -20 -82.5 -42t-131 -64t-165.5 -71t-123 -35q-22 -4 -30 -2t-21 13q-12 10 -13.5 15.5t2.5 23.5q12 37 77.5 93.5t130.5 88t73 8.5zM188 298q8 -10 4 -27t-15.5 -24.5t-27.5 1.5q-11 6 -6.5 23t19.5 27q12 8 16 8
t10 -8z" />
    <glyph glyph-name="ct.liga" unicode="ct" horiz-adv-x="613" 
d="M-65 50q6 -9 18.5 -10t46.5 1q79 6 185 56t263 156l81 55l-35 3q-32 3 -178 -6q-81 -4 -81 6q0 4 5 8q10 8 103.5 17.5t158.5 9.5h62q10 9 34 31q72 68 92 69q13 1 15 -15q1 -10 -16 -29t-35 -35t-18 -18q61 -3 139 -5q122 -5 153.5 -9.5t33.5 -18.5q2 -7 -2 -8.5
t-20 0.5q-18 4 -168.5 8.5t-183.5 -5.5q-21 -9 -144 -137t-248 -274t-141 -193q-8 -23 -21 -27q-7 1 -8 11q0 62 261 356q113 128 112 132q0 2 -4 -1q-178 -117 -296 -156q-50 -18 -105 -19.5t-75 14.5q-22 20 -18 48t28.5 58.5t54 55t59.5 37t44 4.5q11 -6 12 -24.5
t-8 -25.5q-11 -6 -18 -3t-7 13q0 18 -48 -16q-59 -41 -81 -81q-10 -22 -2 -33z" />
    <glyph glyph-name="att.liga" unicode="att" horiz-adv-x="995" 
d="M938 253h61q123 -11 159.5 -17t36.5 -18q0 -6 -8 -7t-32 1q-234 23 -254 11q-165 -112 -211 -152q-11 -9 -56.5 -57.5t-107.5 -119t-121 -142.5t-100 -134t-41 -87q0 -12 -6.5 -15.5t-12.5 4.5q-14 17 8 63.5t66.5 105.5t75.5 96.5t56 65.5q19 22 49 57q53 61 47 61
q-8 1 -159 -99l-1 -1l-1 -1h-1l-1 -1l-1 -1h-1l-1 -1l-1 -1h-1l-1 -1l-1 -1h-1l-1 -1l-1 -1h-1l-1 -1h-1l-1 -1l-1 -1h-1l-1 -1l-1 -1l-1 -1q-208 -140 -285.5 -185t-122.5 -53q-18 -2 -25 0t-18 14q-68 64 182 326q73 73 70 76q-1 1 -41 -15q-17 -6 -32 -10q-26 -8 -34 -8
t-19 10q-13 9 -17 19.5t-4 16t-3 5.5t-26.5 -10t-49 -19.5t-52.5 -13.5t-38 8q-32 31 29 96q58 61 134 90q86 32 104 -21q2 -5 3 -11q-3 -22 -15 -22q-8 -1 -11 11q-17 49 -105 -9q-63 -41 -99 -89q-9 -11 -11 -19q17 4 116 48q82 37 83 19q0 -2 -1 -4q-2 -11 -9 -27
t-10 -24t0 -13.5t19 0t48 21.5q43 20 83 43.5t68 42t54 38t40 32t26.5 23.5t14.5 13q-38 1 -98 2q-97 2 -124.5 4t-28.5 10q-3 12 16 16q18 3 197 4q43 1 83 1q2 1 15.5 12.5t36 30t47 37t50.5 37t44 28.5q26 13 38 5q13 -13 4 -31t-32 -39.5t-47 -40t-41.5 -32t-15.5 -15.5
q2 -1 53.5 -4.5t122.5 -7.5t97 -6q2 1 16.5 14t32 27.5t41 32.5t43 29t38.5 16t27 -5q6 -6 7 -13t-2 -15t-8.5 -16.5t-13.5 -17.5t-16 -17t-17.5 -16t-16 -13.5t-13 -10.5t-8.5 -6zM13 -324q85 40 449 286q81 53 120.5 80t71 53t40.5 35t40 43t57 61l-26 2q-17 3 -73.5 5.5
t-116.5 5t-70 3.5l-94 -61q-135 -91 -279 -238t-186 -238q-24 -52 -11 -60t78 23zM841 226zM957 325q-68 -48 -78 -65q-2 -2 0 -2q13 0 76 55q30 26 21 24q-4 -2 -19 -12z" />
    <glyph glyph-name="gt.liga" unicode="gt" horiz-adv-x="565" 
d="M-120 -70q45 51 69 79.5t31.5 40.5t1 11.5t-21.5 -8t-36.5 -19t-43.5 -20t-42 -11.5t-33 5q-25 15 5 55t84 74q90 60 168 74q59 10 59 -21q0 -27 -116 -167q-37 -45 -34 -46q1 0 3 2q4 2 122.5 72t220 133t117.5 78l26 24h-61h-58.5h-53.5t-49 0.5t-41.5 1t-34.5 1.5
t-24.5 3t-15.5 5t-4 7q3 12 68 15t181 -0.5t128 -3.5q99 99 147 116q18 6 29 0.5t11 -20.5q0 -17 -8.5 -28t-36.5 -35l-33 -28q40 -2 81 -4t70 -3t56.5 -2t45 -2t31.5 -2.5t20.5 -4.5t6.5 -8q0 -7 -40 -8.5t-143 0.5q-106 2 -178 2l-67 -42q-46 -29 -148 -127.5t-186 -187.5
t-108 -119q-44 -60 -53 -47q-1 2 -2 5q-3 7 23.5 42t71 84.5t87 95t85.5 90.5t53 56q-35 -21 -96 -58q-234 -141 -285.5 -176t-115.5 -97q-35 -34 -71 -63t-62.5 -45.5t-37.5 -16.5q-6 0 -16 10q-14 13 3 37.5t53 53t74.5 55.5t75 53t48.5 39zM596 358l21 19q0 8 -28 -19
q-10 -9 -7 -9q2 1 14 9zM76 170l-28 2q-68 -8 -161 -76q-58 -42 -54 -55q4 -9 53 15q18 8 49 26t56.5 34t53.5 34t31 20z" />
    <glyph glyph-name="ot.liga" unicode="ot" horiz-adv-x="607" 
d="M126 104l-43 -42q-77 -73 -137 -77q-46 -3 -46 42v2q2 49 77.5 137.5t132.5 109.5q38 12 49 -7q7 -11 -5 -15q-3 -1 -7 0q-20 4 -87.5 -54t-96.5 -106q-35 -64 -24 -73q10 -6 48.5 15.5t66.5 46.5q24 22 31 32.5t3.5 14t-10 14t-6.5 27.5q1 27 19 45.5t44 18.5
q24 0 32 -8q8 -9 6 -29t-10 -34q-11 -21 -7 -25t30 0q64 8 189 69q33 16 53.5 30t29 22t30.5 34t38 43q-117 6 -238 10q-73 2 -76 7q-1 2 -1 5q2 9 16 13.5t48.5 6t66.5 1t98 -2.5t114 -2q7 7 30 31t45.5 47t49.5 48t51 42t40 21q28 6 35.5 -15t-13.5 -49q-23 -33 -132 -136
q56 -4 113.5 -7.5t93 -5.5t70 -4t54 -3.5t35 -3t22 -3t7.5 -3.5q6 -11 -14 -14q-22 -3 -247 9q-88 4 -169 8q-3 -2 -14.5 -11.5t-23 -18.5t-33.5 -25.5t-47 -32.5q-72 -51 -293 -322q-176 -215 -210 -250q-38 -38 -37 -20q0 8 95.5 126.5t193.5 236t123 146.5
q-7 -3 -36.5 -15t-53.5 -21.5t-59.5 -17.5t-65.5 -8h-38zM686 442q89 85 72 81.5t-82 -65.5q-26 -25 -49 -52q-36 -40 -24 -37q17 6 83 73zM133 182q7 16 6 18.5t-16 -5.5q-19 -9 -18 -28q1 -12 9 -11q10 0 19 26z" />
    <glyph glyph-name="the.liga" unicode="the" horiz-adv-x="977" 
d="M168 369q-8 0 -60.5 -7t-103 -14t-54.5 -8q-11 -5 -12 6q1 9 10 15q28 17 174 32q75 9 91 14t56 37q46 38 68.5 49.5t33.5 1.5q6 -6 -1 -13.5t-40 -31.5q-5 -5 -11 -9.5t-10.5 -8l-9 -7t-7.5 -6t-5.5 -4.5t-3.5 -3.5t-1 -2.5q7 -2 32 -0.5t62.5 3.5t41.5 2l67 54
q123 99 150 83q10 -5 1 -17q-3 -3 -7 -4q-12 -5 -85 -59q-3 -2 -8 -7q-17 -12 -24 -17t-15.5 -12.5t-10.5 -10t-1.5 -6.5t3.5 -5t13 -3t18 -2.5t27 -2.5q8 0 12 -1q135 -9 138 -32q0 -9 -4 -10.5t-22 2.5q-61 9 -105 12.5t-82.5 3t-53.5 0.5q-63 -57 -148 -133
q-92 -82 -92 -87q0 -4 34 11q20 9 32 14q81 32 92.5 14.5t-38.5 -92.5q-47 -68 -39 -80q4 -7 28 -6q58 6 136 36q23 7 31 14t12 20q10 27 48.5 63.5t84.5 58t70 6.5q69 -43 -146 -158l-20 -10l24 -5q46 -10 168.5 31.5t230.5 94.5q56 30 63 21q11 -11 -44 -44
q-101 -61 -253 -108q-164 -52 -204 -20q-12 7 -22 7t-30.5 -6t-38.5 -12.5t-46.5 -13.5t-55.5 -9q-32 -3 -42 -1.5t-20 11.5q-20 17 -13.5 44t46.5 82q3 6 7.5 12.5t7.5 11.5t5.5 9t4 6.5t1.5 3.5q0 2 -28.5 -10t-70.5 -31t-82 -39q-80 -41 -91 -31q-3 3 -3 10q0 3 36 36.5
t87.5 80t102.5 92t87.5 78.5t37.5 33q3 0 -33 -2t-73.5 -4t-38.5 -2l-26 -23t-56.5 -50t-72 -67t-77 -77t-67.5 -76t-46 -68q-12 -22 -12 -29.5t12 -7.5t12 -8q1 -12 -15 -16q-11 -2 -24 5q-64 37 220 321q87 86 86 88zM525 99q18 -3 91 49q54 39 38 39q-10 1 -27 -8
t-34.5 -22t-33 -26t-25.5 -22.5t-9 -9.5z" />
    <glyph glyph-name="ss.liga" unicode="ss" horiz-adv-x="630" 
d="M87 87q-40 -21 -49.5 -29.5t-23.5 -40.5q-20 -44 -58.5 -84t-75.5 -57t-53 0q-10 10 -6.5 31t17.5 41q14 18 32.5 36t38 33t36 26.5t33.5 23t23 15.5q-1 16 -4.5 39.5t-4.5 36t1 28t10.5 25.5t24.5 17q22 11 36 10.5t25 -12.5q12 -12 12 -22t-12 -23q-10 -12 -21.5 -9
t-7.5 17q5 13 -5 12q-8 -1 -18 -12q-11 -16 -7.5 -47t9.5 -34q3 -2 29 9.5t74.5 33t89.5 35.5q61 22 84 40q27 20 50.5 20.5t24.5 -18.5q1 -6 -0.5 -10t-6 -7.5t-10 -6t-16 -8t-19.5 -10.5q0 -120 2 -120l47 21.5t103 47t104.5 45.5t53.5 17q20 -13 -44 -45q-25 -12 -92 -40
q-89 -38 -131 -58q-36 -14 -53.5 -28.5t-33.5 -39.5q-49 -74 -128 -115q-76 -37 -99 -11q-1 2 -5 7t-5 8.5t1.5 13t11.5 22.5q28 45 149 104q52 27 63.5 35.5t17.5 26.5q8 23 5 58t-13 35t-86 -30.5t-120 -52.5zM151 -97q19 11 38 24.5t34.5 27.5t21.5 23q3 7 -3 5
q-9 -2 -40 -19q-77 -39 -97 -68q-8 -11 3 -10q13 1 43 17zM-148 -95q0 -16 59 36q64 56 67 76q0 2 -1 3q-8 6 -66.5 -47.5t-58.5 -67.5z" />
    <glyph glyph-name="et.liga" unicode="et" horiz-adv-x="520" 
d="M74 151q-12 -13 -56.5 -36t-56.5 -23q-7 0 -15 -16.5t-6 -26.5q18 -48 205 69t261 193l29 30q-11 -1 -18 -1h-10.5t-40.5 -2.5t-108 -8.5q-147 -9 -152 -5q-2 1 -1 8q3 12 53.5 19.5t177.5 15.5l130 8q4 3 20 17q69 61 86 49q3 -3 4 -7q6 -15 -18 -43q-13 -14 -4 -15
q6 -1 22 2q37 6 174 -2q131 -8 117 -25q-2 -3 -76.5 -3t-171.5 1.5t-104 1.5q-4 -5 -38.5 -33.5t-74 -66.5t-122.5 -138t-183 -238q-31 -44 -61 -99t-30 -69q0 -12 -5 -16t-13 2q-20 12 20.5 86.5t104 160.5t114 151.5t55.5 70.5q-2 -1 -21.5 -14.5t-46.5 -31t-61 -38.5
t-69 -37.5t-66.5 -28t-57.5 -10t-38 16.5q-15 16 -12 51.5t20 55.5q66 83 125 87q32 2 37 -21q3 -19 -18 -41zM26 159q26 16 24 18q-2 4 -40 -19l-14 -10q-5 -7 1 -5q7 1 29 16z" />
    <glyph glyph-name="ut.liga" unicode="ut" horiz-adv-x="643" 
d="M-72 -452q-9 -18 -14.5 -22t-12.5 6q-12 19 75 138.5t221 267.5q65 72 61 74q-2 1 -28 -12q-66 -34 -100.5 -18.5t-19.5 72.5q2 13 -3 13t-51 -24q-49 -24 -85 -31t-51 7q-13 12 -10.5 37.5t18.5 53.5q35 63 87 94q31 18 30 4q-1 -13 -29 -42q-20 -22 -37 -44
t-27.5 -40.5t-10.5 -27.5q0 -8 3.5 -9t17.5 0q12 3 25 7.5t24 8.5t24 11t22 11.5t22 12.5t20 12t19 12q15 10 22 14t17.5 9.5t13.5 5t6.5 -2.5t1.5 -9.5t-6 -20t-13 -30.5q-34 -69 -3 -70h6q36 4 86.5 33.5t99 71t89.5 80.5t70 69l29 30q-75 -3 -167 -8q-69 -3 -81.5 -2.5
t-17.5 7.5h-1q-15 18 25 25q26 4 237 11q22 1 42 1q13 10 28.5 22.5t27 21.5t24.5 19.5t22 17t20 13.5t17 9t14 4t11 -2q10 -7 12.5 -15t-5 -19t-14.5 -19t-22 -24q-20 -20 -30 -31q79 2 190 6t142 3t31 -9q0 -11 -23 -14t-133 -6h-5t-4.5 -0.5t-5.5 -0.5q-14 0 -41 -1
q-142 -5 -171 -10.5t-61 -32.5q-3 -2 -4 -3q-32 -26 -76 -60t-68.5 -53.5t-63.5 -55.5t-81 -81q-334 -358 -377 -465z" />
    <glyph glyph-name="ht.liga" unicode="ht" horiz-adv-x="679" 
d="M-97 40q-7 -4 -16.5 -10t-16 -10t-13.5 -8t-12 -6t-9.5 -3.5t-7 0t-3.5 4.5q-2 12 117 136t252.5 246t164.5 128q18 3 17 -9q-1 -11 -17 -20q-17 -10 -209 -187t-192 -183q0 -2 12 3t42 18q21 10 36 16t30.5 11.5t25 6.5t18 0t12 -7t3.5 -15.5t-4.5 -25t-13.5 -36.5
q-25 -59 -18 -65q4 -3 18 -2q66 6 207.5 86.5t211.5 151.5l46 45q-1 0 -44 -1t-121 -4.5t-147 -10.5q-6 0 -11 3.5t-5 7.5q-3 12 19.5 19.5t66.5 11t85.5 5t101 2.5t87.5 3q9 8 30 27.5t32.5 29t27 22t26 16t18.5 1.5q7 -4 9 -10.5t-1 -14.5t-8.5 -17t-12.5 -18t-13.5 -16
t-11 -12t-5.5 -6q67 -1 173 -1q167 0 218 -3t51 -15v-1q0 -3 -4 -4q-10 -3 -150 -4l-325 -5l-80 -63q-121 -98 -275 -276.5t-204 -256.5q-31 -52 -44 -49q-4 1 -4 10q0 22 101 154t215 257q4 3 0 3q-12 -1 -73 -32q-223 -112 -238 -44q-6 26 16 79l16 44q-2 5 -83.5 -35.5
t-113.5 -60.5z" />
    <glyph glyph-name="tt.liga" unicode="tt" horiz-adv-x="540" 
d="M650 368l129 -8q29 -1 50.5 -2t40.5 -2t31.5 -2t23.5 -2t16.5 -2.5t10 -3.5t6 -4t1.5 -4q1 -7 -27 -8q-9 -1 -338 2l-58 -38q-51 -35 -180.5 -149.5t-189.5 -176.5q-37 -40 -96 -120q-18 -26 -23 -19q-2 2 -3 6q-4 16 26 57.5t77 91t93 94.5t84 80.5t39 36.5
q-12 -6 -40.5 -20.5t-58.5 -30.5t-68.5 -35.5t-73.5 -36t-71.5 -30.5t-64.5 -21.5t-49 -7t-29 11.5t-8 25.5t7.5 31.5t19 35t28.5 38.5t34 38.5t37.5 38.5t36 35.5t33.5 31.5t27 24.5q-24 -1 -63 -3q-67 -3 -94.5 -2.5t-28.5 8.5q-4 16 18 21q20 5 132 12q53 4 85 6l67 43
q31 21 50.5 33t34.5 19.5t25 10t19 1.5q30 -3 6 -23q-11 -8 -27 -16q-29 -14 -66 -37t-42 -29q-2 -3 31 -4t82 0t99 2.5t87.5 4.5t41.5 5q8 4 24.5 16t31 22t29.5 18t25 7.5t13 -11.5q1 -7 -8 -17.5t-25 -24.5t-20 -18zM-62 58q-3 -20 76 5q3 2 7 3q50 18 120.5 52t136 69.5
t123 68t93 53t36.5 20.5l-30 3q-19 2 -89 0t-142 -5t-86 -3l-11 -9t-27 -23t-38 -33.5t-44 -40.5t-44 -44t-39 -43.5t-28.5 -40t-13.5 -32.5z" />
    <glyph glyph-name="ee.liga" unicode="ee" horiz-adv-x="661" 
d="M370 182q8 -8 8 -13.5t-8 -20.5q-14 -27 -46.5 -49t-58 -34t-25.5 -14q0 -9 25 -11t61 3t65 16q38 12 140 62.5t123 68.5q23 14 29 8q12 -13 -54 -54l-45 -27q-155 -87 -245 -109t-127 16q-7 10 -14 10t-31 -10q-52 -20 -124 -33t-98 -7q-14 4 -29.5 23.5t-15.5 34.5
q1 29 28 71t64 72.5t63 30.5q14 0 25.5 -11t11.5 -23q0 -11 -14.5 -28.5t-34.5 -31t-40 -20t-31 4.5q-7 8 -20 -19q-22 -43 -10 -62q2 -3 6 -5q22 -8 75.5 0.5t122.5 32.5q3 1 8 3q30 10 38.5 16t17.5 26q27 52 81 82t79 1zM308 133q33 23 18 23q-20 0 -52 -25
q-17 -14 -24 -27q-4 -7 -3 -7l14 7q35 21 47 29zM47 169q8 8 -3 8q-6 0 -15.5 -6.5t-17.5 -14t-16.5 -16l-9.5 -9.5q2 1 17 9t28 16t17 13z" />
    <glyph glyph-name="ll.liga" unicode="ll" horiz-adv-x="509" 
d="M355 467q16 -6 -4 -21q-11 -9 -36 -25q-73 -46 -162.5 -123t-154 -148t-64.5 -98q7 -15 59.5 -3t139 48t156.5 78q40 24 120 98t144.5 133t80.5 59q8 0 16 -8.5t8 -15.5q0 -12 -36 -49.5t-92.5 -86t-113.5 -90.5q-87 -62 -201.5 -187t-125.5 -163q-5 -22 -15 -22
q-6 0 -9 8q-6 17 30 71.5t103 127.5q49 51 44 53q-3 1 -44 -19q-32 -17 -80.5 -35.5t-93 -31.5t-66.5 -16q-21 -1 -29 1t-19 10q-24 23 7.5 80t95 122t134 125.5t130.5 97.5t78 30z" />
    <glyph glyph-name="oo.liga" unicode="oo" horiz-adv-x="785" 
d="M423 224q9 -11 26 -11q18 0 32 -13.5t17 -32.5v-20l61 3q49 3 96.5 13t86.5 21t48 13q14 3 18 -1.5t-5 -17.5q-12 -15 -106 -37.5t-178 -31.5q-25 -3 -37 -6t-24 -9.5t-30 -19.5q-24 -17 -51 -30t-55 -20.5t-52 -7.5t-33.5 3.5t-19.5 13.5q-12 13 -12.5 30t5 28.5
t14 25.5t9.5 14l-38 -8q-17 -4 -32 -6t-21.5 -2.5t-14.5 -3.5t-16.5 -9t-22.5 -19q-54 -53 -108.5 -69.5t-73.5 14.5q-21 35 22.5 92t100.5 89.5t70 8.5q4 -5 19 -5t22.5 -8.5t7.5 -19t2 -19t8 -8.5q17 0 85 20t92 32q73 34 88 14zM-45 51q21 4 54.5 22.5t44.5 29.5
q8 8 7 11.5t-13 16.5q-8 10 -10 17t1 18.5t4 14.5l-26 -17q-33 -19 -65 -65q-35 -49 -6 -49q4 0 9 1zM93 167q-17 -8 -8 -15.5t17 4.5l2 5q3 9 1.5 9.5t-12.5 -3.5zM353 167q-26 -7 -51.5 -23t-41.5 -35q-46 -56 4 -51q49 5 127 45l19 11q0 3 -5.5 8t-13 9.5t-13.5 12
t-6 14.5q0 8 -3.5 9.5t-15.5 -0.5zM423 155q32 -8 34 6q3 9 -11 11q-23 2 -32 -7q-5 -6 9 -10z" />
    <glyph glyph-name="ab.liga" unicode="ab" horiz-adv-x="878" 
d="M407 84q17 11 53.5 26.5t71 27t46.5 11.5q14 0 29 14q9 8 -1 7h-4q-10 0 -70.5 -20.5t-111.5 -41.5q-32 -13 -65 -29.5t-56.5 -30.5t-46.5 -28t-38.5 -23t-28.5 -14.5t-20.5 -4t-11.5 9.5l0.5 4t2.5 11t7.5 17t19.5 25.5t34 33.5q18 17 7 15q-6 -1 -104 -45
q-109 -48 -141 -43q-18 4 -23.5 18.5t2.5 35.5q7 11 5 12q-1 1 -8 -2q-118 -48 -147 -16q-30 34 49 82q78 47 165 61q30 4 48 1q23 -4 37 -19t6 -28q-6 -12 -11 -12t-13 12q-10 16 -44.5 13t-74 -15.5t-75.5 -30.5t-49 -32q-18 -19 25 -6q49 14 119 46q37 17 47 19.5
t17 -2.5q7 -4 2 -14.5t-29 -37.5q-35 -45 -31 -47q5 -6 120.5 44t173.5 79q42 20 204 149q184 146 248 178q71 34 71 -17q0 -23 -35 -56.5t-112 -83t-203 -119.5q-57 -31 -105 -66t-68.5 -54.5t-19.5 -21.5q2 -2 40.5 19.5t113 53.5t147.5 50q36 8 52 7t22 -8.5t6 -15.5
t4.5 -13t16.5 -2q33 8 118.5 20t95.5 10q5 0 8.5 -1.5t5.5 -4t2 -5.5q0 -4 -6.5 -6.5t-23 -5t-36.5 -5.5t-56 -9.5t-73 -13.5q-56 -13 -73 -19.5t-40 -26.5q-32 -25 -70.5 -50t-74 -43t-55.5 -21q-29 -8 -45 10q-23 27 33 70q11 9 25 18zM418 53q-43 -30 -28 -30q13 0 54 21
q18 8 42 22.5t40 26.5t12 13q-6 0 -29.5 -9.5t-50 -22.5t-40.5 -21zM608 344q103 63 146 107q35 35 -12 6q-82 -51 -212 -151l-21 -18q0 -5 35 17q8 4 28 16q22 14 36 23z" />
    <glyph glyph-name="ad.liga" unicode="ad" horiz-adv-x="717" 
d="M417 174q1 -12 110 70q173 130 229 156q36 17 48 9q14 -8 13 -24t-16 -30q-16 -17 -51 -42t-86 -56t-86.5 -52.5t-89 -51.5t-57.5 -33q-71 -44 -182 -138.5t-128 -128.5q-19 -31 -28 -8q-5 19 21.5 49.5t80.5 76.5t73 65q9 10 7.5 10.5t-15.5 -8.5q-109 -46 -143 -13
q-10 14 -17.5 16t-33.5 -5q-43 -8 -68 -6.5t-35 11.5q-11 11 -11 20q0 6 -4 6q-5 -1 -56 -26q-114 -57 -152 -29q-22 18 1 51q6 8 14 16q48 46 161 89q132 50 171 22q13 -8 13 -24q0 -14 -11 -18t-20 7q-23 33 -154 -21q-99 -40 -137 -75q-19 -18 4 -18q40 0 152 63
q14 8 32.5 20.5t30.5 20.5t14 8q7 0 9 -10t-2.5 -24t-13.5 -26q-16 -28 -14 -30q0 -1 4 -1t10.5 0.5t14.5 1.5t18.5 2.5t20.5 4.5q45 8 65.5 16t58.5 33q35 23 69 39.5t62.5 25.5t51 11.5t36 -3.5t16.5 -19zM285 102q-127 -44 -133 -52q-7 -13 28 -5q44 10 88 33
q24 12 25 23q1 5 -8 1zM728 342q0 8 -70 -44l-21 -18q3 0 54 34q37 25 37 28z" />
    <glyph glyph-name="al.liga" unicode="al" horiz-adv-x="512" 
d="M-76 80q53 29 100 49q20 10 27.5 1t-6.5 -31q-32 -45 -19 -46q12 -1 55 24q49 27 108.5 66t110 75t70.5 56q89 86 211.5 175.5t129.5 34.5q3 -22 -22.5 -50.5t-70 -59.5t-99 -66.5t-111 -77.5t-103.5 -86t-79 -97.5t-36 -107.5q-3 -49 12.5 -56t67.5 5q16 3 15 -4
q-1 -9 -25.5 -21t-37 -13t-29.5 8q-32 16 -35.5 61.5t13 92t42.5 83.5q18 27 12 28q-1 0 -4 -1q-160 -104 -222 -114q-55 -8 -1 75l-19.5 -12t-23.5 -13q-144 -78 -163 -41q-13 27 47 79t136.5 90.5t104.5 31.5q15 -4 22.5 -17.5t0.5 -23.5t-16.5 -10.5t-11.5 7.5
q-3 9 -40 -4.5t-85.5 -40.5t-80.5 -53q-28 -22 -12 -21q15 0 67 25zM510 346q42 31 86 65t44 38q0 11 -124 -88q-61 -48 -56 -48q4 0 50 33z" />
    <glyph glyph-name="el.liga" unicode="el" horiz-adv-x="553" 
d="M697 463q7 -12 2 -28.5t-26 -40t-46.5 -47.5t-59.5 -51t-65 -50t-63 -45.5t-53.5 -37t-36.5 -24.5q-24 -13 -38 -22.5t-31 -27t-23.5 -26t-32.5 -43t-42 -54.5q-92 -123 -92 -150q0 -11 -14 -12q-15 3 -17 20q0 16 16 46.5t38.5 62t45 60.5t37 48t12.5 19t-46 -20
t-94.5 -39.5t-103 -28.5t-71.5 13q-11 11 -13 31.5t7 40.5q8 18 0 25q-6 7 0 16.5t17 9.5q5 0 31.5 23.5t55.5 50.5t60.5 44.5t47.5 7.5q11 -7 11.5 -24.5t-11.5 -32.5q-15 -20 -53.5 -45t-72.5 -38q-15 -6 -23.5 -11t-14.5 -11.5t-11 -14.5q-15 -33 -11.5 -42.5t31.5 -9.5
q66 0 230 80q49 23 69.5 35.5t36 26t48.5 50.5q146 158 243.5 228t125.5 38zM443 243q135 91 200 166q31 34 14 32q-19 -3 -94 -61q-58 -47 -157 -146q-42 -41 -32 -37q23 11 69 46zM-7 146l29 14q34 17 46 34q3 4 0 3q-12 -1 -75 -51z" />
    <glyph glyph-name="ar.liga" unicode="ar" horiz-adv-x="774" 
d="M421 215q-8 2 -20.5 -7.5t-41.5 -37.5q-57 -56 -165.5 -111.5t-162.5 -43.5q-16 5 -26 20.5t-7 31.5q4 10 0 10q-6 0 -63 -26q-104 -51 -145 -51q-11 0 -21 10q-28 27 24.5 76t141.5 86.5t154 35.5q29 0 50 -13t15 -27q-6 -13 -16 -15.5t-16 7.5q-7 8 -37 9.5t-64 -6.5
q-56 -12 -161 -75q-64 -42 -59 -51q13 -4 125.5 48.5t120.5 52.5q27 0 3 -50q-19 -34 -15 -36q2 -1 12 -1q42 0 126 39t124 73q19 16 35 31.5t23.5 25.5t5.5 11q-3 3 -17 7.5t-28 9.5t-28.5 14.5t-18.5 22t2 31.5q9 19 31.5 31t47.5 13t47.5 -6t32.5 -28.5t1 -51.5
q-2 -8 -2.5 -13t0 -7.5t3 -5t5.5 -4.5t9 -7t12 -12q13 -13 7.5 -34.5t-21 -42.5t-30.5 -45t-22 -41.5t5 -31.5q16 -15 98 18t156.5 73.5t94.5 56.5q36 25 50 20q15 -7 -37 -45q-37 -28 -101 -64q-236 -134 -286 -85q-42 43 38 155q20 30 22 41t-11 15zM394 282q7 42 -34 41
q-32 0 -52 -18q-7 -6 -5 -10t36.5 -19t45.5 -15q3 0 9 21z" />
    <glyph glyph-name="if.liga" unicode="if" horiz-adv-x="657" 
d="M58 242q15 -2 16 -13t-13 -17q-22 -7 -60.5 -65.5t-30.5 -70.5q6 -10 14 -10q62 0 177 65.5t170 121.5q195 191 277 195q31 1 31 -24q0 -10 -6 -22q-22 -42 -119 -114.5t-199 -123.5q-36 -18 -53 -35t-60 -79q-91 -138 -60 -173q19 -22 70 9q56 34 78 90q4 11 6 22
q4 20 -4 43.5t-22 32.5q-12 5 -12 18t12 19q18 5 48 5q49 0 166.5 26t164.5 46q27 12 29.5 12t2.5 -12q0 -14 -19 -24q-29 -13 -131 -41t-147 -34q-22 -3 -32 -5t-17.5 -4.5t-8.5 -5t0 -6.5q6 -44 5 -68.5t-10 -46.5q-15 -33 -39 -59.5t-53.5 -43t-60.5 -20.5
q-25 -3 -31.5 -1t-21.5 17q-20 23 -18.5 52.5t17.5 65.5t34.5 65.5t33.5 52t15 23.5t-23 -9t-57 -25t-72 -27t-67 -13.5t-42 13.5q-24 34 47 136q27 37 43 50.5t32 11.5zM147 298q0 -6 -12 -13.5t-20 -7.5q-10 0 -14 13q-3 8 -1 14t11 18q14 17 23.5 19t22.5 -9q8 -7 8 -9.5
t-8 -8.5q-10 -12 -10 -16zM355 225q16 0 140 93q104 80 95 87q-33 0 -178 -125q-61 -53 -57 -55z" />
    <glyph glyph-name="underscoreone.liga" unicode="_&#x31;" 
d="M-202 -120q-540 -51 -751 -95q-17 -4 -20 -3.5t-5 4.5q-1 2 -2 3q-9 11 20 20q26 8 87 17q189 34 444 62t490 43.5t443 24t336.5 8t137.5 -8.5q11 -12 -12 -15q-6 -1 -197 -3q-412 -5 -971 -57z" />
    <glyph glyph-name="underscoretwo.liga" unicode="_&#x32;" 
d="M-649 -136q-96 -20 -193.5 -55t-119.5 -58q-11 -7 -17 -8q-3 6 -2 12.5t9 14t22.5 16.5t37.5 21q125 64 334 103t432 48t440.5 0t385.5 -36t240 -64q44 -21 59 -48q7 -14 -3 -13q-11 1 -38 21q-59 46 -249.5 75t-424 36t-486.5 -9.5t-427 -55.5z" />
    <glyph glyph-name="underscorethree.liga" unicode="_&#x33;" 
d="M-1000 -243q18 36 296 75t626 67t651 46.5t398 18.5q26 0 29 -14q0 -6 -5 -11q-4 -4 -105 -16.5t-224 -26t-240.5 -28.5t-147.5 -23q-13 -3 -25 -3.5t-12 0.5q-13 12 31 25q31 9 110 22q42 7 42 9q0 1 -4 1q-116 4 -693 -53.5t-714 -96.5q-7 -3 -10 -1.5t-3 9.5z" />
    <glyph glyph-name="underscorefour.liga" unicode="_&#x34;" 
d="M1030 -48q4 -14 -14 -21.5t-72 -13.5q-86 -7 -250 -27t-292.5 -38t-128.5 -21q0 -4 113.5 -2t113.5 -8q0 -19 -182 -19q-55 0 -84 0.5t-48.5 3.5t-24.5 7.5t-5 12.5q0 16 20 23q37 15 356 57l1 1h1h1h1h1h1h1h1l1 1h1h1h1h1h1h1l1 1h1h1h1h1h1h1l1 1h1h1h1h1h1h1h1l1 1h1
h1h1h1h1h1h1l1 1h1h1h1h1h1h1l1 1h1h1h1h1h1h1l1 1h1h1h1h1h1h1h1l1 1h1h1h1h1h1h1l1 1h1h1h1h1h1h1h1l1 1h1h1h1h1q24 3 -4 5q-132 8 -580 -11q-722 -30 -1003 -95q-32 -8 -42.5 -8.5t-11.5 5.5q-5 9 0 13q8 5 92 24.5t138 26.5q145 25 384 44t481 28t462 12.5t359.5 1
t142.5 -10.5zM674 -75q7 2 8 3q-4 4 -13 1q-1 -3 5 -4z" />
    <glyph glyph-name="underscorefive.liga" unicode="_&#x35;" 
d="M1050 -69q1 -8 -12 -12q-32 -8 -414 -21q-470 -15 -618 -20q-1053 -35 -1056 -27q-7 13 321.5 32t792.5 40t547 26q53 4 126 9q80 5 93.5 5t14.5 -7v-2q1 -4 -11.5 -8t-37 -7t-56 -5.5t-72.5 -5.5q158 4 305 10q75 3 77 -1v-3v-3z" />
    <glyph glyph-name="underscoresix.liga" unicode="_&#x36;" 
d="M-370 -103q-358 -23 -543 -54q-110 -19 -18 -24q38 -3 110 -3q40 0 48.5 -1.5t6.5 -8.5q-2 -12 -50.5 -16.5t-100.5 -2t-78 7.5q-51 8 -61.5 13.5t-8.5 21.5t27 24.5t104 18.5q151 24 406 43t504 28t498 14.5t388 4.5t172 -2q55 -10 9 -15q-30 -3 -448 -12
q-520 -11 -965 -37z" />
    <glyph glyph-name="underscoreseven.liga" unicode="_&#x37;" 
d="M840 -111q18 -14 -4 -25q-11 -5 -25 -5q-11 -1 -411 -50t-439 -51q-44 -4 -45 -7q0 -3 98 -5q49 -2 52 -2q227 -6 417.5 -15.5t196.5 -15.5q6 -8 -10 -11q-34 -6 -267 1q-287 9 -566 13q-101 1 -128.5 2.5t-33.5 8.5q-18 21 11 32q7 2 587 69q163 19 163 21q1 1 -9 0
q-87 0 -382 -5t-394 -8q-286 -10 -458 -28q-29 -3 -34 -2.5t-6 5.5v2q-3 29 270 47q334 22 1114 29q126 1 238 5q42 1 50 0.5t13 -4.5q1 -1 2 -1z" />
    <glyph glyph-name="underscoreeight.liga" unicode="_&#x38;" 
d="M621 -65q0 -13 -34 -17t-174 -9q-463 -15 -986 -48q-48 -4 -48 4q-14 23 245 39.5t599.5 26.5t352.5 10q28 2 36.5 1t8.5 -7z" />
    <glyph glyph-name="underscorenine.liga" unicode="_&#x39;" 
d="M754 -129q44 -14 44.5 -35.5t-42.5 -31.5q-58 -13 -252 -27.5t-400.5 -22.5t-371.5 -8t-170 11q-3 11 6.5 19.5t16.5 0.5q12 -9 52 -9t250 10q6 1 10 1q97 4 188.5 8.5t163 8.5t136.5 8.5t113 8t89 7t68.5 6t46.5 4.5t28 3l9 1q8 1 -4 5q-72 21 -309 42q-354 31 -702 12
q-141 -8 -291 -26.5t-194 -35.5q-40 -15 -37 -1q0 4 4 9q5 8 51 21.5t106.5 25.5t109.5 19q253 31 518.5 29t475 -20.5t287.5 -42.5z" />
    <glyph glyph-name="underscorezero.liga" unicode="_&#x30;" 
d="M-1046 -108q-45 5 -40 29q3 9 19 10.5t72 -0.5q482 -15 1365 34q167 8 301 20t204 22.5t117.5 19.5t65 12.5t22.5 0.5q7 -4 7 -10q0 -3 -3.5 -5.5t-18.5 -6.5t-36 -8.5t-66 -13.5q-189 -36 -650.5 -62.5t-759.5 -33.5q-38 -1 0 -5q20 -2 97 -8q428 -36 523 -68
q29 -10 36.5 -23t-8.5 -25q-13 -14 -23 -13.5t-11 15.5q0 8 -21.5 15.5t-96.5 18.5t-202 23t-354.5 28t-538.5 34z" />
    <glyph glyph-name="st.liga" unicode="st" horiz-adv-x="567" 
d="M49 11q-10 -46 -67 -99.5t-122.5 -80t-96.5 -2.5q-59 48 85 136q29 18 86 49q82 46 83 56q0 13 -14 64q-13 48 -9 68t29 36q45 32 84 6q21 -15 15 -26q-3 -6 -17 -4q-17 2 -29.5 2.5t-21 -2t-14 -6t-7.5 -11t-2 -14.5t2.5 -20t5 -24t6.5 -29.5t7 -33.5q38 14 102 38
q171 64 210 82.5t86 61.5q14 11 27.5 24t19.5 19l7 7q-2 2 -50 -1.5t-104.5 -8t-105 -4.5t-51.5 8t13 13q26 8 225 21q61 3 108 7q6 3 19 13.5t27 21.5t31 23.5t33.5 21.5t32 15t29.5 4t23 -12q26 -28 -27 -79q82 -1 194 -1q85 0 110 -1.5t25 -7.5q0 -4 -5.5 -6t-23.5 -3.5
t-49 -2.5t-83 -3q-153 -4 -183.5 -8t-72.5 -31q-26 -18 -69.5 -41.5t-87 -46t-49.5 -25.5q-135 -137 -258.5 -264t-174 -179t-60.5 -60q-33 -28 -47 -24q-11 3 15 34q41 47 303 313q138 140 131 140q-32 -12 -85 -32q-134 -51 -159 -63t-29 -28zM-216 -138q0 -7 11.5 -8.5
t30 2.5t36.5 14q53 26 100 67t47 63q0 9 -85 -35q-130 -66 -139 -100q-1 -2 -1 -3zM606 343q3 -4 17 -4t38.5 13.5t40.5 35.5q12 17 -15 6q-41 -17 -75 -45zM590 302q3 4 -4 4l-10 -1q-25 -4 -61 -48q1 1 36.5 22t38.5 23z" />
    <glyph glyph-name=".notdef" horiz-adv-x="427" 
d="M-50 700h427v-700h-427v700zM-22 680l185 -309l186 309h-371zM151 350l-180 300v-601zM164 329l-185 -308h370zM176 350l181 -303v605z" />
    <glyph glyph-name=".null" 
 />
    <glyph glyph-name=".null" 
 />
    <glyph glyph-name="nonmarkingreturn" horiz-adv-x="333" 
 />
    <glyph glyph-name="controlLF" unicode="&#xa;" 
 />
    <glyph glyph-name="controlCR" unicode="&#xd;" 
 />
    <glyph glyph-name="space" unicode=" " horiz-adv-x="350" 
 />
    <glyph glyph-name="exclam" unicode="!" horiz-adv-x="556" 
d="M203 513v-141q-44 46 -54 108.5t17 119.5h185q28 0 50 -15.5t31 -38t5 -48.5t-24 -46q-16 -16 -36.5 -22t-40 -2t-36 14.5t-26.5 29.5t-10 41h-61zM0 802q0 16 11.5 27.5t28.5 12.5h577q10 0 19.5 -5.5t14.5 -14.5t5 -20v-577q0 -8 -3 -15.5t-8.5 -12.5t-12.5 -8.5
t-15 -3.5h-577q-17 0 -28.5 12t-11.5 28v577zM130 662q-52 -77 -43.5 -173t76.5 -164q77 -76 186 -77.5t190 77.5l-43 44q-46 -46 -109.5 -57t-122.5 16v65q39 -28 87 -28q62 0 105.5 43.5t43.5 105t-43.5 105t-105.5 43.5h-141q60 57 143.5 56t142.5 -60l14 14l15.5 15.5
t13.5 14.5q-78 77 -188 77q-45 0 -86.5 -14t-75.5 -40.5t-59 -62.5zM171 39h-16v102h-20v14h56v-14h-20v-102zM186 22q2 0 3.5 -1.5t1.5 -3.5v-2h-4v2h-1h-18h-1v-6q0 -1 0.5 -1h0.5h18q2 0 3.5 -1.5t1.5 -3.5v-6q0 -3 -1.5 -4.5t-3.5 -1.5h-18q-2 0 -3.5 1.5t-1.5 4.5v1h4
v-1q0 -1 0.5 -1h0.5h18h0.5t0.5 1v6h-1h-18q-2 0 -3.5 1.5t-1.5 4.5v6q0 2 1.5 3.5t3.5 1.5h18zM108 58v97h17v-100q0 -16 -17 -16h-21q-17 0 -17 16v100h17v-97q0 -4 1 -5t4 -1h11q3 0 4 1t1 5zM38 155q17 0 17 -16v-39q0 -16 -17 -16h-21v-45h-17v116h38zM39 103v33
q0 3 -1.5 4t-4.5 1h-16v-44h16q3 0 4.5 1t1.5 5zM227 22h28v-5h-12v-24h-4v24h-12v5zM428 -6h-5v28h5v-28zM472 141v14h55v-14h-19v-102h-17v102h-19zM257 102q0 -14 -13 -16l19 -47h-18l-18 47h-9v-47h-17v116h39q17 0 17 -16v-37zM240 104v32q0 3 -1 4t-4 1h-17v-42h17
q3 0 4 1t1 4zM575 155q17 0 17 -16v-84q0 -16 -17 -16h-21q-17 0 -17 16v84q0 16 17 16h21zM576 58v78q0 3 -1.5 4t-4.5 1h-11q-3 0 -4 -1t-1 -4v-78q0 -4 1 -5t4 -1h11q3 0 4.5 1t1.5 5zM488 22q2 0 3.5 -1.5t1.5 -3.5v-18q0 -2 -1.5 -3.5t-3.5 -1.5h-18q-2 0 -3.5 1.5
t-1.5 3.5v18q0 2 1.5 3.5t3.5 1.5h18zM489 -1v18h-1h-18h-1v-18q0 -1 1 -1h18h1v1zM467 52v-13h-50v116h49v-14h-33v-35h27v-14h-27v-40h34zM628 52h28v-13h-45v116h17v-103zM381 22q2 0 3.5 -1.5t1.5 -3.5v-18q0 -3 -1.5 -4t-3.5 -1h-24v28h24zM381 -1v18v0h-18h-1v-18v-1
h1h18v1zM316 -1v23h4v-23q0 -3 -1.5 -4.5t-3.5 -1.5h-18q-2 0 -3.5 1.5t-1.5 4.5v23h4v-23v-1h1h18q1 0 1 1zM288 155h25l22 -116h-17l-5 27h-24l-5 -27h-16zM291 79h20l-11 61zM383 155q17 0 17 -16v-20h-17v17q0 4 -1 5t-4 1h-10q-3 0 -4 -1t-1 -5v-79q0 -3 1 -4t4 -1h10
q3 0 4 1t1 4v18h17v-20q0 -16 -17 -16h-20q-17 0 -17 16v84q0 16 17 16h20zM508 861q-15 0 -15 14v86h14v-83q0 -3 1 -4t4 -1h9q3 0 4 1t1 4v83h14v-86q0 -14 -15 -14h-17zM461 873v-12h-39v100h15v-88h24zM568 906q-14 0 -14 15v26q0 14 14 14h16q15 0 15 -14v-15h-15v13
q0 2 -1 3t-3 1h-7q-3 0 -4 -1t-1 -3v-23q0 -2 1 -3t4 -1h11q15 0 15 -14v-29q0 -14 -15 -14h-15q-15 0 -15 14v15h14v-12q0 -3 1 -4t4 -1h7q3 0 3.5 1t0.5 4v24q0 3 -0.5 3.5t-3.5 0.5h-12zM628 873h28v-12h-43v100h42v-12h-27v-30h22v-12h-22v-34zM189 906q-14 0 -14 15v26
q0 14 15 14h15q15 0 15 -14v-15h-15v13q0 2 -1 3t-3 1h-7q-3 0 -4 -1t-1 -3v-23q0 -2 1 -3t4 -1h12q14 0 14 -14v-29q0 -14 -15 -14h-15q-15 0 -15 14v15h15v-12q0 -3 0.5 -4t3.5 -1h7q3 0 3.5 1t0.5 4v24q0 3 -0.5 3.5t-3.5 0.5h-12zM103 873v-12h-43v100h42v-12h-28v-30
h23v-12h-23v-34h29zM14 900v-39h-14v100h32q15 0 15 -14v-33q0 -14 -15 -14h-18zM14 949v-38h14q3 0 4 1t1 4v29q0 2 -1 3t-4 1h-14zM373 884l-4 -23h-14l18 100h20l19 -100h-14l-4 23h-21zM383 948l-8 -52h17zM129 902v-41h-15v100h33q14 0 14 -14v-31q0 -12 -10 -14
l16 -41h-16l-15 41h-7zM129 949v-36h13q3 0 4 1t1 4v27q0 2 -1 3t-4 1h-13zM248 861q-15 0 -15 14v72q0 14 15 14h18q15 0 15 -14v-72q0 -14 -15 -14h-18zM248 945v-67q0 -3 1 -4t3 -1h10q2 0 3 1t1 4v67q0 2 -1 3t-3 1h-10q-2 0 -3 -1t-1 -3zM310 933v-72h-14v100h15
l21 -70v70h13v-100h-15z" />
    <glyph glyph-name="quotedbl" unicode="&#x22;" horiz-adv-x="345" 
d="M245 441q4 -13 -22 -47t-40 -34q-12 0 -15.5 6.5t4.5 12.5q8 9 4 9q-7 0 -30 -12q-34 -16 -43.5 -4t15.5 38q3 4 10 12t12.5 15.5t7.5 13.5q15 27 24 21q5 -5 3 -21l-1 -12l-2 -10l11 5.5t22.5 10.5t23.5 5t16 -9z" />
    <glyph glyph-name="quotedbl" unicode="&#x201d;" horiz-adv-x="345" 
d="M245 441q4 -13 -22 -47t-40 -34q-12 0 -15.5 6.5t4.5 12.5q8 9 4 9q-7 0 -30 -12q-34 -16 -43.5 -4t15.5 38q3 4 10 12t12.5 15.5t7.5 13.5q15 27 24 21q5 -5 3 -21l-1 -12l-2 -10l11 5.5t22.5 10.5t23.5 5t16 -9z" />
    <glyph glyph-name="numbersign" unicode="#" horiz-adv-x="657" 
d="M0 802q0 16 11.5 27.5t28.5 12.5h577q16 0 27.5 -12t11.5 -28v-577q0 -8 -3 -15.5t-8.5 -12.5t-12.5 -8.5t-15 -3.5h-577q-17 0 -28.5 12t-11.5 28v577zM130 662q-52 -77 -43.5 -173t76.5 -164q77 -76 186 -77.5t190 77.5q-14 15 -43 44q-46 -46 -109.5 -57t-122.5 16v65
q39 -28 87 -28q62 0 105.5 43.5t43.5 105t-43.5 105t-105.5 43.5h-141q60 57 143.5 56t142.5 -60q15 15 43 44q-78 77 -188 77q-67 0 -125.5 -31.5t-95.5 -85.5zM203 513v-141q-44 46 -54 108.5t17 119.5h185q28 0 50 -15.5t31 -38t5 -48.5t-24 -46q-16 -16 -36.5 -22
t-40 -2t-36 14.5t-26.5 29.5t-10 41h-61zM171 39h-16v102h-20v14h56v-14h-20v-102zM108 58v97h17v-100q0 -16 -17 -16h-21q-17 0 -17 16v100h17v-97q0 -4 1 -5t4 -1h11q3 0 4 1t1 5zM38 155q17 0 17 -16v-39q0 -16 -17 -16h-21v-45h-17v116h38zM39 103v33q0 3 -1.5 4t-4.5 1
h-16v-44h16q3 0 4.5 1t1.5 5zM186 22q2 0 3.5 -1.5t1.5 -3.5v-2h-4v2h-1h-18h-1v-6q0 -1 0.5 -1h0.5h18q2 0 3.5 -1.5t1.5 -3.5v-6q0 -2 -1.5 -3.5t-3.5 -1.5h-18q-2 0 -3.5 1.5t-1.5 3.5v1h4v-1q0 -1 0.5 -1h0.5h18h0.5t0.5 1v6h-1h-18q-2 0 -3.5 1.5t-1.5 4.5v6
q0 2 1.5 3.5t3.5 1.5h18zM428 -6h-5v28h5v-28zM575 155q17 0 17 -16v-84q0 -16 -17 -16h-21q-17 0 -17 16v84q0 16 17 16h21zM576 58v78q0 3 -1.5 4t-4.5 1h-11q-3 0 -4 -1t-1 -4v-78q0 -4 1 -5t4 -1h11q3 0 4.5 1t1.5 5zM467 52v-13h-50v116h49v-14h-33v-35h27v-14h-27v-40
h34zM628 52h28v-13h-45v116h17v-103zM383 155q17 0 17 -16v-20h-17v17q0 4 -1 5t-4 1h-10q-3 0 -4 -1t-1 -5v-79q0 -3 1 -4t4 -1h10q3 0 4 1t1 4v18h17v-20q0 -16 -17 -16h-20q-17 0 -17 16v84q0 16 17 16h20zM488 22q2 0 3.5 -1.5t1.5 -3.5v-18q0 -2 -1.5 -3.5t-3.5 -1.5
h-18q-2 0 -3.5 1.5t-1.5 3.5v18q0 2 1.5 3.5t3.5 1.5h18zM489 -1v18h-1h-18h-1v-18q0 -1 1 -1h18h1v1zM227 17v5h28v-5h-12v-24h-4v24h-12zM257 102q0 -14 -13 -16l19 -47h-18l-18 47h-9v-47h-16v116h38q17 0 17 -16v-37zM240 104v32q0 3 -1 4t-4 1h-17v-42h17q3 0 4 1t1 4z
M316 -1v23h4v-23q0 -3 -1.5 -4.5t-3.5 -1.5h-18q-2 0 -3.5 1.5t-1.5 4.5v23h4v-23v-1h1h18q1 0 1 1zM472 141v14h55v-14h-19v-102h-17v102h-19zM288 155h25l22 -116h-17l-5 27h-24l-5 -27h-16zM291 79h20l-11 61zM381 22q2 0 3.5 -1.5t1.5 -3.5v-18q0 -2 -1.5 -3.5
t-3.5 -1.5h-24v28h24zM381 -1v18v0h-18h-1v-18v-1h1h18v1zM461 873v-12h-39v100h15v-88h24zM568 906q-14 0 -14 15v26q0 14 15 14h15q15 0 15 -14v-15h-15v13q0 2 -1 3t-3 1h-7q-3 0 -4 -1t-1 -3v-23q0 -2 1 -3t4 -1h12q14 0 14 -14v-29q0 -14 -15 -14h-15q-15 0 -15 14v15
h15v-12q0 -3 0.5 -4t3.5 -1h7q3 0 4 1t1 4v24q0 3 -1 3.5t-4 0.5h-12zM508 862q-15 0 -15 13v86h14v-83q0 -3 1 -4t4 -1h9q3 0 4 1t1 4v83h14v-86q0 -13 -15 -13h-17zM628 873h28v-11h-43v99h42v-12h-27v-30h22v-12h-22v-34zM373 884l-4 -22h-14l18 99h20l19 -99h-14l-4 22
h-21zM383 948l-8 -52h17zM129 902v-40h-15v99h33q14 0 14 -14v-31q0 -12 -10 -14l16 -41h-16l-15 41h-7zM129 949v-36h13q3 0 4 1t1 4v27q0 2 -1 3t-4 1h-13zM103 873v-11h-43v99h42v-12h-28v-30h23v-12h-23v-34h29zM14 900v-38h-14v99h32q15 0 15 -14v-33q0 -14 -15 -14
h-18zM14 949v-38h14q3 0 4 1t1 4v29q0 2 -1 3t-4 1h-14zM248 862q-15 0 -15 13v72q0 14 15 14h18q15 0 15 -14v-72q0 -13 -15 -13h-18zM248 945v-67q0 -3 1 -4t3 -1h10q2 0 3 1t1 4v67q0 2 -1 3t-3 1h-10q-2 0 -3 -1t-1 -3zM310 933v-71h-14v99h16l20 -70v70h13v-99h-14z
M189 906q-14 0 -14 15v26q0 14 15 14h15q15 0 15 -14v-15h-15v13q0 2 -1 3t-3 1h-7q-3 0 -4 -1t-1 -3v-23q0 -2 1 -3t4 -1h11q15 0 15 -14v-29q0 -13 -15 -13h-15q-15 0 -15 13v15h14v-12q0 -3 1 -4t4 -1h7q3 0 3.5 1t0.5 4v24q0 3 -0.5 3.5t-3.5 0.5h-12z" />
    <glyph glyph-name="dollar" unicode="$" horiz-adv-x="657" 
d="M40 841h577q16 0 27.5 -11.5t11.5 -27.5v-577q0 -8 -3 -15.5t-8.5 -12.5t-12.5 -8.5t-15 -3.5h-577q-17 0 -28.5 12t-11.5 28v577q0 16 11.5 27.5t28.5 11.5zM351 662h-141q60 57 143.5 56t142.5 -60q14 15 43 44q-78 78 -188 78q-45 0 -86.5 -14.5t-75.5 -41t-59 -62.5
q-52 -77 -43.5 -173t76.5 -164q77 -76 186 -77.5t190 77.5q-14 15 -43 44q-46 -46 -109.5 -57t-122.5 16v65q39 -28 87 -28q62 0 105.5 43.5t43.5 105t-43.5 105t-105.5 43.5zM203 372q-44 46 -54 108.5t17 119.5h185q28 0 50 -15.5t31 -38t5 -48.5t-24 -46
q-16 -16 -36.5 -22t-40 -2t-36 14.5t-26.5 29.5t-10 41h-61v-141zM628 52h28v-13h-45v116h17v-103zM38 155q17 0 17 -16v-39q0 -16 -17 -16h-21v-45h-17v116h38zM39 103v33q0 3 -1.5 4t-4.5 1h-16v-44h16q3 0 4.5 1t1.5 5zM488 22q2 0 3.5 -1.5t1.5 -3.5v-18q0 -2 -1.5 -3.5
t-3.5 -1.5h-18q-2 0 -3.5 1.5t-1.5 3.5v18q0 2 1.5 3.5t3.5 1.5h18zM489 -1v18h-1h-18h-1v-18q0 -1 1 -1h18h1v1zM575 155q17 0 17 -16v-84q0 -16 -17 -16h-21q-17 0 -17 16v84q0 16 17 16h21zM576 58l-1 78q0 3 -1 4t-4 1h-11q-3 0 -4 -1t-1 -4v-78q0 -4 1 -5t4 -1h11
q3 0 4.5 1t1.5 5zM381 22q2 0 3.5 -1.5t1.5 -3.5v-18q0 -2 -1.5 -3.5t-3.5 -1.5h-24v28h24zM381 -1v18v0h-18h-1v-18v-1h1h18v1zM472 141v14h55v-14h-19v-102h-17v102h-19zM316 -1v23h4v-23q0 -3 -1.5 -4.5t-3.5 -1.5h-18q-2 0 -3.5 1.5t-1.5 4.5v23h4v-23v-1h1h18q1 0 1 1z
M467 52v-13h-50v116h49v-14h-33v-35h27v-14h-27v-40h34zM428 -6h-5v28h5v-28zM257 102q0 -14 -13 -16l19 -47h-18l-18 47h-9v-47h-17v116h39q17 0 17 -16v-37zM240 104v32q0 3 -1 4t-4 1h-17v-42h17q3 0 4 1t1 4zM383 155q17 0 17 -16v-20h-17v17q0 4 -1 5t-4 1h-10
q-3 0 -4 -1t-1 -5v-79q0 -3 1 -4t4 -1h10q3 0 4 1t1 4v18h17v-20q0 -16 -17 -16h-20q-17 0 -17 16v84q0 16 17 16h20zM108 58v97h17v-100q0 -16 -17 -16h-21q-17 0 -17 16v100h17v-97q0 -4 1 -5t4 -1h11q3 0 4 1t1 5zM288 155h25l22 -116h-17l-5 27h-24l-5 -27h-16zM291 79
h20l-11 61zM186 22q2 0 3.5 -1.5t1.5 -3.5v-2h-4v2h-1h-18h-1v-6q0 -1 0.5 -1h0.5h18q2 0 3.5 -1.5t1.5 -3.5v-6q0 -3 -1.5 -4t-3.5 -1h-18q-2 0 -3.5 1t-1.5 4v1h4v-1q0 -1 0.5 -1h0.5h18h0.5t0.5 1v6h-1h-18q-2 0 -3.5 1.5t-1.5 4.5v6q0 2 1.5 3.5t3.5 1.5h18zM171 39h-16
v102h-20v14h56v-14h-20v-102zM227 17v5h28v-5h-12v-24h-4v24h-12zM568 906q-14 0 -14 15v26q0 14 15 14h15q15 0 15 -14v-15h-15v13q0 2 -1 3t-3 1h-7q-3 0 -4 -1t-1 -3v-23q0 -2 1 -3t4 -1h11q15 0 15 -14v-29q0 -14 -15 -14h-15q-15 0 -15 14v15h14v-12q0 -3 1 -4t4 -1h7
q3 0 3.5 1t0.5 4v24q0 3 -0.5 3.5t-3.5 0.5h-12zM508 862q-15 0 -15 13v86h14v-83q0 -3 1 -4t4 -1h9q3 0 4 1t1 4v83h14v-86q0 -13 -15 -13h-17zM656 873v-11h-43v99h42v-12h-27v-30h22v-12h-22v-34h28zM14 900v-38h-14v99h32q15 0 15 -14v-33q0 -14 -15 -14h-18zM14 949
v-38h14q3 0 4 1t1 4v29q0 2 -1 3t-4 1h-14zM373 884l-4 -22h-14l18 99h20l19 -99h-14l-4 22h-21zM383 948l-8 -52h17zM248 862q-15 0 -15 13v72q0 14 15 14h18q15 0 15 -14v-72q0 -13 -15 -13h-18zM248 945v-67q0 -3 1 -4t3 -1h10q2 0 3 1t1 4v67q0 2 -1 3t-3 1h-10
q-2 0 -3 -1t-1 -3zM189 906q-14 0 -14 15v26q0 14 14 14h16q15 0 15 -14v-15h-15v13q0 2 -1 3t-3 1h-7q-3 0 -4 -1t-1 -3v-23q0 -2 1 -3t4 -1h11q15 0 15 -14v-29q0 -13 -15 -13h-15q-15 0 -15 13v15h14v-12q0 -3 1 -4t4 -1h7q3 0 3.5 1t0.5 4v24q0 3 -0.5 3.5t-3.5 0.5h-12
zM461 873v-11h-39v99h15v-88h24zM103 873v-11h-43v99h42v-12h-28v-30h23v-12h-23v-34h29zM310 933v-71h-14v99h16l20 -70v70h13v-99h-14zM136 902h-7v-40h-15v99h33q14 0 14 -14v-31q0 -12 -10 -14l16 -41h-16zM128 949v-36h14q3 0 4 1t1 4v27q0 2 -1 3t-4 1h-14z" />
    <glyph glyph-name="percent" unicode="%" horiz-adv-x="906" 
d="M140 841h577q10 0 19.5 -5t14.5 -14t5 -20v-577q0 -8 -3 -15.5t-8.5 -12.5t-12.5 -8.5t-15 -3.5h-577q-17 0 -28.5 12t-11.5 28v577q0 16 11.5 27.5t28.5 11.5zM451 662h-141q60 57 143.5 56t142.5 -60q14 15 43 44q-78 78 -188 78q-45 0 -86.5 -14.5t-75.5 -41
t-59 -62.5q-52 -77 -43.5 -173t76.5 -164q77 -76 186 -77.5t190 77.5q-14 14 -43 44q-46 -46 -109.5 -57t-122.5 16v65q39 -28 87 -28q62 0 105.5 43.5t43.5 105t-43.5 105t-105.5 43.5zM303 372q-44 46 -54 108.5t17 119.5h185q28 0 50 -15.5t31 -38t5 -48.5t-24 -46
t-46.5 -24t-49 5t-38 30.5t-15.5 49.5h-61v-141zM208 58v97h17v-100q0 -16 -17 -16h-21q-17 0 -17 16v100h17v-97q0 -4 1 -5t4 -1h11q3 0 4 1t1 5zM271 39h-16v102h-20v14h56v-14h-20v-102zM138 155q17 0 17 -16v-39q0 -16 -17 -16h-21v-45h-17v116h38zM139 103v33
q0 3 -1.5 4t-4.5 1h-16v-44h16q3 0 4.5 1t1.5 5zM567 52v-13h-50v116h49v-14h-33v-35h27v-14h-27v-40h34zM588 22q2 0 3.5 -1.5t1.5 -3.5v-18q0 -2 -1.5 -3.5t-3.5 -1.5h-18q-2 0 -3.5 1.5t-1.5 3.5v18q0 2 1.5 3.5t3.5 1.5h18zM589 -1v18h-1h-18h-1v-18q0 -1 1 -1h18h1v1z
M483 155q17 0 17 -16v-20h-17v17q0 4 -1 5t-4 1h-10q-3 0 -4 -1t-1 -5v-79q0 -3 1 -4t4 -1h10q3 0 4 1t1 4v18h17v-20q0 -16 -17 -16h-20q-17 0 -17 16v84q0 16 17 16h20zM572 141v14h55v-14h-19v-102h-17v102h-19zM528 -6h-5v28h5v-28zM728 52h28v-13h-45v116h17v-103z
M675 155q17 0 17 -16v-84q0 -16 -17 -16h-21q-17 0 -17 16v84q0 16 17 16h21zM676 58v78q0 3 -1.5 4t-4.5 1h-11q-3 0 -4 -1t-1 -4v-78q0 -4 1 -5t4 -1h11q3 0 4.5 1t1.5 5zM357 102q0 -14 -13 -16l19 -47h-18l-18 47h-9v-47h-16v116h38q17 0 17 -16v-37zM340 104v32
q0 3 -1 4t-4 1h-17v-42h17q3 0 4 1t1 4zM286 22q2 0 3.5 -1.5t1.5 -3.5v-2h-4v2h-1h-18h-1v-6q0 -1 0.5 -1h0.5h18q2 0 3.5 -1.5t1.5 -3.5v-6q0 -3 -1.5 -4t-3.5 -1h-18q-2 0 -3.5 1t-1.5 4v1h4v-1q0 -1 0.5 -1h0.5h18h0.5t0.5 1v6h-1h-18q-2 0 -3.5 1.5t-1.5 4.5v6
q0 2 1.5 3.5t3.5 1.5h18zM481 22q2 0 3.5 -1.5t1.5 -3.5v-18q0 -2 -1.5 -3.5t-3.5 -1.5h-24v28h24zM481 -1v18v0h-18h-1v-18v-1h1h18v1zM416 -1v23h4v-23q0 -3 -1.5 -4.5t-3.5 -1.5h-18q-2 0 -3.5 1.5t-1.5 4.5v23h4v-23v-1h1h18q1 0 1 1zM327 17v5h28v-5h-12v-24h-4v24h-12
zM388 155h25l22 -116h-17l-5 27h-24l-5 -27h-16zM391 79h20l-11 61zM561 873v-12h-39v100h15v-88h24zM756 873v-12h-43v100h42v-12h-27v-30h22v-12h-22v-34h28zM668 906q-14 0 -14 15v26q0 14 15 14h15q15 0 15 -14v-15h-15v13q0 2 -1 3t-3 1h-7q-3 0 -4 -1t-1 -3v-23
q0 -2 1 -3t4 -1h11q15 0 15 -14v-29q0 -14 -15 -14h-15q-15 0 -15 14v15h14v-12q0 -3 1 -4t4 -1h7q3 0 3.5 1t0.5 4v24q0 3 -0.5 3.5t-3.5 0.5h-12zM608 861q-15 0 -15 14v86h14v-83q0 -3 1 -4t4 -1h9q3 0 4 1t1 4v83h14v-86q0 -14 -15 -14h-17zM203 873v-12h-43v100h42v-12
h-28v-30h23v-12h-23v-34h29zM229 902v-41h-15v100h33q14 0 14 -14v-31q0 -12 -10 -14l16 -41h-16l-15 41h-7zM229 949v-36h13q3 0 4 1t1 4v27q0 2 -1 3t-4 1h-13zM132 900h-18v-39h-14v100h33q14 0 14 -14v-33q0 -14 -15 -14zM114 949v-38h14q3 0 4 1t1 4v29q0 2 -1 3t-4 1
h-14zM348 861q-15 0 -15 14v72q0 14 15 14h18q15 0 15 -14v-72q0 -14 -15 -14h-18zM348 945v-67q0 -3 1 -4t3 -1h10q2 0 3 1t1 4v67q0 2 -1 3t-3 1h-10q-2 0 -3 -1t-1 -3zM289 906q-14 0 -14 15v26q0 14 15 14h15q15 0 15 -14v-15h-15v13q0 2 -1 3t-3 1h-7q-3 0 -4 -1t-1 -3
v-23q0 -2 1 -3t4 -1h11q15 0 15 -14v-29q0 -14 -15 -14h-15q-15 0 -15 14v15h14v-12q0 -3 1 -4t4 -1h7q3 0 3.5 1t0.5 4v24q0 3 -0.5 3.5t-3.5 0.5h-12zM410 933v-71h-14v99h16l20 -70v70h13v-99h-14zM473 884l-4 -22h-14l18 99h20l19 -99h-14l-4 22h-21zM483 948l-8 -52h17
z" />
    <glyph glyph-name="ampersand" unicode="&#x26;" horiz-adv-x="506" 
d="M53 372q-44 46 -54 108.5t17 119.5h185q28 0 50 -15.5t31 -38t5 -48.5t-24 -46t-46.5 -24t-49 5t-38 30.5t-15.5 49.5h-61v-141zM-110 841h577q16 0 27.5 -11.5t11.5 -27.5v-577q0 -16 -11.5 -28t-27.5 -12h-577q-17 0 -28.5 12t-11.5 28v577q0 16 11.5 27.5t28.5 11.5z
M201 662h-141q60 57 143.5 56t142.5 -60l43 44q-78 78 -188 78q-45 0 -86.5 -14.5t-75.5 -41t-59 -62.5q-52 -77 -43.5 -173t76.5 -164q77 -76 186 -77.5t190 77.5l-43 44q-46 -46 -109.5 -57t-122.5 16v65q39 -28 87 -28q62 0 105.5 43.5t43.5 105t-43.5 105t-105.5 43.5z
M21 39h-16v102h-20v14h56v-14h-20v-102zM36 22q2 0 3.5 -1.5t1.5 -3.5v-2h-4v2h-1h-18h-1v-6q0 -1 0.5 -1h0.5h18q2 0 3.5 -1.5t1.5 -3.5v-6q0 -2 -1.5 -3.5t-3.5 -1.5h-18q-2 0 -3.5 1.5t-1.5 3.5v1h4v-1q0 -1 0.5 -1h0.5h18h0.5t0.5 1v6h-1h-18q-2 0 -3.5 1.5t-1.5 4.5v6
q0 2 1.5 3.5t3.5 1.5h18zM-42 58v97h17v-100q0 -16 -17 -16h-21q-17 0 -17 16v100h17v-97q0 -4 1 -5t4 -1h11q3 0 4 1t1 5zM-112 155q17 0 17 -16v-39q0 -16 -17 -16h-21v-45h-17v116h38zM-111 103v33q0 3 -1.5 4t-4.5 1h-16v-44h16q3 0 4.5 1t1.5 5zM338 22q2 0 3.5 -1.5
t1.5 -3.5v-18q0 -2 -1.5 -3.5t-3.5 -1.5h-18q-2 0 -3.5 1.5t-1.5 3.5v18q0 2 1.5 3.5t3.5 1.5h18zM339 -1v18h-1h-18h-1v-18q0 -1 1 -1h18h1v1zM322 141v14h55v-14h-19v-102h-17v102h-19zM425 155q17 0 17 -16v-84q0 -16 -17 -16h-21q-17 0 -17 16v84q0 16 17 16h21zM425 58
v78q0 3 -1 4t-4 1h-11q-3 0 -4 -1t-1 -4v-78q0 -4 1 -5t4 -1h11q3 0 4 1t1 5zM317 52v-13h-50v116h49v-14h-33v-35h27v-14h-27v-40h34zM233 155q17 0 17 -16v-20h-17v17q0 4 -1 5t-4 1h-10q-3 0 -4 -1t-1 -5v-79q0 -3 1 -4t4 -1h10q3 0 4 1t1 4v18h17v-20q0 -16 -17 -16h-20
q-17 0 -17 16v84q0 16 17 16h20zM77 22h28v-5h-12v-24h-4v24h-12v5zM278 -6h-5v28h5v-28zM107 102q0 -14 -13 -16l19 -47h-18l-18 47h-9v-47h-17v116h39q17 0 17 -16v-37zM90 104v32q0 3 -1 4t-4 1h-17v-42h17q3 0 4 1t1 4zM138 155h25l22 -116h-17l-5 27h-24l-5 -27h-16z
M141 79h20l-11 61zM166 -1v23h4v-23q0 -3 -1.5 -4.5t-3.5 -1.5h-18q-2 0 -3.5 1.5t-1.5 4.5v23h4v-23v-1h1h18q1 0 1 1zM478 52h28v-13h-45v116h17v-103zM231 22q2 0 3.5 -1.5t1.5 -3.5v-18q0 -3 -1.5 -4t-3.5 -1h-24v28h24zM231 -1v18v0h-18h-1v-18v-1h1h18v1zM418 906
q-14 0 -14 15v26q0 14 14 14h16q15 0 15 -14v-15h-15v13q0 2 -1 3t-3 1h-7q-3 0 -4 -1t-1 -3v-23q0 -2 1 -3t4 -1h11q15 0 15 -14v-29q0 -14 -15 -14h-15q-15 0 -15 14v15h14v-12q0 -3 1 -4t4 -1h7q3 0 3.5 1t0.5 4v24q0 3 -0.5 3.5t-3.5 0.5h-12zM311 873v-12h-39v100h15
v-88h24zM358 861q-15 0 -15 14v86h14v-83q0 -3 1 -4t4 -1h9q3 0 4 1t1 4v83h14v-86q0 -14 -15 -14h-17zM506 873v-12h-43v100h42v-12h-27v-30h22v-12h-22v-34h28zM223 884l-4 -23h-14l18 100h20l19 -100h-14l-4 23h-21zM233 948l-8 -52h17zM-47 873v-12h-43v100h42v-12h-28
v-30h23v-12h-23v-34h29zM-14 902h-7v-41h-15v100h33q14 0 14 -14v-31q0 -12 -10 -14l16 -41h-16zM-22 949v-36h14q3 0 4 1t1 4v27q0 2 -1 3t-4 1h-14zM-136 900v-39h-14v100h32q15 0 15 -14v-33q0 -14 -15 -14h-18zM-136 949v-38h14q3 0 4 1t1 4v29q0 2 -1 3t-4 1h-14z
M98 861q-15 0 -15 14v72q0 14 15 14h18q15 0 15 -14v-72q0 -14 -15 -14h-18zM98 945v-67q0 -3 1 -4t3 -1h10q2 0 3 1t1 4v67q0 2 -1 3t-3 1h-10q-2 0 -3 -1t-1 -3zM39 906q-14 0 -14 15v26q0 14 15 14h15q15 0 15 -14v-15h-15v13q0 2 -1 3t-3 1h-7q-3 0 -4 -1t-1 -3v-23
q0 -2 1 -3t4 -1h11q15 0 15 -14v-29q0 -14 -15 -14h-15q-15 0 -15 14v15h14v-12q0 -3 1 -4t4 -1h7q3 0 3.5 1t0.5 4v24q0 3 -0.5 3.5t-3.5 0.5h-12zM160 933v-71h-14v99h15l21 -70v70h13v-99h-15z" />
    <glyph glyph-name="quotesingle" unicode="'" horiz-adv-x="313" 
d="M212 444q-4 -13 -27.5 -37.5t-39.5 -32.5q-13 -7 -28 -7.5t-17 5.5q0 4 36 33.5t39 41.5q6 16 14 23q8 5 13.5 0.5t8.5 -13t1 -13.5z" />
    <glyph glyph-name="quotesingle" unicode="&#x2019;" horiz-adv-x="313" 
d="M212 444q-4 -13 -27.5 -37.5t-39.5 -32.5q-13 -7 -28 -7.5t-17 5.5q0 4 36 33.5t39 41.5q6 16 14 23q8 5 13.5 0.5t8.5 -13t1 -13.5z" />
    <glyph glyph-name="parenleft" unicode="(" horiz-adv-x="356" 
d="M-60 841h577q10 0 19.5 -5t14.5 -14t5 -20v-577q0 -8 -3 -15.5t-8.5 -12.5t-12.5 -8.5t-15 -3.5h-577q-17 0 -28.5 12t-11.5 28v577q0 16 11.5 27.5t28.5 11.5zM251 662h-141q60 57 143.5 56t142.5 -60l11 11t10.5 11t11 11t10.5 11q-78 78 -188 78q-45 0 -86.5 -14.5
t-75.5 -41t-59 -62.5q-52 -77 -43.5 -173t76.5 -164q77 -76 186 -77.5t190 77.5l-43 44q-46 -46 -109.5 -57t-122.5 16v65q39 -28 87 -28q62 0 105.5 43.5t43.5 105t-43.5 105t-105.5 43.5zM103 372q-44 46 -54 108.5t17 119.5h185q28 0 50 -15.5t31 -38t5 -48.5t-24 -46
t-46.5 -24t-49 5t-38 30.5t-15.5 49.5h-61v-141zM71 39h-16v102h-20v14h56v-14h-20v-102zM86 22q2 0 3.5 -1.5t1.5 -3.5v-2h-4v2h-1h-18h-1v-6q0 -1 0.5 -1h0.5h18q2 0 3.5 -1.5t1.5 -3.5v-6q0 -2 -1.5 -3.5t-3.5 -1.5h-18q-2 0 -3.5 1.5t-1.5 3.5v1h4v-1q0 -1 0.5 -1h0.5
h18h0.5t0.5 1v6h-1h-18q-2 0 -3.5 1.5t-1.5 4.5v6q0 2 1.5 3.5t3.5 1.5h18zM-62 155q17 0 17 -16v-39q0 -16 -17 -16h-21v-45h-17v116h38zM-61 103v33q0 3 -1.5 4t-4.5 1h-16v-44h16q3 0 4.5 1t1.5 5zM8 58v97h17v-100q0 -16 -17 -16h-21q-17 0 -17 16v100h17v-97q0 -4 1 -5
t4 -1h11q3 0 4 1t1 5zM157 102q0 -14 -13 -16l19 -47h-18l-18 47h-9v-47h-17v116h39q17 0 17 -16v-37zM140 104v32q0 3 -1 4t-4 1h-17v-42h17q3 0 4 1t1 4zM372 141v14h55v-14h-19v-102h-17v102h-19zM367 52v-13h-50v116h49v-14h-33v-35h27v-14h-27v-40h34zM475 155
q17 0 17 -16v-84q0 -16 -17 -16h-21q-17 0 -17 16v84q0 16 17 16h21zM476 58v78q0 3 -1.5 4t-4.5 1h-11q-3 0 -4 -1t-1 -4v-78q0 -4 1 -5t4 -1h11q3 0 4.5 1t1.5 5zM127 22h28v-5h-12v-24h-4v24h-12v5zM328 -6h-5v28h5v-28zM528 52h28v-13h-45v116h17v-103zM283 155
q17 0 17 -16v-20h-17v17q0 4 -1 5t-4 1h-10q-3 0 -4 -1t-1 -5v-79q0 -3 1 -4t4 -1h10q3 0 4 1t1 4v18h17v-20q0 -16 -17 -16h-20q-17 0 -17 16v84q0 16 17 16h20zM216 -1v23h4v-23q0 -3 -1.5 -4.5t-3.5 -1.5h-18q-2 0 -3.5 1.5t-1.5 4.5v23h4v-23v-1h1h18q1 0 1 1zM281 22
q2 0 3.5 -1.5t1.5 -3.5v-18q0 -2 -1.5 -3.5t-3.5 -1.5h-24v28h24zM281 -1v18v0h-18h-1v-18v-1h1h18v1zM188 155h25l22 -116h-17l-5 27h-24l-5 -27h-16zM191 79h20l-11 61zM388 22q2 0 3.5 -1.5t1.5 -3.5v-18q0 -2 -1.5 -3.5t-3.5 -1.5h-18q-2 0 -3.5 1.5t-1.5 3.5v18
q0 2 1.5 3.5t3.5 1.5h18zM389 -1v18h-1h-18h-1v-18q0 -1 1 -1h18h1v1zM408 861q-15 0 -15 14v86h14v-83q0 -3 1 -4t4 -1h9q3 0 4 1t1 4v83h14v-86q0 -14 -15 -14h-17zM468 906q-14 0 -14 15v26q0 14 15 14h15q15 0 15 -14v-15h-15v13q0 2 -1 3t-3 1h-7q-3 0 -4 -1t-1 -3v-23
q0 -2 1 -3t4 -1h11q15 0 15 -14v-29q0 -14 -15 -14h-15q-15 0 -15 14v15h14v-12q0 -3 1 -4t4 -1h7q3 0 3.5 1t0.5 4v24q0 3 -0.5 3.5t-3.5 0.5h-12zM556 873v-11h-43v99h42v-12h-27v-30h22v-12h-22v-34h28zM361 873v-11h-39v99h15v-88h24zM273 884l-4 -22h-14l18 99h20
l19 -99h-14l-4 22h-21zM283 948l-8 -52h17zM3 873v-11h-43v99h42v-12h-28v-30h23v-12h-23v-34h29zM36 902h-7v-40h-15v99h33q14 0 14 -14v-31q0 -12 -10 -14l16 -41h-16zM29 949v-36h13q3 0 4 1t1 4v27q0 2 -1 3t-4 1h-13zM-86 900v-38h-14v99h32q15 0 15 -14v-33
q0 -14 -15 -14h-18zM-86 949v-38h14q3 0 4 1t1 4v29q0 2 -1 3t-4 1h-14zM210 933v-71h-14v99h16l20 -70v70h13v-99h-14zM148 862q-15 0 -15 13v72q0 14 15 14h18q15 0 15 -14v-72q0 -13 -15 -13h-18zM148 945v-67q0 -3 1 -4t3 -1h10q2 0 3 1t1 4v67q0 2 -1 3t-3 1h-10
q-2 0 -3 -1t-1 -3zM89 906q-14 0 -14 15v26q0 14 15 14h15q15 0 15 -14v-15h-15v13q0 2 -1 3t-3 1h-7q-3 0 -4 -1t-1 -3v-23q0 -2 1 -3t4 -1h11q15 0 15 -14v-29q0 -13 -15 -13h-15q-15 0 -15 13v15h14v-12q0 -3 1 -4t4 -1h7q3 0 3.5 1t0.5 4v24q0 3 -0.5 3.5t-3.5 0.5h-12z
" />
    <glyph glyph-name="parenright" unicode=")" horiz-adv-x="156" 
d="M-97 372q-44 46 -54 108.5t17 119.5h185q28 0 50 -15.5t31 -38t5 -48.5t-24 -46t-46.5 -24t-48.5 5t-38 30.5t-16 49.5h-61v-141zM-260 841h577q16 0 27.5 -11.5t11.5 -27.5v-577q0 -16 -11.5 -28t-27.5 -12h-577q-17 0 -28.5 12t-11.5 28v577q0 16 11.5 27.5t28.5 11.5z
M51 662h-141q60 57 143.5 56t142.5 -60l11 11l11 11l11 11t10 11q-78 78 -188 78q-45 0 -86.5 -14.5t-75.5 -41t-59 -62.5q-52 -77 -43.5 -173t76.5 -164q77 -76 186 -77.5t190 77.5q-7 8 -21.5 22t-21.5 22q-46 -46 -109.5 -57t-122.5 16v65q39 -28 87 -28q62 0 105.5 43.5
t43.5 105t-43.5 105t-105.5 43.5zM-114 22q2 0 3.5 -1.5t1.5 -3.5v-2h-4v2h-1h-18h-1v-6q0 -1 0.5 -1h0.5h18q2 0 3.5 -1.5t1.5 -3.5v-6q0 -2 -1.5 -3.5t-3.5 -1.5h-18q-2 0 -3.5 1.5t-1.5 3.5v1h4v-1q0 -1 0.5 -1h0.5h18h0.5t0.5 1v6h-1h-18q-2 0 -3.5 1.5t-1.5 4.5v6
q0 2 1.5 3.5t3.5 1.5h18zM-129 39h-16v102h-20v14h56v-14h-20v-102zM-192 58v97h17v-100q0 -16 -17 -16h-21q-17 0 -17 16v100h17v-97q0 -4 1 -5t4 -1h11q3 0 4 1t1 5zM-262 155q17 0 17 -16v-39q0 -16 -17 -16h-21v-45h-17v116h38zM-261 103v33q0 3 -1.5 4t-4.5 1h-16v-44
h16q3 0 4.5 1t1.5 5zM275 155q17 0 17 -16v-84q0 -16 -17 -16h-21q-17 0 -17 16v84q0 16 17 16h21zM276 58v78q0 3 -1.5 4t-4.5 1h-11q-3 0 -4 -1t-1 -4v-78q0 -4 1 -5t4 -1h11q3 0 4.5 1t1.5 5zM328 52h28v-13h-45v116h17v-103zM172 141v14h55v-14h-19v-102h-17v102h-19z
M128 -6h-5v28h5v-28zM167 52v-13h-50v116h49v-14h-33v-35h27v-14h-27v-40h34zM188 22q2 0 3.5 -1.5t1.5 -3.5v-18q0 -3 -1.5 -4t-3.5 -1h-18q-2 0 -3.5 1t-1.5 4v18q0 2 1.5 3.5t3.5 1.5h18zM189 -1v18h-1h-18h-1v-18q0 -1 1 -1h18h1v1zM83 155q17 0 17 -16v-20h-17v17
q0 4 -1 5t-4 1h-10q-3 0 -4 -1t-1 -5v-79q0 -3 1 -4t4 -1h10q3 0 4 1t1 4v18h17v-20q0 -16 -17 -16h-20q-17 0 -17 16v84q0 16 17 16h20zM-43 102q0 -14 -13 -16l19 -47h-18l-18 47h-9v-47h-16v116h38q17 0 17 -16v-37zM-60 104v32q0 3 -1 4t-4 1h-17v-42h17q3 0 4 1t1 4z
M16 -1v23h4v-23q0 -3 -1.5 -4.5t-3.5 -1.5h-18q-2 0 -3.5 1.5t-1.5 4.5v23h4v-23v-1h1h18q1 0 1 1zM81 22q2 0 3.5 -1.5t1.5 -3.5v-18q0 -3 -1.5 -4t-3.5 -1h-24v28h24zM81 -1v18v0h-18h-1v-18v-1h1h18v1zM-73 22h28v-5h-12v-24h-4v24h-12v5zM-12 155h25l22 -116h-17l-5 27
h-24l-5 -27h-16zM-9 79h20l-11 61zM161 873v-12h-39v100h15v-88h24zM268 906q-14 0 -14 15v26q0 14 15 14h15q15 0 15 -14v-15h-15v13q0 2 -1 3t-3 1h-7q-3 0 -4 -1t-1 -3v-23q0 -2 1 -3t4 -1h12q14 0 14 -14v-29q0 -14 -15 -14h-15q-15 0 -15 14v15h15v-12q0 -3 0.5 -4
t3.5 -1h7q3 0 4 1t1 4v24q0 3 -1 3.5t-4 0.5h-12zM208 861q-15 0 -15 14v86h14v-83q0 -3 1 -4t4 -1h9q3 0 4 1t1 4v83h14v-86q0 -14 -15 -14h-17zM356 873v-12h-43v100h42v-12h-27v-30h22v-12h-22v-34h28zM-197 873v-12h-43v100h42v-12h-28v-30h23v-12h-23v-34h29zM-164 902
h-7v-41h-15v100h33q14 0 14 -14v-31q0 -12 -10 -14l16 -41h-16zM-171 949v-36h13q3 0 4 1t1 4v27q0 2 -1 3t-4 1h-13zM-286 900v-38h-14v99h33q14 0 14 -14v-33q0 -14 -14 -14h-19zM-286 949v-38h14q3 0 4 1t1 4v29q0 2 -1 3t-4 1h-14zM-52 861q-15 0 -15 14v72q0 14 15 14
h18q15 0 15 -14v-72q0 -14 -15 -14h-18zM-52 945v-67q0 -3 1 -4t3 -1h10q2 0 3 1t1 4v67q0 2 -1 3t-3 1h-10q-2 0 -3 -1t-1 -3zM-111 906q-14 0 -14 15v26q0 14 15 14h15q15 0 15 -14v-15h-15v13q0 2 -1 3t-3 1h-7q-3 0 -4 -1t-1 -3v-23q0 -2 1 -3t4 -1h11q15 0 15 -14v-29
q0 -14 -15 -14h-15q-15 0 -15 14v15h14v-12q0 -3 1 -4t4 -1h7q3 0 3.5 1t0.5 4v24q0 3 -0.5 3.5t-3.5 0.5h-12zM10 933v-71h-14v99h16l20 -70v70h13v-99h-14zM73 884l-4 -22h-14l18 99h20l19 -99h-14l-4 22h-21zM83 948l-8 -52h17z" />
    <glyph glyph-name="asterisk" unicode="*" horiz-adv-x="857" 
d="M303 372q-44 46 -54 108.5t17 119.5h185q28 0 50 -15.5t31 -38t5 -48.5t-24 -46t-46.5 -24t-49 5t-38 30.5t-15.5 49.5h-61v-141zM140 841h577q10 0 19.5 -5t14.5 -14t5 -20v-577q0 -16 -11.5 -28t-27.5 -12h-577q-17 0 -28.5 12t-11.5 28v577q0 16 11.5 27.5t28.5 11.5z
M451 662h-141q60 57 143.5 56t142.5 -60l43 44q-78 78 -188 78q-45 0 -86.5 -14.5t-75.5 -41t-59 -62.5q-52 -77 -43.5 -173t76.5 -164q77 -76 186 -77.5t190 77.5q-7 8 -21.5 22t-21.5 22q-46 -46 -109.5 -57t-122.5 16v65q39 -28 87 -28q62 0 105.5 43.5t43.5 105
t-43.5 105t-105.5 43.5zM138 155q17 0 17 -16v-39q0 -16 -17 -16h-21v-45h-17v116h38zM139 103v33q0 3 -1.5 4t-4.5 1h-16v-44h16q3 0 4.5 1t1.5 5zM286 22q2 0 3.5 -1.5t1.5 -3.5v-2h-4v2h-1h-18h-1v-6q0 -1 0.5 -1h0.5h18q2 0 3.5 -1.5t1.5 -3.5v-6q0 -2 -1.5 -3.5
t-3.5 -1.5h-18q-2 0 -3.5 1.5t-1.5 3.5v1h4v-1q0 -1 0.5 -1h0.5h18h0.5t0.5 1v6h-1h-18q-2 0 -3.5 1.5t-1.5 4.5v6q0 2 1.5 3.5t3.5 1.5h18zM271 39h-16v102h-20v14h56v-14h-20v-102zM208 58v97h17v-100q0 -16 -17 -16h-21q-17 0 -17 16v100h17v-97q0 -4 1 -5t4 -1h11
q3 0 4 1t1 5zM327 22h28v-5h-12v-24h-4v24h-12v5zM357 102q0 -14 -13 -16l19 -47h-18l-18 47h-9v-47h-16v116h38q17 0 17 -16v-37zM340 104v32q0 3 -1 4t-4 1h-17v-42h17q3 0 4 1t1 4zM567 52v-13h-50v116h49v-14h-33v-35h27v-14h-27v-40h34zM728 52h28v-13h-45v116h17v-103
zM675 155q17 0 17 -16v-84q0 -16 -17 -16h-21q-17 0 -17 16v84q0 16 17 16h21zM676 58v78q0 3 -1.5 4t-4.5 1h-11q-3 0 -4 -1t-1 -4v-78q0 -4 1 -5t4 -1h11q3 0 4.5 1t1.5 5zM588 22q2 0 3.5 -1.5t1.5 -3.5v-18q0 -3 -1.5 -4t-3.5 -1h-18q-2 0 -3.5 1t-1.5 4v18q0 2 1.5 3.5
t3.5 1.5h18zM589 -1v18h-1h-18h-1v-18q0 -1 1 -1h18h1v1zM572 141v14h55v-14h-19v-102h-17v102h-19zM528 -6h-5v28h5v-28zM483 155q17 0 17 -16v-20h-17v17q0 4 -1 5t-4 1h-10q-3 0 -4 -1t-1 -5v-79q0 -3 1 -4t4 -1h10q3 0 4 1t1 4v18h17v-20q0 -16 -17 -16h-20
q-17 0 -17 16v84q0 16 17 16h20zM416 -1v23h4v-23q0 -3 -1.5 -4.5t-3.5 -1.5h-18q-2 0 -3.5 1.5t-1.5 4.5v23h4v-23v-1h1h18q1 0 1 1zM388 155h25l22 -116h-17l-5 27h-24l-5 -27h-16zM391 79h20l-11 61zM481 22q2 0 3.5 -1.5t1.5 -3.5v-18q0 -3 -1.5 -4t-3.5 -1h-24v28h24z
M481 -1v18v0h-18h-1v-18v-1h1h18v1zM608 861q-15 0 -15 14v86h14v-83q0 -3 1 -4t4 -1h9q3 0 4 1t1 4v83h14v-86q0 -14 -15 -14h-17zM756 873v-12h-43v100h42v-12h-27v-30h22v-12h-22v-34h28zM668 906q-14 0 -14 15v26q0 14 14 14h16q15 0 15 -14v-15h-15v13q0 2 -1 3t-3 1
h-7q-3 0 -4 -1t-1 -3v-23q0 -2 1 -3t4 -1h12q14 0 14 -14v-29q0 -14 -15 -14h-15q-15 0 -15 14v15h14v-12q0 -3 1 -4t4 -1h7q3 0 4 1t1 4v24q0 3 -1 3.5t-4 0.5h-12zM561 873v-12h-39v100h15v-88h24zM289 906q-14 0 -14 15v26q0 14 15 14h15q15 0 15 -14v-15h-15v13
q0 2 -1 3t-3 1h-7q-3 0 -4 -1t-1 -3v-23q0 -2 1 -3t4 -1h11q15 0 15 -14v-29q0 -14 -15 -14h-15q-15 0 -15 14v15h14v-12q0 -3 1 -4t4 -1h7q3 0 3.5 1t0.5 4v24q0 3 -0.5 3.5t-3.5 0.5h-12zM473 884l-4 -23h-14l18 100h20l19 -100h-14l-4 23h-21zM483 948l-8 -52h17z
M203 873v-12h-43v100h42v-12h-28v-30h23v-12h-23v-34h29zM114 900v-38h-14v99h32q15 0 15 -14v-33q0 -14 -15 -14h-18zM114 949v-38h14q3 0 4 1t1 4v29q0 2 -1 3t-4 1h-14zM236 902h-7v-40h-15v99h33q14 0 14 -14v-31q0 -12 -10 -14l16 -41h-16zM229 949v-36h13q3 0 4 1t1 4
v27q0 2 -1 3t-4 1h-13zM410 933v-71h-14v99h16l20 -70v70h13v-99h-14zM348 862q-15 0 -15 13v72q0 14 15 14h18q15 0 15 -14v-72q0 -13 -15 -13h-18zM348 945v-67q0 -3 1 -4t3 -1h10q2 0 3 1t1 4v67q0 2 -1 3t-3 1h-10q-2 0 -3 -1t-1 -3z" />
    <glyph glyph-name="plus" unicode="+" horiz-adv-x="361" 
d="M102 213q2 3 9.5 16.5t16 28t18 30t16.5 25t10 9.5q24 0 -6 -64l-2 -5l-24 -43q107 0 111 -1q11 -2 10 -10q-2 -10 -31 -15t-68 -1l-37 3q-61 -92 -65 -96q-9 -9 -16 0l-1.5 6t2.5 10t5.5 12.5t8 14t9 15.5t10 16.5t9.5 16.5l-16 5q-11 3 -38 4q-32 1 -33 7q-1 4 9 13
q5 5 22 5.5t42.5 -1t28.5 -1.5z" />
    <glyph glyph-name="comma" unicode="," horiz-adv-x="363" 
d="M62 -17q-4 -12 -27.5 -37t-39.5 -32q-13 -8 -28.5 -8.5t-16.5 5.5q0 5 17.5 19t36.5 30.5t21 25.5q6 18 13 24q11 8 19 -4.5t5 -22.5z" />
    <glyph glyph-name="hyphen" unicode="-" horiz-adv-x="177" 
d="M177 229q0 -16 -102 -7q-26 2 -38.5 3.5t-22 4t-12 5.5t-2.5 8q0 12 8 17q4 0 22 -1t42.5 -4.5t48 -7t40 -8.5t16.5 -10z" />
    <glyph glyph-name="period" unicode="." horiz-adv-x="362" 
d="M49 -14q-25 -25 -42 -8q-16 16 0 42t35 15q7 -4 12 -14q8 -13 7 -17.5t-12 -17.5z" />
    <glyph glyph-name="slash" unicode="/" horiz-adv-x="408" 
d="M-19 21q1 1 35.5 30.5t85 72.5t114 96t127 104t118.5 93.5t92.5 67t46.5 20.5q10 -3 5 -9q-9 -13 -157 -130q-52 -42 -84 -67q-346 -275 -373 -304q-31 -36 -39 -16q-5 6 1.5 15t27.5 27z" />
    <glyph glyph-name="zero" unicode="0" horiz-adv-x="557" 
d="M104 513v-141q-44 46 -54 108.5t17 119.5h185q28 0 50 -15.5t31 -38t5 -48.5t-24 -46t-46.5 -24t-49 5t-38 30.5t-15.5 49.5h-61zM-99 802q0 16 11.5 27.5t28.5 12.5h577q16 0 27.5 -12t11.5 -28v-577q0 -8 -3 -15.5t-8.5 -12.5t-12.5 -8.5t-15 -3.5h-577q-17 0 -28.5 12
t-11.5 28v577zM31 662q-52 -77 -43.5 -173t76.5 -164q77 -76 186 -77.5t190 77.5l-43 44q-46 -46 -109.5 -57t-122.5 16v65q39 -28 87 -28q62 0 105.5 43.5t43.5 105t-43.5 105t-105.5 43.5h-141q60 57 143.5 56t142.5 -60l43 44q-78 77 -188 77q-45 0 -86.5 -14
t-75.5 -40.5t-59 -62.5zM72 39h-16v102h-20v14h56v-14h-20v-102zM87 22q2 0 3.5 -1.5t1.5 -3.5v-2h-4v2h-1h-18h-1v-6q0 -1 0.5 -1h0.5h18q2 0 3.5 -1.5t1.5 -3.5v-6q0 -3 -1.5 -4.5t-3.5 -1.5h-18q-2 0 -3.5 1.5t-1.5 4.5v1h4v-1q0 -1 0.5 -1h0.5h18h0.5t0.5 1v6h-1h-18
q-2 0 -3.5 1.5t-1.5 4.5v6q0 2 1.5 3.5t3.5 1.5h18zM-61 155q17 0 17 -16v-39q0 -16 -17 -16h-21v-45h-17v116h38zM-60 103v33q0 3 -1.5 4t-4.5 1h-16v-44h16q3 0 4.5 1t1.5 5zM9 58v97h17v-100q0 -16 -17 -16h-21q-17 0 -17 16v100h17v-97q0 -4 1 -5t4 -1h11q3 0 4 1t1 5z
M284 155q17 0 17 -16v-20h-17v17q0 4 -1 5t-4 1h-10q-3 0 -4 -1t-1 -5v-79q0 -3 1 -4t4 -1h10q3 0 4 1t1 4v18h17v-20q0 -16 -17 -16h-20q-17 0 -17 16v84q0 16 17 16h20zM389 22q2 0 3.5 -1.5t1.5 -3.5v-18q0 -2 -1.5 -3.5t-3.5 -1.5h-18q-2 0 -3.5 1.5t-1.5 3.5v18
q0 2 1.5 3.5t3.5 1.5h18zM390 -1v18h-1h-18h-1v-18q0 -1 1 -1h18h1v1zM368 52v-13h-50v116h49v-14h-33v-35h27v-14h-27v-40h34zM372 141v14h56v-14h-19v-102h-17v102h-20zM329 -6h-5v28h5v-28zM476 155q17 0 17 -16v-84q0 -16 -17 -16h-21q-17 0 -17 16v84q0 16 17 16h21z
M477 58v78q0 3 -1.5 4t-4.5 1h-11q-3 0 -4 -1t-1 -4v-78q0 -4 1 -5t4 -1h11q3 0 4.5 1t1.5 5zM528 52h29v-13h-45v116h16v-103zM282 22q2 0 3.5 -1.5t1.5 -3.5v-18q0 -3 -1.5 -4t-3.5 -1h-24v28h24zM282 -1v18v0h-18h-1v-18v-1h1h18v1zM217 -1v23h4v-23q0 -3 -1.5 -4.5
t-3.5 -1.5h-18q-2 0 -3.5 1.5t-1.5 4.5v23h4v-23v-1h1h18q1 0 1 1zM158 102q0 -14 -13 -16l19 -47h-18l-18 47h-9v-47h-17v116h39q17 0 17 -16v-37zM141 104v32q0 3 -1 4t-4 1h-17v-42h17q3 0 4 1t1 4zM189 155h25l22 -116h-17l-5 27h-24l-5 -27h-16zM192 79h20l-11 61z
M128 22h28v-5h-12v-24h-4v24h-12v5zM408 861q-14 0 -14 14v86h14v-83q0 -3 1 -4t4 -1h9q3 0 4 1t1 4v83h14v-86q0 -14 -15 -14h-18zM362 873v-12h-39v100h15v-88h24zM529 873h28v-12h-43v100h42v-12h-27v-30h22v-12h-22v-34zM469 906q-14 0 -14 15v26q0 14 14 14h16
q15 0 15 -14v-15h-15v13q0 2 -1 3t-3 1h-7q-3 0 -4 -1t-1 -3v-23q0 -2 1 -3t4 -1h11q15 0 15 -14v-29q0 -14 -15 -14h-15q-15 0 -15 14v15h14v-12q0 -3 1 -4t4 -1h7q3 0 3.5 1t0.5 4v24q0 3 -0.5 3.5t-3.5 0.5h-12zM4 873v-12h-43v100h42v-12h-28v-30h23v-12h-23v-34h29z
M-85 900v-39h-14v100h32q15 0 15 -14v-33q0 -14 -15 -14h-18zM-85 949v-38h14q3 0 4 1t1 4v29q0 2 -1 3t-4 1h-14zM274 884l-4 -23h-14l18 100h20l19 -100h-14l-4 23h-21zM284 948l-8 -52h17zM90 906q-14 0 -14 15v26q0 14 15 14h15q15 0 15 -14v-15h-15v13q0 2 -1 3t-3 1
h-7q-3 0 -4 -1t-1 -3v-23q0 -2 1 -3t4 -1h12q14 0 14 -14v-29q0 -14 -15 -14h-15q-15 0 -15 14v15h15v-12q0 -3 0.5 -4t3.5 -1h7q3 0 3.5 1t0.5 4v24q0 3 -0.5 3.5t-3.5 0.5h-12zM30 902v-41h-15v100h33q14 0 14 -14v-31q0 -12 -10 -14l16 -41h-16l-15 41h-7zM30 949v-36h13
q3 0 4 1t1 4v27q0 2 -1 3t-4 1h-13zM149 861q-15 0 -15 14v72q0 14 15 14h18q15 0 15 -14v-72q0 -14 -15 -14h-18zM149 945v-67q0 -3 1 -4t3 -1h10q2 0 3 1t1 4v67q0 2 -1 3t-3 1h-10q-2 0 -3 -1t-1 -3zM211 933v-72h-14v100h15l21 -70v70h13v-100h-15z" />
    <glyph glyph-name="one" unicode="1" horiz-adv-x="267" 
d="M-240 802q0 16 11.5 27.5t28.5 12.5h577q16 0 27.5 -12t11.5 -28v-577q0 -8 -3 -15.5t-8.5 -12.5t-12.5 -8.5t-15 -3.5h-577q-8 0 -15.5 3.5t-13 8.5t-8.5 12.5t-3 15.5v577zM-110 662q-52 -77 -43.5 -173t76.5 -164q77 -76 186 -77.5t190 77.5q-14 15 -43 44
q-46 -46 -109.5 -57t-122.5 16v65q39 -28 87 -28q62 0 105.5 43.5t43.5 105t-43.5 105t-105.5 43.5h-141q60 57 143.5 56t142.5 -60q14 14 43 44q-78 77 -188 77q-67 0 -125.5 -31.5t-95.5 -85.5zM-37 513v-141q-44 46 -54 108.5t17 119.5h185q28 0 50 -15.5t31 -38t5 -48.5
t-24 -46t-46.5 -24t-48.5 5t-38 30.5t-16 49.5h-61zM-132 58v97h17v-100q0 -16 -17 -16h-21q-17 0 -17 16v100h17v-97q0 -4 1 -5t4 -1h11q3 0 4 1t1 5zM-69 39h-16v102h-20v14h56v-14h-20v-102zM-202 155q17 0 17 -16v-39q0 -16 -17 -16h-21v-45h-17v116h38zM-201 103v33
q0 3 -1.5 4t-4.5 1h-16v-44h16q3 0 4.5 1t1.5 5zM-54 22q2 0 3.5 -1.5t1.5 -3.5v-2h-4v2h-1h-18h-1v-6q0 -1 0.5 -1h0.5h18q2 0 3.5 -1.5t1.5 -3.5v-6q0 -2 -1.5 -3.5t-3.5 -1.5h-18q-2 0 -3.5 1.5t-1.5 3.5v1h4v-1q0 -1 0.5 -1h0.5h18h0.5t0.5 1v6h-1h-18q-2 0 -3.5 1.5
t-1.5 4.5v6q0 2 1.5 3.5t3.5 1.5h18zM48 155h25l22 -116h-17l-5 27h-24l-5 -27h-16zM51 79h20l-11 61zM232 141v14h55v-14h-19v-102h-17v102h-19zM248 22q2 0 3.5 -1.5t1.5 -3.5v-18q0 -2 -1.5 -3.5t-3.5 -1.5h-18q-2 0 -3.5 1.5t-1.5 3.5v18q0 2 1.5 3.5t3.5 1.5h18z
M249 -1v18h-1h-18h-1v-18q0 -1 1 -1h18h1v1zM388 52h28v-13h-45v116h17v-103zM335 155q17 0 17 -16v-84q0 -16 -17 -16h-21q-17 0 -17 16v84q0 16 17 16h21zM336 58v78q0 3 -1.5 4t-4.5 1h-11q-3 0 -4 -1t-1 -4v-78q0 -4 1 -5t4 -1h11q3 0 4.5 1t1.5 5zM188 -6h-5v28h5v-28z
M227 52v-13h-50v116h49v-14h-33v-35h27v-14h-27v-40h34zM17 102q0 -14 -13 -16l19 -47h-18l-18 47h-9v-47h-16v116h38q17 0 17 -16v-37zM0 104v32q0 3 -1 4t-4 1h-17v-42h17q3 0 4 1t1 4zM76 -1v23h4v-23q0 -3 -1.5 -4.5t-3.5 -1.5h-18q-2 0 -3.5 1.5t-1.5 4.5v23h4v-23v-1
h1h18q1 0 1 1zM141 22q2 0 3.5 -1.5t1.5 -3.5v-18q0 -3 -1.5 -4t-3.5 -1h-24v28h24zM141 -1v18v0h-18h-1v-18v-1h1h18v1zM-13 22h28v-5h-12v-24h-4v24h-12v5zM143 155q17 0 17 -16v-20h-17v17q0 4 -1 5t-4 1h-10q-3 0 -4 -1t-1 -5v-79q0 -3 1 -4t4 -1h10q3 0 4 1t1 4v18h17
v-20q0 -16 -17 -16h-20q-17 0 -17 16v84q0 16 17 16h20zM221 873v-12h-39v100h15v-88h24zM388 873h28v-12h-43v100h42v-12h-27v-30h22v-12h-22v-34zM268 861q-15 0 -15 14v86h14v-83q0 -3 1 -4t4 -1h9q3 0 4 1t1 4v83h14v-86q0 -14 -15 -14h-17zM328 906q-14 0 -14 15v26
q0 14 14 14h16q15 0 15 -14v-15h-15v13q0 2 -1 3t-3 1h-7q-3 0 -4 -1t-1 -3v-23q0 -2 1 -3t4 -1h11q15 0 15 -14v-29q0 -14 -15 -14h-15q-15 0 -15 14v15h14v-12q0 -3 1 -4t4 -1h7q3 0 3.5 1t0.5 4v24q0 3 -0.5 3.5t-3.5 0.5h-12zM-137 873v-12h-43v100h42v-12h-28v-30h23
v-12h-23v-34h29zM-226 900v-39h-14v100h32q15 0 15 -14v-33q0 -14 -15 -14h-18zM-226 949v-38h14q3 0 4 1t1 4v29q0 2 -1 3t-4 1h-14zM-112 902v-41h-14v100h33q14 0 14 -14v-31q0 -12 -10 -14l16 -41h-16l-15 41h-8zM-112 949v-36h14q3 0 4 1t1 4v27q0 2 -1 3t-4 1h-14z
M8 861q-15 0 -15 14v72q0 14 15 14h18q15 0 15 -14v-72q0 -14 -15 -14h-18zM8 945v-67q0 -3 1 -4t3 -1h10q2 0 3 1t1 4v67q0 2 -1 3t-3 1h-10q-2 0 -3 -1t-1 -3zM-51 906q-14 0 -14 15v26q0 14 14 14h16q15 0 15 -14v-15h-15v13q0 2 -1 3t-3 1h-7q-3 0 -4 -1t-1 -3v-23
q0 -2 1 -3t4 -1h11q15 0 15 -14v-29q0 -14 -15 -14h-15q-15 0 -15 14v15h14v-12q0 -3 1 -4t4 -1h7q3 0 3.5 1t0.5 4v24q0 3 -0.5 3.5t-3.5 0.5h-12zM70 933v-72h-14v100h16l20 -70v70h13v-100h-14zM133 884l-4 -23h-14l18 100h20l19 -100h-14l-4 23h-21zM143 948l-8 -52h17z
" />
    <glyph glyph-name="two" unicode="2" horiz-adv-x="606" 
d="M103 513v-141q-44 46 -54 108.5t17 119.5h185q28 0 50 -15.5t31 -38t5 -48.5t-24 -46t-46.5 -24t-49 5t-38 30.5t-15.5 49.5h-61zM-100 802q0 11 5.5 20t14.5 14t20 6h577q16 0 27.5 -12t11.5 -28v-577q0 -8 -3 -15.5t-8.5 -12.5t-12.5 -8.5t-15 -3.5h-577
q-17 0 -28.5 12t-11.5 28v577zM30 662q-52 -77 -43.5 -173t76.5 -164q77 -76 186 -77.5t190 77.5q-14 15 -43 44q-46 -46 -109.5 -57t-122.5 16v65q39 -28 87 -28q62 0 105.5 43.5t43.5 105t-43.5 105t-105.5 43.5h-141q60 57 143.5 56t142.5 -60q14 14 43 44
q-78 77 -188 77q-45 0 -86.5 -14t-75.5 -40.5t-59 -62.5zM71 39h-16v102h-20v14h56v-14h-20v-102zM-62 155q17 0 17 -16v-39q0 -16 -17 -16h-21v-45h-17v116h38zM-61 103v33q0 3 -1.5 4t-4.5 1h-16v-44h16q3 0 4.5 1t1.5 5zM86 22q2 0 3.5 -1.5t1.5 -3.5v-2h-4v2h-1h-18h-1
v-6q0 -1 0.5 -1h0.5h18q2 0 3.5 -1.5t1.5 -3.5v-6q0 -2 -1.5 -3.5t-3.5 -1.5h-18q-2 0 -3.5 1.5t-1.5 3.5v1h4v-1q0 -1 0.5 -1h0.5h18h0.5t0.5 1v6h-1h-18q-2 0 -3.5 1.5t-1.5 4.5v6q0 2 1.5 3.5t3.5 1.5h18zM8 58v97h17v-100q0 -16 -17 -16h-21q-17 0 -17 16v100h17v-97
q0 -4 1 -5t4 -1h11q3 0 4 1t1 5zM216 -1v23h4v-23q0 -3 -1.5 -4.5t-3.5 -1.5h-18q-2 0 -3.5 1.5t-1.5 4.5v23h4v-23v-1h1h18q1 0 1 1zM367 52v-13h-50v116h49v-14h-33v-35h27v-14h-27v-40h34zM388 22q2 0 3.5 -1.5t1.5 -3.5v-18q0 -2 -1.5 -3.5t-3.5 -1.5h-18q-2 0 -3.5 1.5
t-1.5 3.5v18q0 2 1.5 3.5t3.5 1.5h18zM389 -1v18h-1h-18h-1v-18q0 -1 1 -1h18h1v1zM328 -6h-5v28h5v-28zM372 141v14h55v-14h-19v-102h-17v102h-19zM528 52h28v-13h-45v116h17v-103zM475 155q17 0 17 -16v-84q0 -16 -17 -16h-21q-17 0 -17 16v84q0 16 17 16h21zM476 58v78
q0 3 -1.5 4t-4.5 1h-11q-3 0 -4 -1t-1 -4v-78q0 -4 1 -5t4 -1h11q3 0 4.5 1t1.5 5zM188 155h25l22 -116h-17l-5 27h-24l-5 -27h-16zM191 79h20l-11 61zM281 22q2 0 3.5 -1.5t1.5 -3.5v-18q0 -2 -1.5 -3.5t-3.5 -1.5h-24v28h24zM281 -1v18v0h-18h-1v-18v-1h1h18v1zM283 155
q17 0 17 -16v-20h-17v17q0 4 -1 5t-4 1h-10q-3 0 -4 -1t-1 -5v-79q0 -3 1 -4t4 -1h10q3 0 4 1t1 4v18h17v-20q0 -16 -17 -16h-20q-17 0 -17 16v84q0 16 17 16h20zM157 102q0 -14 -13 -16l19 -47h-18l-18 47h-9v-47h-16v116h38q17 0 17 -16v-37zM140 104v32q0 3 -1 4t-4 1
h-17v-42h17q3 0 4 1t1 4zM127 17v5h28v-5h-12v-24h-4v24h-12zM528 873h28v-12h-43v100h42v-12h-27v-30h22v-12h-22v-34zM3 873v-12h-43v100h42v-12h-28v-30h23v-12h-23v-34h29zM408 861q-15 0 -15 14v86h14v-83q0 -3 1 -4t4 -1h9q3 0 4 1t1 4v83h14v-86q0 -14 -15 -14h-17z
M468 906q-14 0 -14 15v26q0 14 15 14h15q15 0 15 -14v-15h-15v13q0 2 -1 3t-3 1h-7q-3 0 -4 -1t-1 -3v-23q0 -2 1 -3t4 -1h12q14 0 14 -14v-29q0 -14 -15 -14h-15q-15 0 -15 14v15h15v-12q0 -3 0.5 -4t3.5 -1h7q3 0 4 1t1 4v24q0 3 -1 3.5t-4 0.5h-12zM361 873v-11h-39v99
h15v-88h24zM-86 900v-38h-14v99h32q15 0 15 -14v-33q0 -14 -15 -14h-18zM-86 949v-38h14q3 0 4 1t1 4v29q0 2 -1 3t-4 1h-14zM89 906q-14 0 -14 15v26q0 14 15 14h15q15 0 15 -14v-15h-15v13q0 2 -1 3t-3 1h-7q-3 0 -4 -1t-1 -3v-23q0 -2 1 -3t4 -1h11q15 0 15 -14v-29
q0 -14 -15 -14h-15q-15 0 -15 14v15h14v-12q0 -3 1 -4t4 -1h7q3 0 3.5 1t0.5 4v24q0 3 -0.5 3.5t-3.5 0.5h-12zM273 884l-4 -22h-14l18 99h20l19 -99h-14l-4 22h-21zM283 948l-8 -52h17zM29 902v-40h-15v99h33q14 0 14 -14v-31q0 -12 -10 -14l16 -41h-16l-15 41h-7zM29 949
v-36h13q3 0 4 1t1 4v27q0 2 -1 3t-4 1h-13zM210 933v-71h-14v99h16l20 -70v70h13v-99h-14zM148 862q-15 0 -15 13v72q0 14 15 14h18q15 0 15 -14v-72q0 -13 -15 -13h-18zM148 945v-67q0 -3 1 -4t3 -1h10q2 0 3 1t1 4v67q0 2 -1 3t-3 1h-10q-2 0 -3 -1t-1 -3z" />
    <glyph glyph-name="three" unicode="3" horiz-adv-x="477" 
d="M-140 841h577q16 0 27.5 -11.5t11.5 -27.5v-577q0 -8 -3 -15.5t-8.5 -12.5t-12.5 -8.5t-15 -3.5h-577q-17 0 -28.5 12t-11.5 28v577q0 16 11.5 27.5t28.5 11.5zM171 662h-141q60 57 143.5 56t142.5 -60q14 15 43 44q-78 78 -188 78q-45 0 -86.5 -14.5t-75.5 -41
t-59 -62.5q-52 -77 -43.5 -173t76.5 -164q77 -76 186 -77.5t190 77.5q-14 15 -43 44q-46 -46 -109.5 -57t-122.5 16v65q39 -28 87 -28q62 0 105.5 43.5t43.5 105t-43.5 105t-105.5 43.5zM23 372q-44 46 -54 108.5t17 119.5h185q28 0 50 -15.5t31 -38t5 -48.5t-24 -46
t-46.5 -24t-49 5t-38 30.5t-15.5 49.5h-61v-141zM292 141v14h55v-14h-19v-102h-17v102h-19zM308 22q2 0 3.5 -1.5t1.5 -3.5v-18q0 -2 -1.5 -3.5t-3.5 -1.5h-18q-2 0 -3.5 1.5t-1.5 3.5v18q0 2 1.5 3.5t3.5 1.5h18zM309 -1v18h-1h-18h-1v-18q0 -1 1 -1h18h1v1zM203 155
q17 0 17 -16v-20h-17v17q0 4 -1 5t-4 1h-10q-3 0 -4 -1t-1 -5v-79q0 -3 1 -4t4 -1h10q3 0 4 1t1 4v18h17v-20q0 -16 -17 -16h-20q-17 0 -17 16v84q0 16 17 16h20zM448 52h28v-13h-45v116h17v-103zM-142 155q17 0 17 -16v-39q0 -16 -17 -16h-21v-45h-17v116h38zM-141 103v33
q0 3 -1.5 4t-4.5 1h-16v-44h16q3 0 4.5 1t1.5 5zM395 155q17 0 17 -16v-84q0 -16 -17 -16h-21q-17 0 -17 16v84q0 16 17 16h21zM396 58l-1 78q0 3 -1 4t-4 1h-11q-3 0 -4 -1t-1 -4v-78q0 -4 1 -5t4 -1h11q3 0 4.5 1t1.5 5zM201 22q2 0 3.5 -1.5t1.5 -3.5v-18q0 -2 -1.5 -3.5
t-3.5 -1.5h-24v28h24zM201 -1v18v0h-18h-1v-18v-1h1h18v1zM136 -1v23h4v-23q0 -3 -1.5 -4.5t-3.5 -1.5h-18q-2 0 -3.5 1.5t-1.5 4.5v23h4v-23v-1h1h18q1 0 1 1zM77 102q0 -14 -13 -16l19 -47h-18l-18 47h-9v-47h-17v116h39q17 0 17 -16v-37zM60 104v32q0 3 -1 4t-4 1h-17
v-42h17q3 0 4 1t1 4zM108 155h25l22 -116h-17l-5 27h-24l-5 -27h-16zM111 79h20l-11 61zM248 -6h-5v28h5v-28zM287 52v-13h-50v116h49v-14h-33v-35h27v-14h-27v-40h34zM-9 39h-16v102h-20v14h56v-14h-20v-102zM6 22q2 0 3.5 -1.5t1.5 -3.5v-2h-4v2h-1h-18h-1v-6q0 -1 0.5 -1
h0.5h18q2 0 3.5 -1.5t1.5 -3.5v-6q0 -3 -1.5 -4t-3.5 -1h-18q-2 0 -3.5 1t-1.5 4v1h4v-1q0 -1 0.5 -1h0.5h18h0.5t0.5 1v6h-1h-18q-2 0 -3.5 1.5t-1.5 4.5v6q0 2 1.5 3.5t3.5 1.5h18zM47 17v5h28v-5h-12v-24h-4v24h-12zM-72 58v97h17v-100q0 -16 -17 -16h-21q-17 0 -17 16
v100h17v-97q0 -4 1 -5t4 -1h11q3 0 4 1t1 5zM328 861q-15 0 -15 14v86h14v-83q0 -3 1 -4t4 -1h9q3 0 4 1t1 4v83h14v-86q0 -14 -15 -14h-17zM476 873v-12h-43v100h42v-12h-27v-30h22v-12h-22v-34h28zM388 906q-14 0 -14 15v26q0 14 14 14h16q15 0 15 -14v-15h-15v13
q0 2 -1 3t-3 1h-7q-3 0 -4 -1t-1 -3v-23q0 -2 1 -3t4 -1h11q15 0 15 -14v-29q0 -14 -15 -14h-15q-15 0 -15 14v15h14v-12q0 -3 1 -4t4 -1h7q3 0 3.5 1t0.5 4v24q0 3 -0.5 3.5t-3.5 0.5h-12zM281 873v-12h-39v100h15v-88h24zM193 884l-4 -23h-14l18 100h20l19 -100h-14l-4 23
h-21zM203 948l-8 -52h17zM-77 873v-12h-43v100h42v-12h-28v-30h23v-12h-23v-34h29zM130 933v-72h-14v100h16l20 -70v70h13v-100h-14zM-166 900v-39h-14v100h32q15 0 15 -14v-33q0 -14 -15 -14h-18zM-166 949v-38h14q3 0 4 1t1 4v29q0 2 -1 3t-4 1h-14zM-44 902h-7v-41h-15
v100h33q14 0 14 -14v-31q0 -12 -10 -14l16 -41h-16zM-52 949v-36h14q3 0 4 1t1 4v27q0 2 -1 3t-4 1h-14zM9 906q-14 0 -14 15v26q0 14 14 14h16q15 0 15 -14v-15h-15v13q0 2 -1 3t-3 1h-7q-3 0 -4 -1t-1 -3v-23q0 -2 1 -3t4 -1h11q15 0 15 -14v-29q0 -14 -15 -14h-15
q-15 0 -15 14v15h14v-12q0 -3 1 -4t4 -1h7q3 0 3.5 1t0.5 4v24q0 3 -0.5 3.5t-3.5 0.5h-12zM68 862q-15 0 -15 13v72q0 14 15 14h18q15 0 15 -14v-72q0 -13 -15 -13h-18zM68 945v-67q0 -3 1 -4t3 -1h10q2 0 3 1t1 4v67q0 2 -1 3t-3 1h-10q-2 0 -3 -1t-1 -3z" />
    <glyph glyph-name="four" unicode="4" horiz-adv-x="456" 
d="M103 372q-44 46 -54 108.5t17 119.5h185q28 0 50 -15.5t31 -38t5 -48.5t-24 -46t-46.5 -24t-49 5t-38 30.5t-15.5 49.5h-61v-141zM-60 841h577q16 0 27.5 -11.5t11.5 -27.5v-577q0 -16 -11.5 -28t-27.5 -12h-577q-17 0 -28.5 12t-11.5 28v577q0 16 11.5 27.5t28.5 11.5z
M251 662h-141q60 57 143.5 56t142.5 -60q15 15 43 44q-78 78 -188 78q-45 0 -86.5 -14.5t-75.5 -41t-59 -62.5q-52 -77 -43.5 -173t76.5 -164q77 -76 186 -77.5t190 77.5q-14 15 -43 44q-46 -46 -109.5 -57t-122.5 16v65q39 -28 87 -28q62 0 105.5 43.5t43.5 105t-43.5 105
t-105.5 43.5zM8 58v97h17v-100q0 -16 -17 -16h-21q-17 0 -17 16v100h17v-97q0 -4 1 -5t4 -1h11q3 0 4 1t1 5zM-62 155q17 0 17 -16v-39q0 -16 -17 -16h-21v-45h-17v116h38zM-61 103v33q0 3 -1.5 4t-4.5 1h-16v-44h16q3 0 4.5 1t1.5 5zM71 39h-16v102h-20v14h56v-14h-20v-102
zM86 22q2 0 3.5 -1.5t1.5 -3.5v-2h-4v2h-1h-18h-1v-6q0 -1 0.5 -1h0.5h18q2 0 3.5 -1.5t1.5 -3.5v-6q0 -2 -1.5 -3.5t-3.5 -1.5h-18q-2 0 -3.5 1.5t-1.5 3.5v1h4v-1q0 -1 0.5 -1h0.5h18h0.5t0.5 1v6h-1h-18q-2 0 -3.5 1.5t-1.5 4.5v6q0 2 1.5 3.5t3.5 1.5h18zM328 -6h-5v28
h5v-28zM367 52v-13h-50v116h49v-14h-33v-35h27v-14h-27v-40h34zM388 22q2 0 3.5 -1.5t1.5 -3.5v-18q0 -2 -1.5 -3.5t-3.5 -1.5h-18q-2 0 -3.5 1.5t-1.5 3.5v18q0 2 1.5 3.5t3.5 1.5h18zM389 -1v18h-1h-18h-1v-18q0 -1 1 -1h18h1v1zM528 52h28v-13h-45v116h17v-103zM283 155
q17 0 17 -16v-20h-17v17q0 4 -1 5t-4 1h-10q-3 0 -4 -1t-1 -5v-79q0 -3 1 -4t4 -1h10q3 0 4 1t1 4v18h17v-20q0 -16 -17 -16h-20q-17 0 -17 16v84q0 16 17 16h20zM372 141v14h55v-14h-19v-102h-17v102h-19zM475 155q17 0 17 -16v-84q0 -16 -17 -16h-21q-17 0 -17 16v84
q0 16 17 16h21zM476 58v78q0 3 -1.5 4t-4.5 1h-11q-3 0 -4 -1t-1 -4v-78q0 -4 1 -5t4 -1h11q3 0 4.5 1t1.5 5zM127 17v5h28v-5h-12v-24h-4v24h-12zM157 102q0 -14 -13 -16l19 -47h-18l-18 47h-9v-47h-16v116h38q17 0 17 -16v-37zM140 104v32q0 3 -1 4t-4 1h-17v-42h17
q3 0 4 1t1 4zM281 22q2 0 3.5 -1.5t1.5 -3.5v-18q0 -3 -1.5 -4t-3.5 -1h-24v28h24zM281 -1v18v0h-18h-1v-18v-1h1h18v1zM188 155h25l22 -116h-17l-5 27h-24l-5 -27h-16zM191 79h20l-11 61zM216 -1v23h4v-23q0 -3 -1.5 -4.5t-3.5 -1.5h-18q-2 0 -3.5 1.5t-1.5 4.5v23h4v-23
v-1h1h18q1 0 1 1zM408 861q-15 0 -15 14v86h14v-83q0 -3 1 -4t4 -1h9q3 0 4 1t1 4v83h14v-86q0 -14 -15 -14h-17zM361 873v-12h-39v100h15v-88h24zM556 873v-12h-43v100h42v-12h-27v-30h22v-12h-22v-34h28zM468 906q-14 0 -14 15v26q0 14 15 14h15q15 0 15 -14v-15h-15v13
q0 2 -1 3t-3 1h-7q-3 0 -4 -1t-1 -3v-23q0 -2 1 -3t4 -1h12q14 0 14 -14v-29q0 -14 -15 -14h-15q-15 0 -15 14v15h14v-12q0 -3 1 -4t4 -1h7q3 0 4 1t1 4v24q0 3 -1 3.5t-4 0.5h-12zM29 902v-41h-15v100h33q14 0 14 -14v-31q0 -12 -10 -14l16 -41h-16l-15 41h-7zM29 949v-36
h13q3 0 4 1t1 4v27q0 2 -1 3t-4 1h-13zM3 873v-12h-43v100h42v-12h-28v-30h23v-12h-23v-34h29zM-68 900h-18v-39h-14v100h33q14 0 14 -14v-33q0 -14 -15 -14zM-86 949v-38h14q3 0 4 1t1 4v29q0 2 -1 3t-4 1h-14zM89 906q-14 0 -14 15v26q0 14 15 14h15q15 0 15 -14v-15h-15
v13q0 2 -1 3t-3 1h-7q-3 0 -4 -1t-1 -3v-23q0 -2 1 -3t4 -1h11q15 0 15 -14v-29q0 -14 -15 -14h-15q-15 0 -15 14v15h14v-12q0 -3 1 -4t4 -1h7q3 0 3.5 1t0.5 4v24q0 3 -0.5 3.5t-3.5 0.5h-12zM210 933v-72h-14v100h16l20 -70v70h13v-100h-14zM273 884l-4 -23h-14l18 100h20
l19 -100h-14l-4 23h-21zM283 948l-8 -52h17zM148 861q-15 0 -15 14v72q0 14 15 14h18q15 0 15 -14v-72q0 -14 -15 -14h-18zM148 945v-67q0 -3 1 -4t3 -1h10q2 0 3 1t1 4v67q0 2 -1 3t-3 1h-10q-2 0 -3 -1t-1 -3z" />
    <glyph glyph-name="five" unicode="5" horiz-adv-x="457" 
d="M-160 841h577q16 0 27.5 -11.5t11.5 -27.5v-577q0 -8 -3 -15.5t-8.5 -12.5t-12.5 -8.5t-15 -3.5h-577q-8 0 -15.5 3.5t-13 8.5t-8.5 12.5t-3 15.5v577q0 16 11.5 27.5t28.5 11.5zM151 662h-141q60 57 143.5 56t142.5 -60q14 15 43 44q-78 78 -188 78q-45 0 -86.5 -14.5
t-75.5 -41t-59 -62.5q-52 -77 -43.5 -173t76.5 -164q77 -76 186 -77.5t190 77.5q-14 15 -43 44q-46 -46 -109.5 -57t-122.5 16v65q39 -28 87 -28q62 0 105.5 43.5t43.5 105t-43.5 105t-105.5 43.5zM3 372q-44 46 -54 108.5t17 119.5h185q28 0 50 -15.5t31 -38t5 -48.5
t-24 -46t-46.5 -24t-49 5t-38 30.5t-15.5 49.5h-61v-141zM-162 155q17 0 17 -16v-39q0 -16 -17 -16h-21v-45h-17v116h38zM-161 103v33q0 3 -1.5 4t-4.5 1h-16v-44h16q3 0 4.5 1t1.5 5zM-92 58v97h17v-100q0 -16 -17 -16h-21q-17 0 -17 16v100h17v-97q0 -4 1 -5t4 -1h11
q3 0 4 1t1 5zM-29 39h-16v102h-20v14h56v-14h-20v-102zM288 22q2 0 3.5 -1.5t1.5 -3.5v-18q0 -2 -1.5 -3.5t-3.5 -1.5h-18q-2 0 -3.5 1.5t-1.5 3.5v18q0 2 1.5 3.5t3.5 1.5h18zM289 -1v18h-1h-18h-1v-18q0 -1 1 -1h18h1v1zM272 141v14h55v-14h-19v-102h-17v102h-19zM228 -6
h-5v28h5v-28zM183 155q17 0 17 -16v-20h-17v17q0 4 -1 5t-4 1h-10q-3 0 -4 -1t-1 -5v-79q0 -3 1 -4t4 -1h10q3 0 4 1t1 4v18h17v-20q0 -16 -17 -16h-20q-17 0 -17 16v84q0 16 17 16h20zM267 52v-13h-50v116h49v-14h-33v-35h27v-14h-27v-40h34zM375 155q17 0 17 -16v-84
q0 -16 -17 -16h-21q-17 0 -17 16v84q0 16 17 16h21zM376 58v78q0 3 -1.5 4t-4.5 1h-11q-3 0 -4 -1t-1 -4v-78q0 -4 1 -5t4 -1h11q3 0 4.5 1t1.5 5zM427 52h29v-13h-45v116h16v-103zM116 -1v23h4v-23q0 -3 -1.5 -4.5t-3.5 -1.5h-18q-2 0 -3.5 1.5t-1.5 4.5v23h4v-23v-1h1h18
q1 0 1 1zM57 102q0 -14 -13 -16l19 -47h-18l-18 47h-9v-47h-16v116h38q17 0 17 -16v-37zM40 104v32q0 3 -1 4t-4 1h-17v-42h17q3 0 4 1t1 4zM181 22q2 0 3.5 -1.5t1.5 -3.5v-18q0 -2 -1.5 -3.5t-3.5 -1.5h-24v28h24zM181 -1v18v0h-18h-1v-18v-1h1h18v1zM27 17v5h28v-5h-12
v-24h-4v24h-12zM-14 22q2 0 3.5 -1.5t1.5 -3.5v-2h-4v2h-1h-18h-1v-6q0 -1 0.5 -1h0.5h18q2 0 3.5 -1.5t1.5 -3.5v-6q0 -2 -1.5 -3.5t-3.5 -1.5h-18q-2 0 -3.5 1.5t-1.5 3.5v1h4v-1q0 -1 0.5 -1h0.5h18h0.5t0.5 1v6h-1h-18q-2 0 -3.5 1.5t-1.5 4.5v6q0 2 1.5 3.5t3.5 1.5h18
zM88 155h25l22 -116h-17l-5 27h-24l-5 -27h-16zM91 79h20l-11 61zM261 873v-12h-39v100h15v-88h24zM368 906q-14 0 -14 15v26q0 14 15 14h15q15 0 15 -14v-15h-15v13q0 2 -1 3t-3 1h-7q-3 0 -4 -1t-1 -3v-23q0 -2 1 -3t4 -1h12q14 0 14 -14v-29q0 -14 -15 -14h-15
q-15 0 -15 14v15h14v-12q0 -3 1 -4t4 -1h7q3 0 4 1t1 4v24q0 3 -1 3.5t-4 0.5h-12zM456 873v-11h-43v99h42v-12h-27v-30h22v-12h-22v-34h28zM308 862q-15 0 -15 13v86h14v-83q0 -3 1 -4t4 -1h9q3 0 4 1t1 4v83h14v-86q0 -13 -15 -13h-17zM173 884l-4 -22h-14l18 99h20
l19 -99h-14l-4 22h-21zM183 948l-8 -52h17zM-64 902h-7v-40h-15v99h33q14 0 14 -14v-31q0 -12 -10 -14l16 -41h-16zM-71 949v-36h13q3 0 4 1t1 4v27q0 2 -1 3t-4 1h-13zM-186 900v-38h-14v99h32q15 0 15 -14v-33q0 -14 -15 -14h-18zM-186 949v-38h14q3 0 4 1t1 4v29
q0 2 -1 3t-4 1h-14zM-97 873v-11h-43v99h42v-12h-28v-30h23v-12h-23v-34h29zM-11 906q-14 0 -14 15v26q0 14 15 14h15q15 0 15 -14v-15h-15v13q0 2 -1 3t-3 1h-7q-3 0 -4 -1t-1 -3v-23q0 -2 1 -3t4 -1h11q15 0 15 -14v-29q0 -13 -15 -13h-15q-15 0 -15 13v15h14v-12
q0 -3 1 -4t4 -1h7q3 0 3.5 1t0.5 4v24q0 3 -0.5 3.5t-3.5 0.5h-12zM110 933v-71h-14v99h15l21 -70v70h13v-99h-14zM48 862q-15 0 -15 13v72q0 14 15 14h18q15 0 15 -14v-72q0 -13 -15 -13h-18zM48 945v-67q0 -3 1 -4t3 -1h10q2 0 3 1t1 4v67q0 2 -1 3t-3 1h-10q-2 0 -3 -1
t-1 -3z" />
    <glyph glyph-name="six" unicode="6" horiz-adv-x="538" 
d="M84 372q-44 46 -54 108.5t17 119.5h185q28 0 50 -15.5t31 -38t5 -48.5t-24 -46t-46.5 -24t-49 5t-38 30.5t-15.5 49.5h-61v-141zM-79 841h577q10 0 19.5 -5t14.5 -14t5 -20v-577q0 -16 -11.5 -28t-27.5 -12h-577q-17 0 -28.5 12t-11.5 28v577q0 16 11.5 27.5t28.5 11.5z
M232 662h-141q60 57 143.5 56t142.5 -60l43 44q-78 78 -188 78q-45 0 -86.5 -14.5t-75.5 -41t-59 -62.5q-52 -77 -43.5 -173t76.5 -164q77 -76 186 -77.5t190 77.5q-7 8 -21.5 22t-21.5 22q-46 -46 -109.5 -57t-122.5 16v65q39 -28 87 -28q62 0 105.5 43.5t43.5 105
t-43.5 105t-105.5 43.5zM67 22q2 0 3.5 -1.5t1.5 -3.5v-2h-4v2h-1h-18h-1v-6q0 -1 0.5 -1h0.5h18q2 0 3.5 -1.5t1.5 -3.5v-6q0 -2 -1.5 -3.5t-3.5 -1.5h-18q-2 0 -3.5 1.5t-1.5 3.5v1h4v-1q0 -1 0.5 -1h0.5h18h0.5t0.5 1v6h-1h-18q-2 0 -3.5 1.5t-1.5 4.5v6q0 2 1.5 3.5
t3.5 1.5h18zM52 39h-16v102h-20v14h56v-14h-20v-102zM-81 155q17 0 17 -16v-39q0 -16 -17 -16h-21v-45h-17v116h38zM-80 103v33q0 3 -1.5 4t-4.5 1h-16v-44h16q3 0 4.5 1t1.5 5zM-11 58v97h17v-100q0 -16 -17 -16h-21q-17 0 -17 16v100h17v-97q0 -4 1 -5t4 -1h11q3 0 4 1
t1 5zM108 22h28v-5h-12v-24h-4v24h-12v5zM369 22q2 0 3.5 -1.5t1.5 -3.5v-18q0 -2 -1.5 -3.5t-3.5 -1.5h-18q-2 0 -3.5 1.5t-1.5 3.5v18q0 2 1.5 3.5t3.5 1.5h18zM370 -1v18h-1h-18h-1v-18q0 -1 1 -1h18h1v1zM352 141v14h56v-14h-19v-102h-17v102h-20zM309 -6h-5v28h5v-28z
M456 155q17 0 17 -16v-84q0 -16 -17 -16h-21q-17 0 -17 16v84q0 16 17 16h21zM456 58v78q0 3 -1 4t-4 1h-11q-3 0 -4 -1t-1 -4v-78q0 -4 1 -5t4 -1h11q3 0 4 1t1 5zM348 52v-13h-50v116h49v-14h-33v-35h27v-14h-27v-40h34zM508 52h29v-13h-45v116h16v-103zM169 155h25
l22 -116h-17l-5 27h-24l-5 -27h-16zM172 79h20l-11 61zM197 -1v23h4v-23q0 -3 -1.5 -4.5t-3.5 -1.5h-18q-2 0 -3.5 1.5t-1.5 4.5v23h4v-23v-1h1h18q1 0 1 1zM138 102q0 -14 -13 -16l19 -47h-18l-18 47h-9v-47h-17v116h39q17 0 17 -16v-37zM121 104v32q0 3 -1 4t-4 1h-17v-42
h17q3 0 4 1t1 4zM264 155q17 0 17 -16v-20h-17v17q0 4 -1 5t-4 1h-10q-3 0 -4 -1t-1 -5v-79q0 -3 1 -4t4 -1h10q3 0 4 1t1 4v18h17v-20q0 -16 -17 -16h-20q-17 0 -17 16v84q0 16 17 16h20zM262 22q2 0 3.5 -1.5t1.5 -3.5v-18q0 -3 -1.5 -4t-3.5 -1h-24v28h24zM262 -1v18v0
h-18h-1v-18v-1h1h18v1zM389 861q-15 0 -15 14v86h14v-83q0 -3 1 -4t4 -1h9q3 0 4 1t1 4v83h14v-86q0 -14 -15 -14h-17zM537 873v-12h-43v100h42v-12h-27v-30h22v-12h-22v-34h28zM449 906q-14 0 -14 15v26q0 14 14 14h16q15 0 15 -14v-15h-15v13q0 2 -1 3t-3 1h-7q-3 0 -4 -1
t-1 -3v-23q0 -2 1 -3t4 -1h11q15 0 15 -14v-29q0 -14 -15 -14h-15q-15 0 -15 14v15h14v-12q0 -3 1 -4t4 -1h7q3 0 3.5 1t0.5 4v24q0 3 -0.5 3.5t-3.5 0.5h-12zM342 873v-12h-39v100h15v-88h24zM-16 873v-12h-43v100h42v-12h-28v-30h23v-12h-23v-34h29zM17 902h-7v-41h-15
v100h33q14 0 14 -14v-31q0 -12 -10 -14l16 -41h-16zM9 949v-36h14q3 0 4 1t1 4v27q0 2 -1 3t-4 1h-14zM254 884l-4 -23h-14l18 100h20l19 -100h-14l-4 23h-21zM264 948l-8 -52h17zM70 906q-14 0 -14 15v26q0 14 15 14h15q15 0 15 -14v-15h-15v13q0 2 -1 3t-3 1h-7
q-3 0 -4 -1t-1 -3v-23q0 -2 1 -3t4 -1h11q15 0 15 -14v-29q0 -14 -15 -14h-15q-15 0 -15 14v15h14v-12q0 -3 1 -4t4 -1h7q3 0 3.5 1t0.5 4v24q0 3 -0.5 3.5t-3.5 0.5h-12zM-105 900v-38h-14v99h32q15 0 15 -14v-33q0 -14 -15 -14h-18zM-105 949v-38h14q3 0 4 1t1 4v29
q0 2 -1 3t-4 1h-14zM129 862q-15 0 -15 13v72q0 14 15 14h18q15 0 15 -14v-72q0 -13 -15 -13h-18zM129 945v-67q0 -3 0.5 -4t3.5 -1h10q2 0 3 1t1 4v67q0 2 -1 3t-3 1h-10q-3 0 -3.5 -1t-0.5 -3zM191 933v-71h-14v99h15l21 -70v70h13v-99h-15z" />
    <glyph glyph-name="seven" unicode="7" horiz-adv-x="457" 
d="M3 372q-44 46 -54 108.5t17 119.5h185q28 0 50 -15.5t31 -38t5 -48.5t-24 -46t-46.5 -24t-49 5t-38 30.5t-15.5 49.5h-61v-141zM-160 841h577q16 0 27.5 -11.5t11.5 -27.5v-577q0 -16 -11.5 -28t-27.5 -12h-577q-17 0 -28.5 12t-11.5 28v577q0 16 11.5 27.5t28.5 11.5z
M151 662h-141q60 57 143.5 56t142.5 -60l43 44q-78 78 -188 78q-45 0 -86.5 -14.5t-75.5 -41t-59 -62.5q-52 -77 -43.5 -173t76.5 -164q77 -76 186 -77.5t190 77.5q-7 8 -21.5 22t-21.5 22q-46 -46 -109.5 -57t-122.5 16v65q39 -28 87 -28q62 0 105.5 43.5t43.5 105
t-43.5 105t-105.5 43.5zM-29 39h-16v102h-20v14h56v-14h-20v-102zM-92 58v97h17v-100q0 -16 -17 -16h-21q-17 0 -17 16v100h17v-97q0 -4 1 -5t4 -1h11q3 0 4 1t1 5zM-14 22q2 0 3.5 -1.5t1.5 -3.5v-2h-4v2h-1h-18h-1v-6q0 -1 0.5 -1h0.5h18q2 0 3.5 -1.5t1.5 -3.5v-6
q0 -2 -1.5 -3.5t-3.5 -1.5h-18q-2 0 -3.5 1.5t-1.5 3.5v1h4v-1q0 -1 0.5 -1h0.5h18h0.5t0.5 1v6h-1h-18q-2 0 -3.5 1.5t-1.5 4.5v6q0 2 1.5 3.5t3.5 1.5h18zM-162 155q17 0 17 -16v-39q0 -16 -17 -16h-21v-45h-17v116h38zM-161 103v33q0 3 -1.5 4t-4.5 1h-16v-44h16
q3 0 4.5 1t1.5 5zM267 52v-13h-50v116h49v-14h-33v-35h27v-14h-27v-40h34zM27 22h28v-5h-12v-24h-4v24h-12v5zM428 52h28v-13h-45v116h17v-103zM375 155q17 0 17 -16v-84q0 -16 -17 -16h-21q-17 0 -17 16v84q0 16 17 16h21zM376 58v78q0 3 -1.5 4t-4.5 1h-11q-3 0 -4 -1
t-1 -4v-78q0 -4 1 -5t4 -1h11q3 0 4.5 1t1.5 5zM288 22q2 0 3.5 -1.5t1.5 -3.5v-18q0 -3 -1.5 -4t-3.5 -1h-18q-2 0 -3.5 1t-1.5 4v18q0 2 1.5 3.5t3.5 1.5h18zM289 -1v18h-1h-18h-1v-18q0 -1 1 -1h18h1v1zM228 -6h-5v28h5v-28zM272 141v14h55v-14h-19v-102h-17v102h-19z
M57 102q0 -14 -13 -16l19 -47h-18l-18 47h-9v-47h-16v116h38q17 0 17 -16v-37zM40 104v32q0 3 -1 4t-4 1h-17v-42h17q3 0 4 1t1 4zM88 155h25l22 -116h-17l-5 27h-24l-5 -27h-16zM91 79h20l-11 61zM116 -1v23h4v-23q0 -3 -1.5 -4.5t-3.5 -1.5h-18q-2 0 -3.5 1.5t-1.5 4.5v23
h4v-23v-1h1h18q1 0 1 1zM183 155q17 0 17 -16v-20h-17v17q0 4 -1 5t-4 1h-10q-3 0 -4 -1t-1 -5v-79q0 -3 1 -4t4 -1h10q3 0 4 1t1 4v18h17v-20q0 -16 -17 -16h-20q-17 0 -17 16v84q0 16 17 16h20zM181 22q2 0 3.5 -1.5t1.5 -3.5v-18q0 -3 -1.5 -4t-3.5 -1h-24v28h24zM181 -1
v18v0h-18h-1v-18v-1h1h18v1zM308 861q-15 0 -15 14v86h14v-83q0 -3 1 -4t4 -1h9q3 0 4 1t1 4v83h14v-86q0 -14 -15 -14h-17zM261 873v-12h-39v100h15v-88h24zM368 906q-14 0 -14 15v26q0 14 14 14h16q15 0 15 -14v-15h-15v13q0 2 -1 3t-3 1h-7q-3 0 -4 -1t-1 -3v-23
q0 -2 1 -3t4 -1h11q15 0 15 -14v-29q0 -14 -15 -14h-15q-15 0 -15 14v15h14v-12q0 -3 1 -4t4 -1h7q3 0 3.5 1t0.5 4v24q0 3 -0.5 3.5t-3.5 0.5h-12zM456 873v-12h-43v100h42v-12h-27v-30h22v-12h-22v-34h28zM-64 902h-7v-41h-15v100h33q14 0 14 -14v-31q0 -12 -10 -14
l16 -41h-16zM-71 949v-36h13q3 0 4 1t1 4v27q0 2 -1 3t-4 1h-13zM-11 906q-14 0 -14 15v26q0 14 15 14h15q15 0 15 -14v-15h-15v13q0 2 -1 3t-3 1h-7q-3 0 -4 -1t-1 -3v-23q0 -2 1 -3t4 -1h11q15 0 15 -14v-29q0 -14 -15 -14h-15q-15 0 -15 14v15h14v-12q0 -3 1 -4t4 -1h7
q3 0 3.5 1t0.5 4v24q0 3 -0.5 3.5t-3.5 0.5h-12zM173 884l-4 -23h-14l18 100h20l19 -100h-14l-4 23h-21zM183 948l-8 -52h17zM-186 900v-38h-14v99h32q15 0 15 -14v-33q0 -14 -15 -14h-18zM-186 949v-38h14q3 0 4 1t1 4v29q0 2 -1 3t-4 1h-14zM-97 873v-12h-43v100h42v-12
h-28v-30h23v-12h-23v-34h29zM110 933v-72h-14v100h16l20 -70v70h13v-100h-14zM48 861q-15 0 -15 14v72q0 14 15 14h18q15 0 15 -14v-72q0 -14 -15 -14h-18zM48 945v-67q0 -3 1 -4t3 -1h10q2 0 3 1t1 4v67q0 2 -1 3t-3 1h-10q-2 0 -3 -1t-1 -3z" />
    <glyph glyph-name="eight" unicode="8" horiz-adv-x="406" 
d="M53 372q-44 46 -54 108.5t17 119.5h185q28 0 50 -15.5t31 -38t5 -48.5t-24 -46t-46.5 -24t-49 5t-38 30.5t-15.5 49.5h-61v-141zM-110 841h577q16 0 27.5 -11.5t11.5 -27.5v-577q0 -16 -11.5 -28t-27.5 -12h-577q-8 0 -15.5 3.5t-13 8.5t-8.5 12.5t-3 15.5v577
q0 16 11.5 27.5t28.5 11.5zM201 662h-141q60 57 143.5 56t142.5 -60l11 11t10.5 11t11 11t10.5 11q-78 78 -188 78q-45 0 -86.5 -14.5t-75.5 -41t-59 -62.5q-52 -77 -43.5 -173t76.5 -164q77 -76 186 -77.5t190 77.5q-7 8 -21.5 22t-21.5 22q-46 -46 -109.5 -57t-122.5 16
v65q39 -28 87 -28q62 0 105.5 43.5t43.5 105t-43.5 105t-105.5 43.5zM36 22q2 0 3.5 -1.5t1.5 -3.5v-2h-4v2h-1h-18h-1v-6q0 -1 0.5 -1h0.5h18q2 0 3.5 -1.5t1.5 -3.5v-6q0 -2 -1.5 -3.5t-3.5 -1.5h-18q-2 0 -3.5 1.5t-1.5 3.5v1h4v-1q0 -1 0.5 -1h0.5h18h0.5t0.5 1v6h-1
h-18q-2 0 -3.5 1.5t-1.5 4.5v6q0 2 1.5 3.5t3.5 1.5h18zM21 39h-16v102h-20v14h56v-14h-20v-102zM-42 58v97h17v-100q0 -16 -17 -16h-21q-17 0 -17 16v100h17v-97q0 -4 1 -5t4 -1h11q3 0 4 1t1 5zM-112 155q17 0 17 -16v-39q0 -16 -17 -16h-21v-45h-17v116h38zM-111 103v33
q0 3 -1.5 4t-4.5 1h-16v-44h16q3 0 4.5 1t1.5 5zM478 52h28v-13h-45v116h17v-103zM278 -6h-5v28h5v-28zM338 22q2 0 3.5 -1.5t1.5 -3.5v-18q0 -2 -1.5 -3.5t-3.5 -1.5h-18q-2 0 -3.5 1.5t-1.5 3.5v18q0 2 1.5 3.5t3.5 1.5h18zM339 -1v18h-1h-18h-1v-18q0 -1 1 -1h18h1v1z
M77 22h28v-5h-12v-24h-4v24h-12v5zM322 141v14h55v-14h-19v-102h-17v102h-19zM425 155q17 0 17 -16v-84q0 -16 -17 -16h-21q-17 0 -17 16v84q0 16 17 16h21zM426 58v78q0 3 -1.5 4t-4.5 1h-11q-3 0 -4 -1t-1 -4v-78q0 -4 1 -5t4 -1h11q3 0 4.5 1t1.5 5zM317 52v-13h-50v116
h49v-14h-33v-35h27v-14h-27v-40h34zM166 -1v23h4v-23q0 -3 -1.5 -4.5t-3.5 -1.5h-18q-2 0 -3.5 1.5t-1.5 4.5v23h4v-23v-1h1h18q1 0 1 1zM233 155q17 0 17 -16v-20h-17v17q0 4 -1 5t-4 1h-10q-3 0 -4 -1t-1 -5v-79q0 -3 1 -4t4 -1h10q3 0 4 1t1 4v18h17v-20q0 -16 -17 -16
h-20q-17 0 -17 16v84q0 16 17 16h20zM107 102q0 -14 -13 -16l19 -47h-18l-18 47h-9v-47h-17v116h39q17 0 17 -16v-37zM90 104v32q0 3 -1 4t-4 1h-17v-42h17q3 0 4 1t1 4zM231 22q2 0 3.5 -1.5t1.5 -3.5v-18q0 -3 -1.5 -4t-3.5 -1h-24v28h24zM231 -1v18v0h-18h-1v-18v-1h1h18
v1zM138 155h25l22 -116h-17l-5 27h-24l-5 -27h-16zM141 79h20l-11 61zM418 906q-14 0 -14 15v26q0 14 15 14h15q15 0 15 -14v-15h-15v13q0 2 -1 3t-3 1h-7q-3 0 -4 -1t-1 -3v-23q0 -2 1 -3t4 -1h11q15 0 15 -14v-29q0 -14 -15 -14h-15q-15 0 -15 14v15h14v-12q0 -3 1 -4
t4 -1h7q3 0 3.5 1t0.5 4v24q0 3 -0.5 3.5t-3.5 0.5h-12zM311 873v-12h-39v100h15v-88h24zM358 861q-15 0 -15 14v86h14v-83q0 -3 1 -4t4 -1h9q3 0 4 1t1 4v83h14v-86q0 -14 -15 -14h-17zM506 873v-12h-43v100h42v-12h-27v-30h22v-12h-22v-34h28zM-47 873v-12h-43v100h42v-12
h-28v-30h23v-12h-23v-34h29zM-14 902h-7v-41h-15v100h33q14 0 14 -14v-31q0 -12 -10 -14l16 -41h-16zM-21 949v-36h13q3 0 4 1t1 4v27q0 2 -1 3t-4 1h-13zM-136 900v-39h-14v100h32q15 0 15 -14v-33q0 -14 -15 -14h-18zM-136 949v-38h14q3 0 4 1t1 4v29q0 2 -1 3t-4 1h-14z
M39 906q-14 0 -14 15v26q0 14 15 14h15q15 0 15 -14v-15h-15v13q0 2 -1 3t-3 1h-7q-3 0 -4 -1t-1 -3v-23q0 -2 1 -3t4 -1h11q15 0 15 -14v-29q0 -14 -15 -14h-15q-15 0 -15 14v15h14v-12q0 -3 1 -4t4 -1h7q3 0 3.5 1t0.5 4v24q0 3 -0.5 3.5t-3.5 0.5h-12zM160 933v-71h-14
v99h16l20 -70v70h13v-99h-14zM223 884l-4 -22h-14l18 99h20l19 -99h-14l-4 22h-21zM233 948l-8 -52h17zM98 862q-15 0 -15 13v72q0 14 15 14h18q15 0 15 -14v-72q0 -13 -15 -13h-18zM98 945v-67q0 -3 1 -4t3 -1h10q2 0 3 1t1 4v67q0 2 -1 3t-3 1h-10q-2 0 -3 -1t-1 -3z" />
    <glyph glyph-name="nine" unicode="9" horiz-adv-x="337" 
d="M-180 841h577q16 0 27.5 -11.5t11.5 -27.5v-577q0 -8 -3 -15.5t-8.5 -12.5t-12.5 -8.5t-15 -3.5h-577q-8 0 -15.5 3.5t-13 8.5t-8.5 12.5t-3 15.5v577q0 16 11.5 27.5t28.5 11.5zM131 662h-141q60 57 143.5 56t142.5 -60l11 11l11 11l11 11t10 11q-78 78 -188 78
q-45 0 -86.5 -14.5t-75.5 -41t-59 -62.5q-52 -77 -43.5 -173t76.5 -164q77 -76 186 -77.5t190 77.5l-43 44q-46 -46 -109.5 -57t-122.5 16v65q39 -28 87 -28q62 0 105.5 43.5t43.5 105t-43.5 105t-105.5 43.5zM-17 372q-44 46 -54 108.5t17 119.5h185q28 0 50 -15.5t31 -38
t5 -48.5t-24 -46q-16 -16 -36.5 -22t-40 -2t-36 14.5t-26.5 29.5t-10 41h-61v-141zM-49 39h-16v102h-20v14h56v-14h-20v-102zM-34 22q2 0 3.5 -1.5t1.5 -3.5v-2h-4v2h-1h-18h-1v-6q0 -1 0.5 -1h0.5h18q2 0 3.5 -1.5t1.5 -3.5v-6q0 -2 -1.5 -3.5t-3.5 -1.5h-18q-2 0 -3.5 1.5
t-1.5 3.5v1h4v-1q0 -1 0.5 -1h0.5h18h0.5t0.5 1v6h-1h-18q-2 0 -3.5 1.5t-1.5 4.5v6q0 2 1.5 3.5t3.5 1.5h18zM-182 155q17 0 17 -16v-39q0 -16 -17 -16h-21v-45h-17v116h38zM-181 103v33q0 3 -1.5 4t-4.5 1h-16v-44h16q3 0 4.5 1t1.5 5zM-112 58v97h17v-100q0 -16 -17 -16
h-21q-17 0 -17 16v100h17v-97q0 -4 1 -5t4 -1h11q3 0 4 1t1 5zM208 -6h-5v28h5v-28zM268 22q2 0 3.5 -1.5t1.5 -3.5v-18q0 -2 -1.5 -3.5t-3.5 -1.5h-18q-2 0 -3.5 1.5t-1.5 3.5v18q0 2 1.5 3.5t3.5 1.5h18zM269 -1v18h-1h-18h-1v-18q0 -1 1 -1h18h1v1zM163 155q17 0 17 -16
v-20h-17v17q0 4 -1 5t-4 1h-10q-3 0 -4 -1t-1 -5v-79q0 -3 1 -4t4 -1h10q3 0 4 1t1 4v18h17v-20q0 -16 -17 -16h-20q-17 0 -17 16v84q0 16 17 16h20zM252 141v14h55v-14h-19v-102h-17v102h-19zM247 52v-13h-50v116h49v-14h-33v-35h27v-14h-27v-40h34zM408 52h28v-13h-45v116
h17v-103zM7 22h28v-5h-12v-24h-4v24h-12v5zM355 155q17 0 17 -16v-84q0 -16 -17 -16h-21q-17 0 -17 16v84q0 16 17 16h21zM356 58v78q0 3 -1.5 4t-4.5 1h-11q-3 0 -4 -1t-1 -4v-78q0 -4 1 -5t4 -1h11q3 0 4.5 1t1.5 5zM37 102q0 -14 -13 -16l19 -47h-18l-18 47h-9v-47h-16
v116h38q17 0 17 -16v-37zM20 104v32q0 3 -1 4t-4 1h-17v-42h17q3 0 4 1t1 4zM96 -1v23h4v-23q0 -3 -1.5 -4.5t-3.5 -1.5h-18q-2 0 -3.5 1.5t-1.5 4.5v23h4v-23v-1h1h18q1 0 1 1zM68 155h25l22 -116h-17l-5 27h-24l-5 -27h-16zM71 79h20l-11 61zM161 22q2 0 3.5 -1.5
t1.5 -3.5v-18q0 -2 -1.5 -3.5t-3.5 -1.5h-24v28h24zM161 -1v18v0h-18h-1v-18v-1h1h18v1zM436 873v-12h-43v100h42v-12h-27v-30h22v-12h-22v-34h28zM288 861q-15 0 -15 14v86h14v-83q0 -3 1 -4t4 -1h9q3 0 4 1t1 4v83h14v-86q0 -14 -15 -14h-17zM348 906q-14 0 -14 15v26
q0 14 15 14h15q15 0 15 -14v-15h-15v13q0 2 -1 3t-3 1h-7q-3 0 -4 -1t-1 -3v-23q0 -2 1 -3t4 -1h12q14 0 14 -14v-29q0 -14 -15 -14h-15q-15 0 -15 14v15h14v-12q0 -3 1 -4t4 -1h7q3 0 4 1t1 4v24q0 3 -1 3.5t-4 0.5h-12zM241 873v-12h-39v100h15v-88h24zM153 884l-4 -23
h-14l18 100h20l19 -100h-14l-4 23h-21zM163 948l-8 -52h17zM-117 873v-12h-43v100h42v-12h-28v-30h23v-12h-23v-34h29zM-206 900v-39h-14v100h33q14 0 14 -14v-33q0 -14 -14 -14h-19zM-206 949v-38h14q3 0 4 1t1 4v29q0 2 -1 3t-4 1h-14zM-84 902h-7v-41h-15v100h33
q14 0 14 -14v-31q0 -12 -10 -14l16 -41h-16zM-91 949v-36h13q3 0 4 1t1 4v27q0 2 -1 3t-4 1h-13zM90 933v-72h-14v100h16l20 -70v70h13v-100h-14zM28 861q-15 0 -15 14v72q0 14 15 14h18q15 0 15 -14v-72q0 -14 -15 -14h-18zM28 945v-67q0 -3 1 -4t3 -1h10q2 0 3 1t1 4v67
q0 2 -1 3t-3 1h-10q-2 0 -3 -1t-1 -3zM-31 906q-14 0 -14 15v26q0 14 15 14h15q15 0 15 -14v-15h-15v13q0 2 -1 3t-3 1h-7q-3 0 -4 -1t-1 -3v-23q0 -2 1 -3t4 -1h11q15 0 15 -14v-29q0 -14 -15 -14h-15q-15 0 -15 14v15h14v-12q0 -3 1 -4t4 -1h7q3 0 3.5 1t0.5 4v24
q0 3 -0.5 3.5t-3.5 0.5h-12z" />
    <glyph glyph-name="colon" unicode=":" horiz-adv-x="439" 
d="M129 147q-23 22 2 41q22 17 43 7q8 -3 11 -11q8 -16 -1 -30.5t-24.5 -16.5t-30.5 10zM17 21q4 -18 -11 -28.5t-40 -6.5q-13 4 -15.5 17t7.5 23q12 14 34.5 12.5t24.5 -17.5z" />
    <glyph glyph-name="semicolon" unicode=";" horiz-adv-x="417" 
d="M115 181q8 11 21.5 13t23.5 -7q10 -12 6 -30.5t-17.5 -24t-30.5 11.5q-12 12 -12.5 17.5t9.5 19.5zM-94 -81q-37 -16 -53 -5q-11 9 9 19q8 5 20 7q16 5 51 36q43 39 48 13q0 -12 -26 -36t-49 -34z" />
    <glyph glyph-name="less" unicode="&#x3c;" horiz-adv-x="837" 
d="M233 513v-141q-44 46 -54 108.5t17 119.5h185q28 0 50 -15.5t31 -38t5 -48.5t-24 -46q-16 -16 -36.5 -22t-40 -2t-36 14.5t-26.5 29.5t-10 41h-61zM30 802q0 16 11.5 27.5t28.5 12.5h577q16 0 27.5 -12t11.5 -28v-577q0 -8 -3 -15.5t-8.5 -12.5t-12.5 -8.5t-15 -3.5h-577
q-8 0 -15.5 3.5t-13 8.5t-8.5 12.5t-3 15.5v577zM160 662q-52 -77 -43.5 -173t76.5 -164q77 -76 186 -77.5t190 77.5q-14 15 -43 44q-46 -46 -109.5 -57t-122.5 16v65q39 -28 87 -28q62 0 105.5 43.5t43.5 105t-43.5 105t-105.5 43.5h-141q60 57 143.5 56t142.5 -60
q14 14 43 44q-78 77 -188 77q-45 0 -86.5 -14t-75.5 -40.5t-59 -62.5zM201 39h-16v102h-20v14h56v-14h-20v-102zM216 22q2 0 3.5 -1.5t1.5 -3.5v-2h-4v2h-1h-18h-1v-6q0 -1 0.5 -1h0.5h18q2 0 3.5 -1.5t1.5 -3.5v-6q0 -2 -1.5 -3.5t-3.5 -1.5h-18q-2 0 -3.5 1.5t-1.5 3.5v1
h4v-1q0 -1 0.5 -1h0.5h18h0.5t0.5 1v6h-1h-18q-2 0 -3.5 1.5t-1.5 4.5v6q0 2 1.5 3.5t3.5 1.5h18zM68 155q17 0 17 -16v-39q0 -16 -17 -16h-21v-45h-17v116h38zM69 103v33q0 3 -1.5 4t-4.5 1h-16v-44h16q3 0 4.5 1t1.5 5zM138 58v97h17v-100q0 -16 -17 -16h-21q-17 0 -17 16
v100h17v-97q0 -4 1 -5t4 -1h11q3 0 4 1t1 5zM411 22q2 0 3.5 -1.5t1.5 -3.5v-18q0 -2 -1.5 -3.5t-3.5 -1.5h-24v28h24zM411 -1v18v0h-18h-1v-18v-1h1h18v1zM502 141v14h55v-14h-19v-102h-17v102h-19zM518 22q2 0 3.5 -1.5t1.5 -3.5v-18q0 -2 -1.5 -3.5t-3.5 -1.5h-18
q-2 0 -3.5 1.5t-1.5 3.5v18q0 2 1.5 3.5t3.5 1.5h18zM519 -1v18h-1h-18h-1v-18q0 -1 1 -1h18h1v1zM458 -6h-5v28h5v-28zM497 52v-13h-50v116h49v-14h-33v-35h27v-14h-27v-40h34zM257 22h28v-5h-12v-24h-4v24h-12v5zM658 52h28v-13h-45v116h17v-103zM605 155q17 0 17 -16v-84
q0 -16 -17 -16h-21q-17 0 -17 16v84q0 16 17 16h21zM606 58v78q0 3 -1.5 4t-4.5 1h-11q-3 0 -4 -1t-1 -4v-78q0 -4 1 -5t4 -1h11q3 0 4.5 1t1.5 5zM346 -1v23h4v-23q0 -3 -1.5 -4.5t-3.5 -1.5h-18q-2 0 -3.5 1.5t-1.5 4.5v23h4v-23v-1h1h18q1 0 1 1zM287 102q0 -14 -13 -16
l19 -47h-18l-18 47h-9v-47h-16v116h38q17 0 17 -16v-37zM270 104v32q0 3 -1 4t-4 1h-17v-42h17q3 0 4 1t1 4zM318 155h25l22 -116h-17l-5 27h-24l-5 -27h-16zM321 79h20l-11 61zM413 155q17 0 17 -16v-20h-17v17q0 4 -1 5t-4 1h-10q-3 0 -4 -1t-1 -5v-79q0 -3 1 -4t4 -1h10
q3 0 4 1t1 4v18h17v-20q0 -16 -17 -16h-20q-17 0 -17 16v84q0 16 17 16h20zM491 873v-12h-39v100h15v-88h24zM133 873v-12h-43v100h42v-12h-28v-30h23v-12h-23v-34h29zM658 873h28v-12h-43v100h42v-12h-27v-30h22v-12h-22v-34zM598 906q-14 0 -14 15v26q0 14 15 14h15
q15 0 15 -14v-15h-15v13q0 2 -1 3t-3 1h-7q-3 0 -4 -1t-1 -3v-23q0 -2 1 -3t4 -1h11q15 0 15 -14v-29q0 -14 -15 -14h-15q-15 0 -15 14v15h14v-12q0 -3 1 -4t4 -1h7q3 0 3.5 1t0.5 4v24q0 3 -0.5 3.5t-3.5 0.5h-12zM538 862q-15 0 -15 13v86h14v-83q0 -3 1 -4t4 -1h9
q3 0 4 1t1 4v83h14v-86q0 -13 -15 -13h-17zM44 900v-38h-14v99h32q15 0 15 -14v-33q0 -14 -15 -14h-18zM44 949v-38h14q3 0 4 1t1 4v29q0 2 -1 3t-4 1h-14zM219 906q-14 0 -14 15v26q0 14 15 14h15q15 0 15 -14v-15h-15v13q0 2 -1 3t-3 1h-7q-3 0 -4 -1t-1 -3v-23q0 -2 1 -3
t4 -1h11q15 0 15 -14v-29q0 -14 -15 -14h-15q-15 0 -15 14v15h14v-12q0 -3 1 -4t4 -1h7q3 0 3.5 1t0.5 4v24q0 3 -0.5 3.5t-3.5 0.5h-12zM166 902h-7v-40h-15v99h33q14 0 14 -14v-31q0 -12 -10 -14l16 -41h-16zM159 949v-36h13q3 0 4 1t1 4v27q0 2 -1 3t-4 1h-13zM278 862
q-15 0 -15 13v72q0 14 15 14h18q15 0 15 -14v-72q0 -13 -15 -13h-18zM278 945v-67q0 -3 1 -4t3 -1h10q2 0 3 1t1 4v67q0 2 -1 3t-3 1h-10q-2 0 -3 -1t-1 -3zM340 933v-71h-14v99h16l20 -70v70h13v-99h-14zM403 884l-4 -22h-14l18 99h20l19 -99h-14l-4 22h-21zM413 948
l-8 -52h17z" />
    <glyph glyph-name="equal" unicode="=" horiz-adv-x="339" 
d="M225 258q15 1 14 -7q-4 -13 -27 -21q-23 -7 -103.5 -11t-92.5 3q-5 15 -5 19q1 8 46 10.5t99.5 3t68.5 3.5zM19 139q-19 6 -19 14q0 3 3.5 5t12 3.5t22 3t35.5 2.5q54 3 116 9q47 5 49 0q1 -2 0 -7q-3 -18 -97 -26.5t-122 -3.5z" />
    <glyph glyph-name="greater" unicode="&#x3e;" horiz-adv-x="757" 
d="M-100 802q0 16 11.5 27.5t28.5 12.5h577q10 0 19.5 -5.5t14.5 -14.5t5 -20v-577q0 -8 -3 -15.5t-8.5 -12.5t-12.5 -8.5t-15 -3.5h-577q-17 0 -28.5 12t-11.5 28v577zM30 662q-52 -77 -43.5 -173t76.5 -164q77 -76 186 -77.5t190 77.5l-43 44q-46 -46 -109.5 -57
t-122.5 16v65q39 -28 87 -28q62 0 105.5 43.5t43.5 105t-43.5 105t-105.5 43.5h-141q60 57 143.5 56t142.5 -60l43 44q-78 77 -188 77q-67 0 -125.5 -31.5t-95.5 -85.5zM103 513v-141q-44 46 -54 108.5t17 119.5h185q28 0 50 -15.5t31 -38t5 -48.5t-24 -46t-46.5 -24t-49 5
t-38 30.5t-15.5 49.5h-61zM8 58v97h17v-100q0 -16 -17 -16h-21q-17 0 -17 16v100h17v-97q0 -4 1 -5t4 -1h11q3 0 4 1t1 5zM-62 155q17 0 17 -16v-39q0 -16 -17 -16h-21v-45h-17v116h38zM-61 103v33q0 3 -1.5 4t-4.5 1h-16v-44h16q3 0 4.5 1t1.5 5zM371 141v14h56v-14h-19
v-102h-17v102h-20zM528 52h28v-13h-45v116h17v-103zM475 155q17 0 17 -16v-84q0 -16 -17 -16h-21q-17 0 -17 16v84q0 16 17 16h21zM475 58v78q0 3 -1 4t-4 1h-11q-3 0 -4 -1t-1 -4v-78q0 -4 1 -5t4 -1h11q3 0 4 1t1 5zM281 22q2 0 3.5 -1.5t1.5 -3.5v-18q0 -2 -1.5 -3.5
t-3.5 -1.5h-24v28h24zM281 -1v18v0h-18h-1v-18v-1h1h18v1zM283 155q17 0 17 -16v-20h-17v17q0 4 -1 5t-4 1h-10q-3 0 -4 -1t-1 -5v-79q0 -3 1 -4t4 -1h10q3 0 4 1t1 4v18h17v-20q0 -16 -17 -16h-20q-17 0 -17 16v84q0 16 17 16h20zM367 52v-13h-50v116h49v-14h-33v-35h27
v-14h-27v-40h34zM328 -6h-5v28h5v-28zM188 155h25l22 -116h-17l-5 27h-24l-5 -27h-16zM191 79h20l-11 61zM71 39h-16v102h-20v14h56v-14h-20v-102zM216 -1v23h4v-23q0 -3 -1.5 -4.5t-3.5 -1.5h-18q-2 0 -3.5 1.5t-1.5 4.5v23h4v-23v-1h1h18q1 0 1 1zM388 22q2 0 3.5 -1.5
t1.5 -3.5v-18q0 -2 -1.5 -3.5t-3.5 -1.5h-18q-2 0 -3.5 1.5t-1.5 3.5v18q0 2 1.5 3.5t3.5 1.5h18zM389 -1v18h-1h-18h-1v-18q0 -1 1 -1h18h1v1zM127 22h28v-5h-12v-24h-4v24h-12v5zM157 102q0 -14 -13 -16l19 -47h-18l-18 47h-9v-47h-17v116h39q17 0 17 -16v-37zM140 104v32
q0 3 -1 4t-4 1h-17v-42h17q3 0 4 1t1 4zM86 22q2 0 3.5 -1.5t1.5 -3.5v-2h-4v2h-1h-18h-1v-6q0 -1 0.5 -1h0.5h18q2 0 3.5 -1.5t1.5 -3.5v-6q0 -3 -1.5 -4t-3.5 -1h-18q-2 0 -3.5 1t-1.5 4v1h4v-1q0 -1 0.5 -1h0.5h18h0.5t0.5 1v6h-1h-18q-2 0 -3.5 1.5t-1.5 4.5v6
q0 2 1.5 3.5t3.5 1.5h18zM361 873v-12h-39v100h15v-88h24zM528 873h28v-12h-43v100h42v-12h-27v-30h22v-12h-22v-34zM408 861q-15 0 -15 14v86h14v-83q0 -3 1 -4t4 -1h9q3 0 4 1t1 4v83h14v-86q0 -14 -15 -14h-17zM468 906q-14 0 -14 15v26q0 14 14 14h16q15 0 15 -14v-15
h-15v13q0 2 -1 3t-3 1h-7q-3 0 -4 -1t-1 -3v-23q0 -2 1 -3t4 -1h11q15 0 15 -14v-29q0 -14 -15 -14h-15q-15 0 -15 14v15h14v-12q0 -3 1 -4t4 -1h7q3 0 3.5 1t0.5 4v24q0 3 -0.5 3.5t-3.5 0.5h-12zM3 873v-12h-43v100h42v-12h-28v-30h23v-12h-23v-34h29zM89 906
q-14 0 -14 15v26q0 14 15 14h15q15 0 15 -14v-15h-15v13q0 2 -1 3t-3 1h-7q-3 0 -4 -1t-1 -3v-23q0 -2 1 -3t4 -1h11q15 0 15 -14v-29q0 -14 -15 -14h-15q-15 0 -15 14v15h14v-12q0 -3 1 -4t4 -1h7q3 0 3.5 1t0.5 4v24q0 3 -0.5 3.5t-3.5 0.5h-12zM273 884l-4 -22h-14l18 99
h20l19 -99h-14l-4 22h-21zM283 948l-8 -52h17zM-86 900v-38h-14v99h32q15 0 15 -14v-33q0 -14 -15 -14h-18zM-86 949v-38h14q3 0 4 1t1 4v29q0 2 -1 3t-4 1h-14zM36 902h-7v-40h-15v99h33q14 0 14 -14v-31q0 -12 -10 -14l16 -41h-16zM28 949v-36h14q3 0 4 1t1 4v27q0 2 -1 3
t-4 1h-14zM148 862q-15 0 -15 13v72q0 14 15 14h18q15 0 15 -14v-72q0 -13 -15 -13h-18zM148 945v-67q0 -3 1 -4t3 -1h10q2 0 3 1t1 4v67q0 2 -1 3t-3 1h-10q-2 0 -3 -1t-1 -3zM210 933v-71h-14v99h15l21 -70v70h13v-99h-15z" />
    <glyph glyph-name="question" unicode="?" horiz-adv-x="627" 
d="M60 841h577q16 0 27.5 -11.5t11.5 -27.5v-577q0 -8 -3 -15.5t-8.5 -12.5t-12.5 -8.5t-15 -3.5h-577q-17 0 -28.5 12t-11.5 28v577q0 16 11.5 27.5t28.5 11.5zM371 662h-141q60 57 143.5 56t142.5 -60l14 14t15.5 16t13.5 14q-78 78 -188 78q-45 0 -86.5 -14.5t-75.5 -41
t-59 -62.5q-52 -77 -43.5 -173t76.5 -164q77 -76 186 -77.5t190 77.5q-4 5 -10.5 11t-11 11t-10.5 11l-11 11q-46 -46 -109.5 -57t-122.5 16v65q39 -28 87 -28q62 0 105.5 43.5t43.5 105t-43.5 105t-105.5 43.5zM223 372q-44 46 -54 108.5t17 119.5h185q28 0 50 -15.5
t31 -38t5 -48.5t-24 -46q-16 -16 -36.5 -22t-40 -2t-36 14.5t-26.5 29.5t-10 41h-61v-141zM308 155h25l22 -116h-17l-5 27h-24l-5 -27h-16zM311 79h20l-11 61zM403 155q17 0 17 -16v-20h-17v17q0 4 -1 5t-4 1h-10q-3 0 -4 -1t-1 -5v-79q0 -3 1 -4t4 -1h10q3 0 4 1t1 4v18h17
v-20q0 -16 -17 -16h-20q-17 0 -17 16v84q0 16 17 16h20zM401 22q2 0 3.5 -1.5t1.5 -3.5v-18q0 -2 -1.5 -3.5t-3.5 -1.5h-24v28h24zM401 -1v18v0h-18h-1v-18v-1h1h18v1zM492 141v14h55v-14h-19v-102h-17v102h-19zM595 155q17 0 17 -16v-84q0 -16 -17 -16h-21q-17 0 -17 16v84
q0 16 17 16h21zM596 58v78q0 3 -1.5 4t-4.5 1h-11q-3 0 -4 -1t-1 -4v-78q0 -4 1 -5t4 -1h11q3 0 4.5 1t1.5 5zM336 -1v23h4v-23q0 -3 -1.5 -4.5t-3.5 -1.5h-18q-2 0 -3.5 1.5t-1.5 4.5v23h4v-23v-1h1h18q1 0 1 1zM487 52v-13h-50v116h49v-14h-33v-35h27v-14h-27v-40h34z
M277 102q0 -14 -13 -16l19 -47h-18l-18 47h-9v-47h-16v116h38q17 0 17 -16v-37zM260 104v32q0 3 -1 4t-4 1h-17v-42h17q3 0 4 1t1 4zM448 -6h-5v28h5v-28zM247 22h28v-5h-12v-24h-4v24h-12v5zM206 22q2 0 3.5 -1.5t1.5 -3.5v-2h-4v2h-1h-18h-1v-6q0 -1 0.5 -1h0.5h18
q2 0 3.5 -1.5t1.5 -3.5v-6q0 -2 -1.5 -3.5t-3.5 -1.5h-18q-2 0 -3.5 1.5t-1.5 3.5v1h4v-1q0 -1 0.5 -1h0.5h18h0.5t0.5 1v6h-1h-18q-2 0 -3.5 1.5t-1.5 4.5v6q0 2 1.5 3.5t3.5 1.5h18zM647 52h29v-13h-45v116h16v-103zM58 155q17 0 17 -16v-39q0 -16 -17 -16h-21v-45h-17
v116h38zM59 103v33q0 3 -1.5 4t-4.5 1h-16v-44h16q3 0 4.5 1t1.5 5zM191 39h-16v102h-20v14h56v-14h-20v-102zM508 22q2 0 3.5 -1.5t1.5 -3.5v-18q0 -3 -1.5 -4t-3.5 -1h-18q-2 0 -3.5 1t-1.5 4v18q0 2 1.5 3.5t3.5 1.5h18zM509 -1v18h-1h-18h-1v-18q0 -1 1 -1h18h1v1z
M128 58v97h17v-100q0 -16 -17 -16h-21q-17 0 -17 16v100h17v-97q0 -4 1 -5t4 -1h11q3 0 4 1t1 5zM528 861q-15 0 -15 14v86h14v-83q0 -3 1 -4t4 -1h9q3 0 4 1t1 4v83h14v-86q0 -14 -15 -14h-17zM676 873v-12h-43v100h42v-12h-27v-30h22v-12h-22v-34h28zM588 906
q-14 0 -14 15v26q0 14 15 14h15q15 0 15 -14v-15h-15v13q0 2 -1 3t-3 1h-7q-3 0 -4 -1t-1 -3v-23q0 -2 1 -3t4 -1h12q14 0 14 -14v-29q0 -14 -15 -14h-15q-15 0 -15 14v15h14v-12q0 -3 1 -4t4 -1h7q3 0 4 1t1 4v24q0 3 -1 3.5t-4 0.5h-12zM481 873v-12h-39v100h15v-88h24z
M123 873v-12h-43v100h42v-12h-28v-30h23v-12h-23v-34h29zM156 902h-7v-41h-15v100h33q14 0 14 -14v-31q0 -12 -10 -14l16 -41h-16zM149 949v-36h13q3 0 4 1t1 4v27q0 2 -1 3t-4 1h-13zM34 900v-39h-14v100h32q15 0 15 -14v-33q0 -14 -15 -14h-18zM34 949v-38h14q3 0 4 1t1 4
v29q0 2 -1 3t-4 1h-14zM393 884l-4 -23h-14l18 100h20l19 -100h-14l-4 23h-21zM403 948l-8 -52h17zM330 933v-72h-14v100h15l21 -70v70h13v-100h-14zM209 906q-14 0 -14 15v26q0 14 15 14h15q15 0 15 -14v-15h-15v13q0 2 -1 3t-3 1h-7q-3 0 -4 -1t-1 -3v-23q0 -2 1 -3t4 -1
h11q15 0 15 -14v-29q0 -14 -15 -14h-15q-15 0 -15 14v15h14v-12q0 -3 1 -4t4 -1h7q3 0 3.5 1t0.5 4v24q0 3 -0.5 3.5t-3.5 0.5h-12zM268 862q-15 0 -15 13v72q0 14 15 14h18q15 0 15 -14v-72q0 -13 -15 -13h-18zM268 945v-67q0 -3 1 -4t3 -1h10q2 0 3 1t1 4v67q0 2 -1 3
t-3 1h-10q-2 0 -3 -1t-1 -3z" />
    <glyph glyph-name="at" unicode="@" horiz-adv-x="778" 
d="M51 802q0 16 11.5 27.5t28.5 12.5h577q10 0 19.5 -5.5t14.5 -14.5t5 -20v-577q0 -8 -3 -15.5t-8.5 -12.5t-12.5 -8.5t-15 -3.5h-577q-17 0 -28.5 12t-11.5 28v577zM181 662q-52 -77 -43.5 -173t76.5 -164q77 -76 186 -77.5t190 77.5q-14 15 -43 44q-46 -46 -109.5 -57
t-122.5 16v65q39 -28 87 -28q62 0 105.5 43.5t43.5 105t-43.5 105t-105.5 43.5h-141q60 57 143.5 56t142.5 -60q14 15 43 44q-78 77 -188 77q-67 0 -125.5 -31.5t-95.5 -85.5zM254 513v-141q-44 46 -54 108.5t17 119.5h185q28 0 50 -15.5t31 -38t5 -48.5t-24 -46t-46.5 -24
t-48.5 5t-38 30.5t-16 49.5h-61zM237 22q2 0 3.5 -1.5t1.5 -3.5v-2h-4v2h-1h-18h-1v-6q0 -1 0.5 -1h0.5h18q2 0 3.5 -1.5t1.5 -3.5v-6q0 -2 -1.5 -3.5t-3.5 -1.5h-18q-2 0 -3.5 1.5t-1.5 3.5v1h4v-1q0 -1 0.5 -1h0.5h18h0.5t0.5 1v6h-1h-18q-2 0 -3.5 1.5t-1.5 4.5v6
q0 2 1.5 3.5t3.5 1.5h18zM222 39h-16v102h-20v14h56v-14h-20v-102zM159 58v97h17v-100q0 -16 -17 -16h-21q-17 0 -17 16v100h17v-97q0 -4 1 -5t4 -1h11q3 0 4 1t1 5zM89 155q17 0 17 -16v-39q0 -16 -17 -16h-21v-45h-17v116h38zM90 103v33q0 3 -1.5 4t-4.5 1h-16v-44h16
q3 0 4.5 1t1.5 5zM539 22q2 0 3.5 -1.5t1.5 -3.5v-18q0 -2 -1.5 -3.5t-3.5 -1.5h-18q-2 0 -3.5 1.5t-1.5 3.5v18q0 2 1.5 3.5t3.5 1.5h18zM540 -1v18h-1h-18h-1v-18q0 -1 1 -1h18h1v1zM523 141v14h55v-14h-19v-102h-17v102h-19zM479 -6h-5v28h5v-28zM278 22h28v-5h-12v-24
h-4v24h-12v5zM679 52h28v-13h-45v116h17v-103zM626 155q17 0 17 -16v-84q0 -16 -17 -16h-21q-17 0 -17 16v84q0 16 17 16h21zM627 58v78q0 3 -1.5 4t-4.5 1h-11q-3 0 -4 -1t-1 -4v-78q0 -4 1 -5t4 -1h11q3 0 4.5 1t1.5 5zM518 52v-13h-50v116h49v-14h-33v-35h27v-14h-27v-40
h34zM367 -1v23h4v-23q0 -3 -1.5 -4.5t-3.5 -1.5h-18q-2 0 -3.5 1.5t-1.5 4.5v23h4v-23v-1h1h18q1 0 1 1zM308 102q0 -14 -13 -16l19 -47h-18l-18 47h-9v-47h-16v116h38q17 0 17 -16v-37zM291 104v32q0 3 -1 4t-4 1h-17v-42h17q3 0 4 1t1 4zM434 155q17 0 17 -16v-20h-17v17
q0 4 -1 5t-4 1h-10q-3 0 -4 -1t-1 -5v-79q0 -3 1 -4t4 -1h10q3 0 4 1t1 4v18h17v-20q0 -16 -17 -16h-20q-17 0 -17 16v84q0 16 17 16h20zM339 155h25l22 -116h-17l-5 27h-24l-5 -27h-16zM342 79h20l-11 61zM432 22q2 0 3.5 -1.5t1.5 -3.5v-18q0 -3 -1.5 -4t-3.5 -1h-24v28
h24zM432 -1v18v0h-18h-1v-18v-1h1h18v1zM619 906q-14 0 -14 15v26q0 14 14 14h16q15 0 15 -14v-15h-15v13q0 2 -1 3t-3 1h-7q-3 0 -4 -1t-1 -3v-23q0 -2 1 -3t4 -1h11q15 0 15 -14v-29q0 -14 -15 -14h-15q-15 0 -15 14v15h14v-12q0 -3 1 -4t4 -1h7q3 0 3.5 1t0.5 4v24
q0 3 -0.5 3.5t-3.5 0.5h-12zM512 873v-12h-39v100h15v-88h24zM559 861q-15 0 -15 14v86h14v-83q0 -3 1 -4t4 -1h9q3 0 4 1t1 4v83h14v-86q0 -14 -15 -14h-17zM361 933v-72h-14v100h16l20 -70v70h13v-100h-14zM154 873v-12h-43v100h42v-12h-28v-30h23v-12h-23v-34h29zM65 900
v-39h-14v100h32q15 0 15 -14v-33q0 -14 -15 -14h-18zM65 949v-38h14q3 0 4 1t1 4v29q0 2 -1 3t-4 1h-14zM424 884l-4 -23h-14l18 100h20l19 -100h-14l-4 23h-21zM434 948l-8 -52h17zM679 873h28v-12h-43v100h42v-12h-27v-30h22v-12h-22v-34zM179 902v-41h-14v100h33
q14 0 14 -14v-31q0 -12 -10 -14l16 -41h-16l-15 41h-8zM179 949v-36h14q3 0 4 1t1 4v27q0 2 -1 3t-4 1h-14zM299 861q-15 0 -15 14v72q0 14 15 14h18q15 0 15 -14v-72q0 -14 -15 -14h-18zM299 945v-67q0 -3 1 -4t3 -1h10q2 0 3 1t1 4v67q0 2 -1 3t-3 1h-10q-2 0 -3 -1t-1 -3
zM240 906q-14 0 -14 15v26q0 14 14 14h16q15 0 15 -14v-15h-15v13q0 2 -1 3t-3 1h-7q-3 0 -4 -1t-1 -3v-23q0 -2 1 -3t4 -1h11q15 0 15 -14v-29q0 -14 -15 -14h-15q-15 0 -15 14v15h14v-12q0 -3 1 -4t4 -1h7q3 0 3.5 1t0.5 4v24q0 3 -0.5 3.5t-3.5 0.5h-12z" />
    <glyph glyph-name="A" unicode="A" horiz-adv-x="968" 
d="M571 382q117 69 337 168q398 179 452 122q6 -7 8 -16q2 -29 -60 -87.5t-261 -212.5q-156 -124 -225.5 -182.5t-88.5 -79.5t-35 -50l-5 -10q-18 -35 -60 -92.5t-90.5 -111.5t-93.5 -83.5t-65 -10.5q-10 9 -3 29.5t22 44t40 53t49.5 56.5t51 53.5t44.5 43.5t30 27
q53 45 66.5 65.5t18.5 63.5q2 25 0 37t-13 26q-12 18 -29.5 32.5t-36.5 24t-34 15.5t-29.5 11t-15.5 5l-40.5 -25t-105.5 -67t-138.5 -92t-153.5 -110t-137 -112q-20 -17 -31 -26t-20 -14t-12.5 -3t-6.5 9q-4 8 71 78.5t136 116.5q62 45 204.5 141.5t154.5 100.5q6 6 3 9
q-7 5 -80.5 -4.5t-112.5 -21.5q-45 -14 -152 -66q-52 -24 -52 -11v3q2 12 72 48.5t121 51.5q59 19 111 25t80 4.5t58.5 3t56.5 20.5zM627 -4q2 4 -8 -5q-60 -51 -133 -134q-41 -45 -55 -71q-7 -11 26 22q94 94 157 171q11 13 13 17zM738 151q2 2 19 17t22.5 19.5t27.5 23
t44 36.5t62.5 50t92.5 73q97 71 218.5 173t91.5 107q-53 7 -278.5 -83.5t-410.5 -193.5l-44 -26q1 -1 13.5 -5.5t31 -13.5t38 -21t37.5 -30t26 -38q9 -25 9 -88z" />
    <glyph glyph-name="B" unicode="B" horiz-adv-x="875" 
d="M-31 -129q-18 0 6 48.5t89 129.5t156.5 172.5t230 192t288.5 174.5q117 57 132 25q3 -7 3 -17q0 -18 -32 -50.5t-86 -72.5t-98.5 -71t-96.5 -65t-54 -35l56 -3q154 -11 169 -97q14 -78 -84 -178q-113 -117 -292 -182q-75 -27 -151 -39q-57 -9 -103 -12.5t-99.5 0t-99 23
t-78.5 54.5q-30 38 -24.5 70.5t26.5 55t29 14.5q8 -9 -11 -31q-31 -42 4 -79q49 -51 148 -68t205 4q175 34 331 140q130 87 158 166q26 70 -47 103q-22 11 -55 14.5t-61.5 3t-55 -1t-37.5 3.5t-6 15.5t35.5 35.5t90.5 63q207 137 252 186q20 21 16 22q-2 0 -10 -3
q-31 -10 -115.5 -57t-161.5 -99q-112 -72 -209 -156.5t-156.5 -152t-103.5 -125.5t-67.5 -89.5t-30.5 -31.5z" />
    <glyph glyph-name="C" unicode="C" horiz-adv-x="722" 
d="M971 554q0 -24 -16 -13q-9 6 -21 24q-42 61 -133.5 66.5t-198 -35t-214.5 -113.5q-125 -85 -223 -199t-121 -193q-9 -32 -10 -63.5t9 -59.5t26 -53t41 -42.5t52.5 -29.5t62.5 -14t70 5t75 27.5t78 52.5q19 16 33 12q17 -4 -18 -36q-50 -46 -104.5 -71t-103.5 -29t-94 9.5
t-79.5 41.5t-55.5 70t-25.5 92t13 111t57.5 123q59 93 160.5 179.5t211.5 146t223 86.5t193 7q50 -15 81 -43t31 -59z" />
    <glyph glyph-name="D" unicode="D" horiz-adv-x="971" 
d="M794 668q19 -9 39 -17q80 -32 128.5 -101t37.5 -138q-7 -59 -40.5 -117.5t-82 -106t-109.5 -89.5t-123 -72t-123 -50q-93 -31 -188.5 -49t-151 -22.5t-147.5 -8t-122 -5.5q-2 -1 -33.5 -21.5t-59.5 -36.5t-60.5 -27t-46.5 -2q-31 18 13 54q46 39 127 58q49 13 152 90
t201.5 164.5t222.5 205.5t176 169t100 100l5 5l-36 -3q-6 -1 -11.5 -1.5t-10.5 -1t-9 -1t-8.5 -1t-8 -0.5t-7.5 -0.5t-6.5 -1t-6.5 -0.5q-24 -4 -29.5 -3t-3.5 10q1 9 29 16t55 9.5t42 2.5q27 0 40 7t61 50q61 52 79 62t28 -1q8 -9 6 -13.5t-17 -17.5q-101 -90 -101 -95z
M114 -61q498 31 739 276q83 84 105 167t-21 146q-26 35 -71.5 66t-85.5 40q-15 4 -44 -20t-156 -149q-143 -139 -256.5 -241.5t-168.5 -145.5t-106 -82.5t-76 -61.5q-1 -1 2 -1.5t18 0t42.5 2t78.5 4.5z" />
    <glyph glyph-name="E" unicode="E" horiz-adv-x="752" 
d="M408 -116q77 33 78 30q9 -11 -36 -37q-19 -11 -47 -25q-65 -29 -126.5 -50.5t-107.5 -34.5t-89 -21.5t-70 -12t-52 -4.5t-33 -0.5t-15 0.5h-1q-30 4 -56 18.5t-40 34t-12 39.5q11 74 139 190q140 127 394 248q80 39 81 44q1 4 -14 4q-19 0 -47 11t-38 22q-41 46 82 140
q117 91 279 154q166 65 210 31l6 -6q13 -23 6 -44.5t-20.5 -37.5t-21.5 -16q-7 1 -6.5 8.5t10.5 43.5q5 17 1.5 24.5t-17 9t-37.5 -2.5q-87 -15 -194.5 -69t-192.5 -124q-19 -15 -31.5 -26.5t-22 -21.5t-13 -17t-3 -13.5t5.5 -11t15.5 -8.5t24.5 -7.5t34 -6.5
q31 -4 41.5 -10.5t8.5 -19.5q-1 -12 -28 -28.5t-75 -39t-104 -49.5t-128 -72t-134 -96q-61 -48 -110.5 -109t-53.5 -91q-7 -38 51 -52q104 -24 310 38q97 29 199 74z" />
    <glyph glyph-name="F" unicode="F" horiz-adv-x="697" 
d="M-176 -148q16 18 132.5 122t217.5 195.5t93 93.5q-11 0 -86 -11.5t-75 -14.5q-25 26 131 53q10 1 28 4q9 2 12 2q47 7 65 18.5t55 59.5q35 44 55.5 83t20.5 58q0 17 -8 25.5t-28.5 12t-58.5 1.5q-111 -4 -111 30q0 39 104 25q75 -8 216 7q47 5 73.5 8t45 5.5t31 7.5
t19 8.5t21.5 13.5q40 29 56 42q15 19 28 15q16 -5 -15 -41q-5 -6 -13.5 -12.5t-15.5 -10.5l-6 -4q130 14 263 34q248 36 259 36q8 0 11.5 -5.5t0.5 -11.5t-12 -10q-9 -3 -57.5 -12t-114.5 -20.5t-140.5 -24t-137.5 -23t-104.5 -17.5t-42.5 -7q-10 -1 -67 -48t-137 -117
t-93 -81l-27 -24q56 11 231 38q131 20 174.5 22.5t44.5 -9.5q0 -12 -36 -16q-454 -72 -476 -82q-10 -4 -123 -111q-16 -16 -140 -134t-191.5 -179.5t-74.5 -61.5q-9 0 -17 6q-15 22 20 62zM505 574l3 -39q3 -30 -4 -55t-12.5 -35t-2.5 -11q8 0 95 74l88 79q-2 2 -167 -13z
" />
    <glyph glyph-name="G" unicode="G" horiz-adv-x="710" 
d="M1038 684q26 -22 20 -59t-42 -68q-52 -45 -76 -43q-18 1 11 33q5 6 12 13q87 80 30 98q-58 18 -206 -32q-54 -19 -106 -43q-92 -42 -177.5 -93.5t-148.5 -98t-121 -99t-94 -90t-69 -78t-43.5 -56t-21.5 -31.5q-1 -3 -2 -3q5 4 17 12q533 367 609 267q20 -25 3 -76.5
t-63 -108.5q-34 -39 -111 -107t-125 -101q-83 -57 -182.5 -96.5t-155.5 -39.5q-47 0 -75 26t-22 66q3 18 1.5 19t-14.5 -10q-11 -9 -65 -69t-91 -104q-22 -21 -29 -8q-4 10 71.5 99.5t116.5 122.5q22 20 38 54q58 123 227.5 283t365.5 276q167 99 319 142t199 3zM96 -157
q97 31 196 94t167.5 129.5t109 126t32.5 87.5q-13 39 -140.5 -16t-267.5 -142.5t-207 -145.5q-23 -23 -36 -54.5t-7 -58t42.5 -35t110.5 14.5z" />
    <glyph glyph-name="H" unicode="H" horiz-adv-x="938" 
d="M383 312l52 -8q62 -12 193.5 -11.5t192.5 11.5l64 11q7 6 55.5 49t87.5 76t89 73.5t87.5 63t55.5 22.5q17 0 25 -17q7 -15 -9 -41.5t-44.5 -54t-63.5 -56t-64 -49t-48 -31.5q-35 -21 -70.5 -36t-64.5 -24.5t-31 -10.5q-8 -8 -315 -297.5t-309 -289.5q-3 0 -8 5t-5 9
q1 5 26 32t65.5 67t91.5 90t104 100.5t104.5 99.5t91 86t64.5 61l25 24l-17 -4q-202 -37 -458 13q-4 1 -5 1l-65 -54l-31 -24t-79 -62.5t-111 -88t-128 -100.5t-129 -100t-114.5 -87t-84 -61t-38.5 -22q-25 1 -3 25q18 18 78 65q3 2 34 27t66 54t86 71t99.5 82.5t99.5 84.5
t92.5 82t73 69.5t46 51t7.5 23.5q-8 7 -7 17t12 18q14 8 40 -5q1 -1 4 -2q30 -15 46 -7.5t81 68.5q47 43 80 73q57 51 125.5 115.5t111.5 105t63 55.5q7 5 14 6t10.5 -0.5t3.5 -3.5q3 -9 -38.5 -54.5t-111 -112t-143.5 -135t-152 -138.5zM270 262q9 8 19 17q22 16 9 17
q-6 0 -13.5 -8.5t-12 -17t-2.5 -8.5zM1019 372q41 18 98.5 63t95.5 82.5t34 41.5q-5 6 -64 -39t-131.5 -105.5t-78.5 -64.5z" />
    <glyph glyph-name="I" unicode="I" horiz-adv-x="314" 
d="M-396 -339q-9 11 2 29.5t49 58.5q47 50 118 118.5t146 138t154.5 141.5t149 134t124.5 111.5t85.5 77.5t27.5 28q-20 3 -28 19q-9 19 26 27l32 4q27 1 60 15.5t58 31.5t48 30.5t38 13t20 -21.5q1 -10 -35.5 -40.5t-81.5 -54.5q-45 -23 -258 -203t-429.5 -375.5
t-270.5 -257.5q-30 -31 -35 -25z" />
    <glyph glyph-name="J" unicode="J" horiz-adv-x="844" 
d="M487 -254q-25 -36 -62.5 -74t-49.5 -38q-29 0 16 44q47 37 83.5 103t49.5 131q14 78 -9 110q-7 10 -19.5 2.5t-76.5 -58.5q-31 -24 -58 -44.5t-71 -53t-83.5 -59.5t-89.5 -60t-94.5 -59t-92 -52t-89.5 -42.5t-80.5 -27.5t-70.5 -10.5t-55 12.5q-32 18 -34.5 59t20.5 92
t71 109.5t111 109.5q163 131 355.5 170t346.5 -31q528 443 487 503q-9 16 -85 7.5t-153 -34.5q-53 -18 -57 -10q-11 13 35 31q83 33 198 44q67 6 91 -5q99 -45 -242 -349q-51 -46 -146 -127q-75 -65 -96 -84v-1q6 -7 11 -16t12 -38t5 -61t-21 -84t-57 -109zM-355 -335
q-6 -31 -5 -41t10 -18q28 -31 100 -10t160.5 70t186.5 115.5t178 126t135.5 101.5t58.5 42q-60 34 -146.5 36.5t-178 -23t-179.5 -68.5t-161 -104t-113 -125q-25 -37 -32.5 -54t-13.5 -48z" />
    <glyph glyph-name="K" unicode="K" horiz-adv-x="1110" 
d="M1109 494q3 -8 -2.5 -14t-31.5 -15.5t-66.5 -20t-121.5 -30.5q-95 -22 -195.5 -56.5t-178.5 -68.5t-142.5 -66t-99.5 -52.5t-37 -25.5q-3 -3 16 -32t47.5 -65.5t52.5 -60.5q76 -81 159.5 -115.5t204.5 -34.5q114 0 178 46q37 23 40 10q1 -2 1 -5q0 -9 -36 -33t-65 -34
q-75 -26 -192.5 -14.5t-188.5 52.5q-52 30 -99 75.5t-73 81t-50 72.5t-28 41q-9 12 -129.5 -90.5t-239 -211t-119.5 -108.5q-2 0 -7.5 5.5t-5.5 8.5q0 18 108 121.5t214 197t114 98.5l40 29q-11 23 -32 63t-30.5 59t-21 43.5t-14.5 36t-1 15.5q5 8 38.5 9.5t165.5 2.5h27.5
t27.5 0.5t32 0.5h33h37q29 24 105.5 89t116 97.5t94.5 75t87.5 61t47.5 17.5q21 -3 22 -14q1 -8 -11 -10h-3q-15 -3 -118 -81.5t-196.5 -156.5t-88.5 -78q20 0 138.5 12t157.5 18q33 4 69.5 12t65 15t57 14.5t50 13t38.5 8t27 1t12 -8.5zM465 313q19 8 50.5 19.5t56 21
t46.5 17.5t28 11q-60 -2 -85.5 -3t-57 -4t-40.5 -5t-24.5 -9.5t-21.5 -13t-21 -19.5q-3 -2 -4.5 -4t-4 -4.5t-5.5 -4.5q-82 -68 -82 -73q0 -3 73 31q50 23 92 40zM200 203l93 80l91 83q-1 1 -73 4t-132 3.5t-65 -4.5q4 -5 21.5 -39t39.5 -77t25 -50z" />
    <glyph glyph-name="L" unicode="L" horiz-adv-x="809" 
d="M51 -111q-1 0 -19 -11t-43 -25t-56.5 -27t-59 -16t-49.5 8q-36 24 -19 68t68 68q15 6 32.5 9t33.5 2.5t30.5 -3t28 -6.5t22.5 -7.5t16.5 -6.5t8.5 -4q2 2 32.5 25t63 48t87.5 71t109.5 95t125.5 118t139 143q26 27 88.5 91t117.5 120t58 57q1 1 7.5 3.5t11.5 4t11 3
t9.5 0.5t3.5 -5q0 -1 -66 -73.5t-153.5 -165.5t-133.5 -140q-107 -107 -199.5 -192.5t-139.5 -123t-88 -68t-44 -33.5l27 -9q82 -27 213 -38.5t194 2.5q60 12 63 4q1 -3 -2 -10q-3 -10 -17 -18.5t-44.5 -14.5t-72.5 -8q-70 -4 -170 10t-170 37zM-44 -117q44 20 44 27.5
t-44 14.5q-48 8 -93 -29q-31 -25 -20 -38l2 -3q26 -12 111 28z" />
    <glyph glyph-name="M" unicode="M" horiz-adv-x="1036" 
d="M564 347q-4 -17 -4.5 -31.5t1 -21t3.5 -8.5q7 -10 186 98q289 175 395 227q174 84 189 35q12 -31 -76.5 -134.5t-229.5 -238.5t-288 -272.5t-270 -262.5t-156 -183q-14 -25 -28 -20q-12 5 -6 25q11 42 108.5 144.5t435.5 427.5q5 5 66 61.5t113 106t114.5 112
t102.5 109.5t46 67q5 19 -24 15q-80 -9 -303 -141q-74 -45 -154 -97q-126 -83 -160 -103.5t-52 -24.5q-15 -3 -25 -3t-16.5 5.5t-9.5 12t-3.5 18t0.5 21.5t3 24t4 25.5t4 25t2 23.5q2 60 -156 -37q-163 -100 -345 -263q-183 -165 -192 -227q-2 -12 4 -19q8 -8 8.5 -10.5
t-7.5 -4.5q-16 -6 -28.5 -0.5t-14.5 18.5q-8 35 57 114t166.5 167t208.5 168t196 125.5t117 30.5q16 -9 20 -30.5t-2 -73.5z" />
    <glyph glyph-name="N" unicode="N" horiz-adv-x="966" 
d="M60 98q-52 -45 -93 -84.5t-68.5 -69t-40 -43.5t-27 -32t-18.5 -19.5t-11 8.5q-7 11 11.5 44t64.5 78q123 128 287 259t343 243q142 88 177 44q16 -22 -9 -80.5t-113 -199.5q-113 -180 -153 -253.5t-31 -83.5t77.5 31.5t161.5 112.5q319 249 599 502q66 61 75 59
q5 -1 4 -14q-6 -31 -280 -270.5t-453 -372.5q-55 -42 -100 -64t-71 -22.5t-42 11.5q-20 22 5.5 83t114.5 203q56 89 91 148.5t58.5 101.5t30.5 62.5t2 24.5q-14 10 -118.5 -54.5t-240 -165.5t-233.5 -187z" />
    <glyph glyph-name="O" unicode="O" horiz-adv-x="783" 
d="M928 524q-19 -71 -84.5 -160.5t-154 -173.5t-195 -162t-206 -132.5t-187.5 -80t-139 -7.5q-28 8 -45.5 31t-16.5 49q-4 106 146 237q67 60 68 68q1 6 14.5 23t33 38t44.5 45.5t47 43.5q115 95 305 185q227 107 323 87q66 -13 47 -91zM81 110q-6 2 -42 -32.5t-57 -64.5
q-41 -53 -47 -97.5t22 -65.5q34 -27 125 -5q0 1 10 4t28.5 10t43.5 17.5t58 27t69.5 36t81.5 48t90 61.5q53 38 102.5 79t89 79.5t74 76.5t60.5 72t46 65.5t32 57t17.5 45.5t4 33t-10.5 18q-28 17 -116.5 -7t-191.5 -71t-207 -115.5t-160 -132.5q-15 -19 -14 -20q2 -5 45 15
q109 50 200.5 57.5t118.5 -31.5q13 -18 11 -34t-22 -46q-19 -27 -59 -63t-51 -36q-16 0 -5 17q7 9 20 17q19 15 46.5 45.5t36.5 48.5q18 45 -45.5 51.5t-115.5 -10.5q-44 -11 -109.5 -39.5t-103.5 -54.5q-22 -14 -28 -22t-9 -24q-1 -12 2.5 -31t9 -33t11.5 -14q8 0 6 -10
q-3 -20 -28 0q-31 26 -34 56q-1 17 -5 22z" />
    <glyph glyph-name="P" unicode="P" horiz-adv-x="957" 
d="M-174 -222q0 -6 -5 -8t-11 0.5t-8 9.5q-6 15 27.5 59.5t85 96.5t103.5 101.5t87 83.5t31 36q-43 30 -61.5 47.5t-27.5 35.5q-24 58 -3.5 109.5t50.5 86t39 34.5q18 0 3 -22q-3 -5 -13 -18q-53 -72 -59 -121q-3 -19 2.5 -37t15 -30.5t22.5 -24t24.5 -18.5t22.5 -13.5
t15 -9.5l69 56q204 165 460.5 298t368.5 133q33 0 43.5 -3t26.5 -19q12 -12 16.5 -18.5t5.5 -15.5t1 -33q0 -57 -36 -122t-99.5 -125t-150 -112.5t-186 -83.5t-208.5 -38t-218 24q-15 5 -39.5 10t-27.5 6q-8 2 -38.5 -22.5t-71 -62t-85.5 -82t-83 -84.5t-63 -69t-25 -35z
M1115 611q-28 37 -165.5 -10t-323 -152t-343.5 -228q-19 -14 -35.5 -27.5t-26 -21.5t-8.5 -9q4 -6 54 -16.5t69 -13.5q28 -5 118.5 -3t128.5 8q85 16 171 54t157 88.5t124.5 112t76.5 122.5q10 26 10.5 55.5t-7.5 40.5z" />
    <glyph glyph-name="Q" unicode="Q" horiz-adv-x="796" 
d="M710 687q129 53 250 57q42 0 72 -9.5t40 -25.5q12 -20 -6 -20q-12 0 -30 9q-31 15 -91 11t-126 -24q-241 -74 -505 -290q-202 -165 -310 -323q-101 -148 -54 -199q19 -22 66 -22q62 0 150 38q31 11 41.5 18t10.5 13q-18 112 2.5 192t90.5 177q133 185 316 274
q141 69 236 49q77 -16 77 -85q1 -100 -158 -259q-65 -64 -139.5 -125.5t-135.5 -103.5t-112.5 -75t-82.5 -52t-33 -23q-7 -12 27.5 -63t68.5 -79q33 -27 68.5 -45t65 -25t58 -10.5t50 -2.5t37.5 2t23.5 -1.5t6.5 -9.5q-4 -15 -78 -16.5t-124 11.5q-12 4 -27 10t-31 13.5
t-31 16t-28 17t-22 16.5q-14 11 -27.5 25t-24 27.5t-19.5 27t-15.5 25t-11 20.5t-7.5 14.5t-3 6.5l-12 -5t-33 -12t-45.5 -14.5t-56 -14.5t-58.5 -10q-104 -11 -125 62q-24 83 65 218q29 45 68 90q121 139 309 284.5t363 219.5zM889 487q12 49 2 62q-38 59 -161 21
q-132 -41 -263 -158q-162 -144 -203 -305q-19 -74 -7 -144l5 -30q1 1 15 6.5t35 17t64 38.5q66 42 142 98.5t156.5 125.5t140 141.5t74.5 126.5z" />
    <glyph glyph-name="R" unicode="R" horiz-adv-x="937" 
d="M-187 -171q-28 5 3 36q104 126 286 318l-11 24q-16 39 -13 74.5t25.5 60.5t54.5 25q13 0 27.5 -6.5t26 -15.5t21 -18.5t15.5 -16.5l6 -7q18 15 41 32.5t95 67.5t146 95t186.5 102t223.5 101l15 6q37 14 60.5 22t62.5 17.5t67.5 7t46.5 -17.5q17 -15 18.5 -44.5
t-11.5 -68.5t-40 -86.5t-64.5 -95.5t-88.5 -99t-109 -94q-76 -58 -228.5 -131t-219.5 -67q0 -11 50 -62.5t125.5 -119t156 -133t152.5 -111t103 -45.5q3 0 4.5 -2.5t1.5 -5.5t-0.5 -6.5t-2.5 -6.5t-5 -4q-5 0 -40 11q-95 35 -294 195t-278 251q-26 30 -35 37t-27 7
q-44 0 -84 9.5t-67.5 23.5t-47.5 27t-32.5 24t-13.5 12q-120 -127 -230 -253q-43 -48 -55 -59.5t-23 -9.5zM1174 709q-13 10 -30.5 9.5t-60.5 -12.5q-95 -23 -211.5 -75.5t-206.5 -103.5t-188 -114.5t-134 -89.5t-66 -48q-1 0 -1.5 -0.5l-0.5 -0.5l41 -60q22 -33 37 -53.5
t29.5 -35t22.5 -21t22.5 -9t23 -1.5t29.5 4q8 1 13 2q132 28 256 96t207 147.5t141 158t77.5 136t-0.5 71.5zM249 250l-19 -11q-47 -36 -78 -67l14 -16q39 -43 131 -62q57 -11 57 1q0 1 -1 2q-1 2 -104 153zM222 284q0 5 -24 24q-32 28 -59 17t-29 -51q-3 -18 4.5 -42.5
t14.5 -24.5t47 38q8 5 15.5 10.5t13 10t9.5 8.5t6 6.5t2 3.5z" />
    <glyph glyph-name="S" unicode="S" horiz-adv-x="558" 
d="M-210 -98q-73 -55 -56 -123q13 -53 67 -76q73 -30 147 22q44 30 79 88q29 53 49.5 130.5t30.5 146t28 155t42 149.5q23 62 63.5 116t90 93.5t108 68t117.5 41.5t118 11.5t110 -19.5q41 -12 59 -40t14.5 -58t-15.5 -58.5t-27.5 -47t-23.5 -18.5q-9 1 -7 8t6.5 20.5
t12.5 29.5t12 34.5t4 35.5t-11.5 32t-33.5 25q-38 18 -89 20t-104.5 -10t-110 -37.5t-105 -61t-88 -82.5t-61.5 -99q-29 -71 -46.5 -173t-34.5 -203t-45 -170q-66 -160 -178 -193q-82 -24 -150 27q-60 45 -61 111q-1 65 62 114q30 23 57.5 38.5t30.5 10.5q2 -2 2 -4.5
t-1.5 -5t-4 -5t-6.5 -5.5t-8 -6.5t-9.5 -7t-10.5 -7.5t-11.5 -8.5t-11.5 -8.5z" />
    <glyph glyph-name="T" unicode="T" horiz-adv-x="501" 
d="M88 1q-61 -50 -122.5 -98t-121.5 -90.5t-100 -62t-44 -5.5q0 7 61.5 58t179 143t150.5 119q86 66 280 225t202 169q11 13 7.5 36t-18.5 35q-12 9 -71 9t-134.5 -4t-149 -7.5t-123 0t-48.5 17.5q3 22 41.5 34.5t139.5 23.5q47 5 125.5 3.5t119.5 -6.5q41 -7 96.5 -8.5
t120 0.5t65.5 2q111 65 111 37q0 -5 -15 -17q-9 -6 8 -8q31 -3 269 0q76 2 126 2.5t89.5 0.5t61 -1.5t35.5 -4t18 -6t3 -9.5q0 -4 -18 -5.5t-59 -2t-91.5 -1t-132.5 -2.5t-165 -5q-152 -7 -181.5 -10.5t-51.5 -16.5q-25 -16 -90 -74t-106 -101q-26 -27 -101.5 -86.5
t-187 -144t-178.5 -138.5zM636 498q3 4 21.5 18.5t33 26.5t12.5 14t-43 -2.5t-43 -6.5z" />
    <glyph glyph-name="U" unicode="U" horiz-adv-x="669" 
d="M231 -88q-60 -44 -135 -86t-155 -66.5t-116 -2.5q-55 36 8.5 149.5t233.5 283.5q143 143 324.5 272t240.5 129q18 0 29 -8t7 -18q-1 -8 -34 -8q-42 0 -141.5 -65t-179.5 -129.5t-126 -107.5q-172 -160 -269.5 -286t-79.5 -169q6 -10 14 -13t30 -3q67 0 170 58t261 179
q177 138 439.5 372t273.5 265q3 9 20.5 17.5t20.5 3.5q15 -22 -158.5 -187.5t-378 -338.5t-299.5 -241z" />
    <glyph glyph-name="V" unicode="V" horiz-adv-x="512" 
d="M1011 709q0 -2 -3.5 -7.5t-9 -12.5t-15 -15t-20.5 -14q-132 -90 -296 -222t-302 -254t-259 -232t-196.5 -176.5t-86.5 -67.5q-15 0 -20 5q-34 38 306 594q117 194 159 252.5t57 51.5q13 -3 11 -20t-19 -31q-12 -12 -91.5 -138t-184 -306t-166.5 -305l-17 -34q3 2 7 5
q10 8 65 60q38 36 66 63q203 195 446 400t408 323.5t161 80.5z" />
    <glyph glyph-name="W" unicode="W" horiz-adv-x="1248" 
d="M1549 745q-11 9 5 19q21 13 36 -1q11 -12 6 -39q-29 -82 -127 -199.5t-226 -234t-265 -226t-256 -189t-187 -109.5q-187 -82 -248 -37q-75 58 50 230q39 54 39 57q0 4 -13 -4q-275 -160 -398 -148q-80 8 -62 90q22 99 176 261q100 106 233 207t249.5 167t212 106.5
t137.5 41.5q36 2 50 -17t-10 -37q-12 -6 -12.5 -3t-2 12.5t-8.5 12.5q-14 7 -73.5 -17t-133.5 -62.5t-148 -81.5q-242 -143 -439 -332q-165 -159 -183 -242q-12 -57 56 -57q93 0 256.5 84t260.5 168q236 197 248 136q1 -8 -30 -35t-80.5 -66.5t-103 -83.5t-105 -93.5
t-78.5 -87.5q-123 -177 -13 -172q74 4 224 80q115 59 260.5 167.5t273 226t234 228.5t160.5 188.5t35 91.5z" />
    <glyph glyph-name="X" unicode="X" horiz-adv-x="483" 
d="M232 -327q22 -7 12 -14q-15 -11 -47 3q-71 31 -84 149q-9 73 7 173q2 9 5 26q13 80 7 83q-4 2 -25 -15q-9 -8 -15 -12q-93 -72 -161 -132t-121.5 -119.5t-88 -104.5t-85.5 -118q-11 -20 -28 -20q-11 1 -7 14q14 52 71.5 129t130.5 151t147 141t129.5 109t70.5 45
q10 38 45.5 136.5t83.5 217.5t97.5 206t78.5 82q13 -1 16 -21q2 -14 -8 -14q-24 0 -86.5 -131.5t-109 -252t-70.5 -188.5q12 9 87.5 69t158 123.5t129.5 95.5q211 143 387 201q115 38 123 8q1 -5 -1 -10q-4 -15 -17 -11q-22 6 -123.5 -35.5t-201.5 -97.5q-101 -58 -188 -120
t-209.5 -160t-153.5 -122l-12 -61q-6 -28 -9 -44.5t-8.5 -49.5t-8 -55t-4 -54.5t0.5 -55t7 -48.5t15 -43.5t26 -32t37 -20.5z" />
    <glyph glyph-name="Y" unicode="Y" horiz-adv-x="687" 
d="M319 -52q-139 -114 -288.5 -210t-243.5 -130q-81 -30 -86.5 6t50.5 97q24 28 41 44.5t25.5 21.5t11.5 1q2 -4 -47 -62q-72 -85 -44 -88q30 -2 172 80q156 88 305 202.5t251.5 216.5t177.5 190.5t104 140.5t10 52q-17 0 -96 -58.5t-172 -133t-203.5 -153t-178.5 -109.5
q-45 -19 -72.5 -10.5t-31.5 33.5q-5 33 24 94t80 131.5t114.5 147t130.5 144.5t125.5 120t102 78t56.5 14q10 -8 9 -19t-16 -11q-45 0 -213 -173q-178 -184 -292 -349q-120 -172 -53 -170q9 0 21 4q37 11 124.5 72t184.5 136.5t191.5 147.5t161.5 112t78 22
q20 -29 -52 -137.5t-201 -248t-261 -246.5z" />
    <glyph glyph-name="Z" unicode="Z" horiz-adv-x="927" 
d="M-400 -278q0 28 101 63q79 25 396 199.5t603 348.5t281 198q-3 19 -223 -4.5t-418 -64.5q-65 -13 -99 -19.5t-56 -8.5t-27.5 0.5t-3.5 10.5q3 24 194 60.5t393.5 59.5t243.5 15q75 -15 19 -78q-18 -19 -46 -40q-91 -71 -414 -263t-617 -349q-17 -8 4 -6q19 2 74 12
q83 16 176.5 30t176 23.5t150.5 15t109 5.5t42 -7q2 -9 -10 -14t-42.5 -8t-73 -5.5t-111 -9.5t-146.5 -17.5t-188.5 -31.5t-227.5 -49q-43 -11 -88 -26t-73 -26t-52 -19t-35 -7t-12 12z" />
    <glyph glyph-name="bracketleft" unicode="[" horiz-adv-x="586" 
d="M-149 -101v2q0 13 43 48t303 232q278 210 492 373q14 -2 32.5 -3.5t29 -2.5t20.5 -3.5t13 -6.5t1 -10q-4 -12 -44 -12q-13 0 -21 -1t-18 -4t-23 -12t-30.5 -21.5t-47 -36t-65.5 -51.5t-92.5 -72.5t-122 -94t-161 -121t-202.5 -149.5q-14 -11 -22 -17t-16.5 -12.5
t-10.5 -10t-5 -7t1 -5t7.5 -3.5t13.5 -2.5t19.5 -1.5t25.5 -1q34 0 45.5 -2t11.5 -8q0 -13 -30.5 -17t-62.5 -2t-47 6q-22 6 -29.5 11.5t-7.5 17.5z" />
    <glyph glyph-name="backslash" unicode="\" horiz-adv-x="535" 
d="M49 465q9 -22 48.5 -101.5t80.5 -160.5t74 -149t33 -72q0 -8 -3.5 -11t-9.5 0t-11 11q-41 64 -152 281t-109 229q7 15 16 15q8 0 14 -7.5t19 -34.5z" />
    <glyph glyph-name="bracketright" unicode="]" horiz-adv-x="543" 
d="M-155 -104h1q16 -2 22.5 -2.5t19.5 3t18.5 6.5t25 16.5t33 25t48.5 39.5q11 9 17 14q48 40 272 215t295 245l61 61q-18 3 -45 6q-39 4 -41 11l1 10q4 12 54 10.5t61 -12.5q15 -17 -18.5 -59t-107.5 -105t-151 -124t-181.5 -142.5t-167.5 -134.5q-46 -38 -72.5 -58.5
t-48.5 -36t-36.5 -19.5t-26.5 -4t-27 6q-10 3 -24.5 7t-20.5 7.5t-6 9.5t7.5 6.5t37.5 -1.5z" />
    <glyph glyph-name="asciicircum" unicode="^" horiz-adv-x="856" 
d="M140 841h577q16 0 27.5 -11.5t11.5 -27.5v-577q0 -8 -3 -15.5t-8.5 -12.5t-12.5 -8.5t-15 -3.5h-577q-17 0 -28.5 12t-11.5 28v577q0 16 11.5 27.5t28.5 11.5zM451 662h-141q60 57 143.5 56t142.5 -60q15 15 43 44q-78 78 -188 78q-45 0 -86.5 -14.5t-75.5 -41t-59 -62.5
q-52 -77 -43.5 -173t76.5 -164q77 -76 186 -77.5t190 77.5q-14 14 -43 44q-46 -46 -109.5 -57t-122.5 16v65q39 -28 87 -28q62 0 105.5 43.5t43.5 105t-43.5 105t-105.5 43.5zM303 372q-44 46 -54 108.5t17 119.5h185q28 0 50 -15.5t31 -38t5 -48.5t-24 -46t-46.5 -24t-49 5
t-38 30.5t-15.5 49.5h-61v-141zM572 141v14h55v-14h-19v-102h-17v102h-19zM138 155q17 0 17 -16v-39q0 -16 -17 -16h-21v-45h-17v116h38zM139 103v33q0 3 -1.5 4t-4.5 1h-16v-44h16q3 0 4.5 1t1.5 5zM588 22q2 0 3.5 -1.5t1.5 -3.5v-18q0 -2 -1.5 -3.5t-3.5 -1.5h-18
q-2 0 -3.5 1.5t-1.5 3.5v18q0 2 1.5 3.5t3.5 1.5h18zM589 -1v18h-1h-18h-1v-18q0 -1 1 -1h18h1v1zM728 52h28v-13h-45v116h17v-103zM675 155q17 0 17 -16v-84q0 -16 -17 -16h-21q-17 0 -17 16v84q0 16 17 16h21zM676 58v78q0 3 -1.5 4t-4.5 1h-11q-3 0 -4 -1t-1 -4v-78
q0 -4 1 -5t4 -1h11q3 0 4.5 1t1.5 5zM481 22q2 0 3.5 -1.5t1.5 -3.5v-18q0 -2 -1.5 -3.5t-3.5 -1.5h-24v28h24zM481 -1v18v0h-18h-1v-18v-1h1h18v1zM357 102q0 -14 -13 -16l19 -47h-18l-18 47h-9v-47h-16v116h38q17 0 17 -16v-37zM340 104v32q0 3 -1 4t-4 1h-17v-42h17
q3 0 4 1t1 4zM567 52v-13h-50v116h49v-14h-33v-35h27v-14h-27v-40h34zM388 155h25l22 -116h-17l-5 27h-24l-5 -27h-16zM391 79h20l-11 61zM483 155q17 0 17 -16v-20h-17v17q0 4 -1 5t-4 1h-10q-3 0 -4 -1t-1 -5v-79q0 -3 1 -4t4 -1h10q3 0 4 1t1 4v18h17v-20q0 -16 -17 -16
h-20q-17 0 -17 16v84q0 16 17 16h20zM528 -6h-5v28h5v-28zM416 -1v23h4v-23q0 -3 -1.5 -4.5t-3.5 -1.5h-18q-2 0 -3.5 1.5t-1.5 4.5v23h4v-23v-1h1h18q1 0 1 1zM271 39h-16v102h-20v14h56v-14h-20v-102zM208 58v97h17v-100q0 -16 -17 -16h-21q-17 0 -17 16v100h17v-97
q0 -4 1 -5t4 -1h11q3 0 4 1t1 5zM286 22q2 0 3.5 -1.5t1.5 -3.5v-2h-4v2h-1h-18h-1v-6q0 -1 0.5 -1h0.5h18q2 0 3.5 -1.5t1.5 -3.5v-6q0 -3 -1.5 -4t-3.5 -1h-18q-2 0 -3.5 1t-1.5 4v1h4v-1q0 -1 0.5 -1h0.5h18h0.5t0.5 1v6h-1h-18q-2 0 -3.5 1.5t-1.5 4.5v6q0 2 1.5 3.5
t3.5 1.5h18zM327 17v5h28v-5h-12v-24h-4v24h-12zM668 906q-14 0 -14 15v26q0 14 15 14h15q15 0 15 -14v-15h-15v13q0 2 -1 3t-3 1h-7q-3 0 -4 -1t-1 -3v-23q0 -2 1 -3t4 -1h12q14 0 14 -14v-29q0 -14 -15 -14h-15q-15 0 -15 14v15h14v-12q0 -3 1 -4t4 -1h7q3 0 4 1t1 4v24
q0 3 -1 3.5t-4 0.5h-12zM608 861q-15 0 -15 14v86h14v-83q0 -3 1 -4t4 -1h9q3 0 4 1t1 4v83h14v-86q0 -14 -15 -14h-17zM561 873v-12h-39v100h15v-88h24zM756 873v-12h-43v100h42v-12h-27v-30h22v-12h-22v-34h28zM203 873v-12h-43v100h42v-12h-28v-30h23v-12h-23v-34h29z
M236 902h-7v-40h-15v99h33q14 0 14 -14v-31q0 -12 -10 -14l16 -41h-16zM229 949v-36h13q3 0 4 1t1 4v27q0 2 -1 3t-4 1h-13zM473 884l-4 -22h-14l18 99h20l19 -99h-14l-4 22h-21zM483 948l-8 -52h17zM289 906q-14 0 -14 15v26q0 14 15 14h15q15 0 15 -14v-15h-15v13
q0 2 -1 3t-3 1h-7q-3 0 -4 -1t-1 -3v-23q0 -2 1 -3t4 -1h11q15 0 15 -14v-29q0 -14 -15 -14h-15q-15 0 -15 14v15h14v-12q0 -3 1 -4t4 -1h7q3 0 3.5 1t0.5 4v24q0 3 -0.5 3.5t-3.5 0.5h-12zM114 900v-38h-14v99h32q15 0 15 -14v-33q0 -14 -15 -14h-18zM114 949v-38h14
q3 0 4 1t1 4v29q0 2 -1 3t-4 1h-14zM410 933v-71h-14v99h16l20 -70v70h13v-99h-14zM348 862q-15 0 -15 13v72q0 14 15 14h18q15 0 15 -14v-72q0 -13 -15 -13h-18zM348 945v-67q0 -3 1 -4t3 -1h10q2 0 3 1t1 4v67q0 2 -1 3t-3 1h-10q-2 0 -3 -1t-1 -3z" />
    <glyph glyph-name="underscore" unicode="_" horiz-adv-x="641" 
d="M370 11q0 -6 -5 -8.5t-25.5 -5t-57 -3.5t-105.5 -3q-98 -1 -132.5 0.5t-41.5 8.5q-11 15 21 21q42 7 202 3q144 -7 144 -13z" />
    <glyph glyph-name="a" unicode="a" horiz-adv-x="399" 
d="M-210 0q-11 0 -21 10q-28 27 24.5 76t141.5 86.5t154 35.5q29 0 50 -13t15 -27q-6 -12 -16 -15t-16 7q-7 8 -37 9.5t-64 -6.5q-56 -12 -161 -76q-64 -41 -59 -50q14 -4 126 48.5t120 52.5q27 0 3 -50q-19 -34 -15 -36q2 -1 12 -1q44 0 215 83q131 65 150 64q7 -1 7 -6
t-79.5 -52t-176 -89.5t-132.5 -34.5q-16 4 -26 19.5t-6 31.5q4 11 -1 10q-6 0 -63 -26q-105 -51 -145 -51z" />
    <glyph glyph-name="b" unicode="b" horiz-adv-x="467" 
d="M-200 5q-14 -10 -20.5 -10.5t-11.5 5.5q-7 5 -8 10t4 12.5t13 15t23 21.5q34 20 189 130t287 200t141 84q5 -3 5.5 -7t-3.5 -10t-13 -13.5t-23 -18.5q-107 -77 -246 -176t-140 -104q0 -4 30 7h1h1l2 1q76 26 122 32q22 2 37 -7t11 -25q-5 -11 3 -11l26 6q54 15 152 35
t102 15q9 -9 -17.5 -20.5t-78 -25.5t-109 -29t-120.5 -34t-102 -37q-195 -90 -228 -57q-3 4 -4.5 8.5t-2 7.5t-2 4.5t-6.5 -1t-14 -8.5zM11 85q148 44 139 56q-8 8 -169 -48q-90 -31 -81 -34q7 -2 111 26z" />
    <glyph glyph-name="c" unicode="c" horiz-adv-x="346" 
d="M92 76q-113 -41 -160 -50.5t-62 6.5q-16 23 -4.5 49t44 53t69 48t71.5 32.5t50 7.5q12 -4 16.5 -16.5t-2.5 -23.5q-6 -9 -18.5 -9.5t-17.5 6.5q-7 13 -73 -22.5t-94 -66.5l-25 -28q4 0 18 -0.5t34.5 3t96 27t196.5 67.5q49 17 73.5 25t39.5 11.5t18 2t3 -7.5
q0 -17 -273 -114z" />
    <glyph glyph-name="d" unicode="d" horiz-adv-x="430" 
d="M81 45q-9 11 -11 23.5t2.5 25.5t10 23.5t12 21.5t8.5 16q-14 -11 -38.5 -27t-60 -38t-70.5 -40t-70 -32.5t-59 -17t-37 8.5q-25 26 24 72t131 83.5t145 42.5q25 2 37 4.5t23.5 9t32.5 23.5q25 17 90 75.5t117 101.5t64 41q42 -10 -21 -68q-10 -10 -124 -103
q-76 -63 -112 -103q-31 -35 -52.5 -70.5t-14.5 -41.5q10 -11 91.5 22.5t160.5 69t84 29.5q5 -9 0 -14q-6 -9 -125 -68.5t-152 -69.5q-27 -8 -42.5 -11t-25 0t-18.5 11zM36 155q10 8 -2 6q-40 -6 -121 -49q-77 -40 -99 -66q-7 -8 0 -10q14 0 64.5 25.5t97.5 54t60 39.5z" />
    <glyph glyph-name="e" unicode="e" horiz-adv-x="397" 
d="M246 98q-139 -62 -217.5 -78t-103.5 11q-15 15 -15 37t12.5 45t32.5 44.5t48.5 38t57.5 22.5q39 6 53.5 -15t-9.5 -46q-18 -17 -63.5 -40t-71.5 -27q-24 -5 -29 -21q-3 -13 18 -18q81 -17 370 115l18 9q66 29 69 20q1 -2 -1 -9q-4 -15 -169 -88zM-15 137l-15 -13
q30 8 70 28q44 22 42 28q-2 9 -43 -8q-38 -15 -54 -35z" />
    <glyph glyph-name="f" unicode="f" horiz-adv-x="389" 
d="M51 89q2 -18 -9 -42.5t-30 -50t-45 -53t-55 -50.5t-58 -42t-55.5 -29t-47 -11.5t-32.5 11.5q-20 22 4 71.5t80 109.5t129 127t152.5 126t148.5 104t118.5 64t61.5 2q8 -14 4 -24.5t-29 -34.5q-50 -50 -179.5 -131.5t-159.5 -81.5q-9 0 -1 -7l3 -1q17 -11 126 5t180 40
q48 13 47 0l-3 -8q-6 -15 -128 -45t-178 -30h-45zM367 394q-1 1 -8.5 -2t-20.5 -9.5t-28.5 -14.5t-33 -18t-32.5 -21q-23 -14 -70 -47.5t-82 -60t-37 -28.5q-1 -3 23 8t59 31t64 39q38 25 77 52t65 48t24 23zM-102 52q-59 -57 -88.5 -91.5t-48.5 -68.5q-29 -53 4 -48
q41 5 127 77q101 85 119 144q9 28 -7 43q-17 16 -32 8t-74 -64z" />
    <glyph glyph-name="g" unicode="g" horiz-adv-x="364" 
d="M-30 37q86 81 86 83t-96 -46q-192 -98 -193 -56q0 28 78 85.5t170 99.5t126 29q40 -16 -21 -29q-77 -13 -227 -108q-83 -52 -80 -60q4 -10 168 82q90 53 112.5 63t34.5 2q7 -5 7.5 -11.5t-5 -16.5t-13 -19.5t-22 -24t-27.5 -27t-32 -31.5l-34 -34l59 27q60 26 141 66.5
t128.5 64.5t49.5 22q16 -14 -47 -51q-57 -34 -315 -160q-71 -35 -100 -53.5t-79 -61.5q-247 -213 -284 -169q-13 16 7 39.5t67 54.5t101 64.5t122 81.5t118 94z" />
    <glyph glyph-name="h" unicode="h" horiz-adv-x="448" 
d="M80 136q-74 -26 -145.5 -61.5t-107 -55.5t-39.5 -19q-13 3 -17 8.5t1.5 14.5t13 17t21.5 20q22 17 106.5 78t200.5 144t180 129q47 35 79.5 57t55 34t33.5 13.5t16 -4.5q1 -2 -21 -20t-59.5 -45.5t-85.5 -62t-98.5 -70.5t-99 -70.5t-86.5 -61.5t-61.5 -44.5t-23.5 -19
t42.5 16t96.5 36.5t77 19q13 0 23 -9t10 -20q0 -6 -7 -16.5t-29.5 -42.5t-43.5 -63l18 4q9 2 62 27.5t111.5 54.5t107.5 52.5t51 21.5q23 -11 -41 -47q-46 -26 -137 -68q-14 -7 -39 -19q-48 -23 -67.5 -32t-41 -17t-30 -7.5t-15.5 6.5q-15 13 -15 19q0 9 17 37.5t37 53.5
q24 29 12 30q-11 0 -62 -18z" />
    <glyph glyph-name="i" unicode="i" horiz-adv-x="351" 
d="M129 69q-80 -37 -121.5 -55t-70.5 -26t-39.5 -5t-19.5 16q-8 12 -7.5 18.5t9.5 24.5q17 41 82.5 112.5t86.5 71.5q6 0 16 -10q4 -8 3 -12t-11 -9q-36 -24 -91.5 -89t-55.5 -83q0 -12 88 22.5t271 117.5q90 39 97 37q5 -1 5 -8q0 -8 -44 -30.5t-198 -92.5zM129 320
q18 0 19 -12.5t-13 -24.5q-14 -14 -20.5 -15t-14.5 10q-14 14 -4 28t33 14z" />
    <glyph glyph-name="j" unicode="j" horiz-adv-x="350" 
d="M-196 -49q-22 -9 -50 -28t-54.5 -40t-57 -46t-57 -46.5t-53.5 -41.5t-47.5 -31t-38.5 -14.5t-27 7.5q-7 7 -8.5 15.5t3 18t12 19.5t21 21.5t27.5 22.5t34 23.5t37.5 23.5t41 24t42 23t42.5 23q129 70 285 222q68 67 81 72.5t13 -11.5q0 -14 -124 -135q-51 -52 -47 -52
q280 116 430 163q77 25 56 6q-5 -6 -110.5 -49t-245.5 -101t-205 -89zM144 323q3 -19 -27 -32t-38 -5q-6 6 -3.5 20.5t11.5 21.5q12 13 33 11t24 -16zM-485 -219q50 36 49 41q0 3 -33 -20q-38 -29 -36 -32t20 11z" />
    <glyph glyph-name="k" unicode="k" horiz-adv-x="491" 
d="M-116 43l-40 -24q-14 -8 -28.5 -17.5t-23 -15.5t-17 -11t-13.5 -7t-10 -1.5t-10 3.5q-12 11 86.5 90t252.5 193.5t207 158.5q37 34 50 22q3 -4 4 -10q0 -13 -174 -143q-38 -29 -97 -74q-89 -66 -90 -72q-1 -3 10 1q10 3 35 15q56 25 116 46.5t74 21.5q16 0 23 -9t1 -20
q-14 -24 -82.5 -58.5t-158.5 -60.5q-44 -14 -57 -19.5t-13 -13t8 -9t44 -1.5q38 0 108.5 20.5t142 48t138 54t109 39.5t42.5 4q0 -4 -30.5 -19.5t-100.5 -46t-164 -66.5q-120 -40 -185 -55.5t-101 -11.5t-48 31zM106 143q46 19 42 20q-9 2 -70 -23q-16 -7 -20 -11
q-5 -5 4 -3q8 3 44 17z" />
    <glyph glyph-name="l" unicode="l" horiz-adv-x="296" 
d="M291 192q43 21 43 0q0 -7 -62 -43.5t-140 -75t-150 -60.5t-93 0q-8 9 -9 22t6.5 28.5t17.5 31.5t29.5 35.5t35.5 36t41.5 38t42.5 36t43.5 35.5t40 31t35.5 26q6 5 9 7t7 5.5t7.5 6t5.5 4.5q144 112 160 108q6 -1 4 -12q-2 -8 -53.5 -50t-121.5 -97.5t-138.5 -111.5
t-109.5 -101t-29 -58q14 -13 126 33q26 10 50.5 21t51 24.5t45.5 23.5t52 27.5t53 28.5z" />
    <glyph glyph-name="m" unicode="m" horiz-adv-x="801" 
d="M22 107q-22 -11 -67.5 -37.5t-76 -41.5t-40.5 -12q-22 10 23 55q7 8 17 17q32 26 81.5 70t73.5 63t30 16q28 -9 -32 -64q-5 -4 -15 -13q-17 -15 -23 -22q8 3 28.5 11t39.5 15t39.5 13t38 5.5t26.5 -8.5q11 -12 10 -21.5t-18 -43.5q-17 -32 -14 -33q4 -2 74 25
q46 19 128 45.5t122 35.5q32 6 47 2.5t25 -18.5q3 -6 4 -13t-1 -16.5t-4 -16t-6 -17.5q-11 -23 -9 -36t29 -5q22 5 85.5 40t120.5 71l10 5q13 7 18.5 10t14.5 7t10 3t6 -1q12 -9 -32 -40q-15 -10 -38 -25q-5 -3 -24 -16t-29 -19.5t-30.5 -19.5t-34 -19.5t-32 -16t-32 -12.5
t-27.5 -5t-24.5 2t-17.5 13q-10 13 -10.5 19.5t7.5 34.5q3 6 5.5 14t4.5 14t3.5 11t2.5 6q4 10 -14 9q-48 -3 -307 -96q-35 -13 -48 -15.5t-24 1.5q-14 7 -13.5 22.5t18.5 49.5l16 38q-4 0 -51.5 -16.5t-63.5 -23.5z" />
    <glyph glyph-name="n" unicode="n" horiz-adv-x="563" 
d="M205 158q-5 13 -47 4t-107.5 -38.5t-114.5 -61.5q-55 -39 -56 -8q0 15 75 93q52 54 67 66t21 6q8 -8 8 -13.5t-4.5 -12t-20.5 -24.5q-16 -16 -26 -28l51 22q141 62 179 29q8 -8 7 -31.5t-9 -53.5q-17 -62 0 -62q34 0 216 91q34 18 66 33t50.5 22.5t19.5 6.5q3 -5 0.5 -10
t-18 -16t-43 -26.5t-75.5 -41.5q-133 -72 -181.5 -87.5t-70.5 7.5q-11 11 -11 29.5t6 35.5t12 37.5t6 31.5z" />
    <glyph glyph-name="o" unicode="o" horiz-adv-x="448" 
d="M97 96q-50 -32 -118.5 -59t-100.5 -11q-15 9 -17.5 26t9.5 33q14 22 57.5 55.5t89.5 59.5t67 27l36 4t26 3t16 1t13 -2.5t10 -8.5q9 -9 12 -18t-0.5 -17t-7.5 -14.5t-10 -13t-7 -8.5h18q11 0 33 3t47 8.5t53 11.5t53.5 11t46 8t33 2.5t12.5 -5.5q0 -9 -49 -26t-117.5 -31
t-116.5 -15q-38 -2 -51.5 -5.5t-36.5 -18.5zM102 166q24 -12 46 10q24 25 -1 26q-25 0 -44 -16q-12 -12 -1 -20zM62 168l-7 19q-1 0 -26 -17t-54 -37t-53.5 -40.5t-25.5 -28.5q0 -15 63 7l12 4q37 13 75 34t38 27q0 4 -3 6t-9 8t-10 18z" />
    <glyph glyph-name="p" unicode="p" horiz-adv-x="564" 
d="M-106 37q-9 0 -78.5 -46.5t-119.5 -84.5q-26 -21 -75 -61q-120 -99 -148 -109q-21 -8 -22 9q0 17 73 79.5t178 138.5q12 8 107 79q44 36 134 104.5t117 85.5q17 12 24.5 14t12.5 -2q12 -12 12 -15q0 -1 -8 -8t-23 -19t-31 -23q-77 -58 -78 -59q-3 -4 5 -2q11 3 65 23
q66 28 125 45t83 17q30 0 35 -17.5t-19 -40.5l-18 -20q44 8 131 30.5t143 34.5t61 5q4 -6 2.5 -8.5t-10.5 -7.5q-78 -31 -222 -63t-203 -52q-31 -11 -76 -31t-76.5 -30.5t-59.5 -10.5q-22 0 -32.5 7t-9 15.5t1.5 15.5t-1 7zM6 85q17 3 44.5 8t46.5 9t42.5 10.5t43 16.5
t35.5 24q34 27 -42 2q-95 -32 -164 -67q-7 -3 -6 -3z" />
    <glyph glyph-name="q" unicode="q" horiz-adv-x="339" 
d="M-142 -175q-34 -32 -65.5 -52t-53.5 -25.5t-34 4.5q-10 9 -3.5 27.5t21.5 40.5t39 48t48.5 51t51 49.5t47 42t35 30t15.5 14.5l-50 -27q-38 -18 -53 -22t-30 1q-28 11 16 64q40 48 109 94q94 60 161 66q27 4 39.5 -3t8.5 -24q0 -6 -8 -8t-32 -2q-51 0 -116.5 -38
t-111.5 -80l-29 -27l35 17q17 6 115 66q84 49 91 49q25 -5 -4 -40q-25 -32 -114 -113l-45 -40q5 1 25.5 3.5t42.5 9.5t84 41t152 93q98 63 106 63q4 0 7 -7q4 -10 -105 -85q-113 -81 -174.5 -113t-119.5 -39q-19 -5 -24 -8.5t-5 -11.5q0 -19 -20 -49t-52 -60zM-257 -210
q0 -8 38.5 17.5t75.5 63.5t33 61q-5 19 -103 -89q-44 -49 -44 -53z" />
    <glyph glyph-name="r" unicode="r" horiz-adv-x="443" 
d="M61 24q-8 9 -9 22t3 25.5t12 26.5t15.5 25l15 22t9.5 15q-4 6 -25.5 1t-49 -1.5t-31.5 22.5q-5 22 17 40q18 14 23 1q2 -5 0 -13q-3 -13 14 -14q5 0 64 9q34 5 43 -2q5 -3 7 -7t1.5 -8.5t-3 -9t-7 -11t-10 -12.5t-12 -14.5t-13 -17.5t-13.5 -20t-13 -23q-17 -30 -6 -33
t61 7q66 16 141 55.5t118.5 66t47.5 22.5q15 -15 -70 -69q-114 -74 -223 -105q-84 -25 -107 0z" />
    <glyph glyph-name="s" unicode="s" horiz-adv-x="369" 
d="M56 93q5 0 8 5.5t3 13.5q0 7 -13 16.5t-28 18.5t-24.5 22t-4.5 26q4 12 25.5 30t46 27t44.5 -1q26 -16 5 -40q-16 -18 -29 -15q-5 3 -6 9q0 21 -26 4l-11 -9l-5 -5q-9 -9 -7 -12.5t24 -18.5q3 -1 5 -2.5t4.5 -3.5t5.5 -3q11 -7 20 -18t14 -17t10 -5q4 2 63.5 21.5
t122.5 39.5t72 22h6t4 -1t2.5 -2.5t0.5 -4.5q0 -10 -1 -12.5t-20 -11.5t-63 -21q-41 -12 -71.5 -21.5t-52 -16t-37 -14t-24 -10.5t-16 -10.5l-8.5 -8.5t-6 -10.5t-6 -11.5q-19 -31 -62.5 -71.5t-90 -71t-88 -42.5t-56.5 12q-10 15 -2 34t39 52q41 40 103.5 77.5t129.5 60.5z
M-187 -118q2 0 4.5 1t6 2.5t8.5 3.5t11 4.5t15 6.5t19 9q35 17 65 38.5t48.5 39.5t32 34.5t19 25t5.5 10.5q-117 -52 -180 -109q-37 -32 -54 -66z" />
    <glyph glyph-name="t" unicode="t" horiz-adv-x="301" 
d="M160 315l52 38q-104 -4 -157.5 -5.5t-103 -2.5t-68 0.5t-19.5 4.5q2 9 16.5 14.5t51 7.5t72.5 2.5t111 1.5t136 3l38 24q122 79 128 58q1 -2 0 -4q0 -1 -7 -7t-20.5 -15t-27.5 -18l-54 -35q83 -5 189 -10q118 -5 123 -11q1 -2 -3 -9l-2 -2q0 -1 -1 -2q-3 -6 -17.5 -6.5
t-96.5 3.5q-124 4 -232 8l-77 -54q-78 -52 -196.5 -147t-88.5 -105q16 -4 56 6.5t89.5 31t94.5 40.5t86.5 39t51.5 23q41 19 47 11t-12 -19q-6 -5 -66 -34.5t-139 -65.5t-152 -55.5t-92 -2.5q-32 25 36 91q54 57 254 203z" />
    <glyph glyph-name="u" unicode="u" horiz-adv-x="457" 
d="M98 64q-64 -44 -100 -54t-55 11q-9 9 -11 16.5t-2 24.5q4 21 17.5 49t30 52.5t34 41t27.5 16.5q19 0 19 -5.5t-24 -33.5q-24 -27 -45.5 -66t-21.5 -57q0 -44 149 64q111 81 115 84q11 6 14 6q25 0 -8 -51q-5 -7 -16 -23q-42 -62 -42 -80q0 -34 121 38q40 23 89 57
q78 51 86 43q2 -2 2 -6q0 -12 -103.5 -82.5t-141.5 -84.5q-25 -8 -46.5 -9.5t-33 13.5t-4.5 45q6 23 0 22q-7 -2 -50 -31z" />
    <glyph glyph-name="v" unicode="v" horiz-adv-x="440" 
d="M239 96q-21 -2 -36.5 1.5t-21 6.5t-17.5 -1.5t-34 -20.5q-16 -12 -53 -32.5t-78.5 -35t-49.5 -1.5q-14 16 -7.5 50t22 68t33 60.5t25.5 27.5q16 2 17.5 -10.5t-12.5 -32.5q-12 -17 -34.5 -69t-22.5 -62q0 -12 41.5 5.5t85 49t47.5 55.5q6 26 36 48t50 13q12 -3 8.5 -20.5
t-21.5 -35.5q-9 -9 -13 -13.5t-5.5 -8t-0.5 -5t6 -3.5q27 -10 142 35q94 38 108 32q6 -2 5 -8q-25 -25 -101.5 -57.5t-118.5 -35.5z" />
    <glyph glyph-name="w" unicode="w" horiz-adv-x="559" 
d="M110 8q-12 4 -20 21t-4 30q1 4 -4 3q-6 -1 -30 -13q-85 -42 -113 -27q-18 9 -19 40q0 34 46 94t72 60q16 0 16 -9t-16 -23q-19 -14 -41 -42.5t-34 -54t-6 -31.5q10 -11 108 43q42 25 55 18.5t3 -55.5l-5 -25l8.5 1.5t20.5 5.5t28.5 11.5t40 23t47.5 36.5q19 17 23.5 25
t0.5 18q-13 28 18 53q27 22 45 11q9 -6 9 -22q0 -9 -2 -17t-3.5 -12t-2.5 -7.5t0 -5.5t6 -2q32 -7 64.5 -0.5t71.5 20.5t62 19q30 7 22 -7q-36 -35 -124.5 -56.5t-131.5 -4.5l-29 -31q-22 -22 -53 -44t-69 -37.5t-60 -6.5z" />
    <glyph glyph-name="x" unicode="x" horiz-adv-x="397" 
d="M113 23q-26 4 -45 16t-33 27t-16 17q-14 -12 -40 -35q-55 -49 -64 -46q-5 3 -5 11q0 17 96 104l-10 42q-15 53 2 66q12 9 22 -15q3 -9 5 -20q9 -39 13 -43q3 -2 42 23t79 48.5t47 16.5q3 -3 4 -6t-7 -10.5t-22 -17t-42 -27.5q-37 -25 -54 -37t-24 -21.5t-5 -13.5t9 -12
l5 -5q25 -27 57.5 -31t68.5 13.5t65 36.5t65.5 47t50.5 37q17 13 34 12q13 -1 -5 -19q-20 -21 -53.5 -47.5t-76 -54.5t-87 -44.5t-76.5 -11.5z" />
    <glyph glyph-name="y" unicode="y" horiz-adv-x="452" 
d="M109 -7q-22 -15 -80.5 -71t-113 -109t-109 -92t-77.5 -30q-11 4 -6.5 24.5t23.5 47.5q64 90 261 211q38 23 61 43.5t54 55.5q50 60 51 62q4 7 -3 5q-6 -2 -21 -11q-109 -63 -150 -66q-18 -3 -24.5 -1.5t-12.5 11.5q-18 27 2.5 73.5t54.5 74.5t50 12q7 -6 -18 -29
q-19 -16 -42.5 -57.5t-19.5 -49.5q7 -10 63 18t115.5 58.5t70.5 25.5q9 -5 10 -13t-8 -22t-18.5 -26.5t-29 -36.5t-32.5 -41q116 55 173.5 82t92 41.5t37.5 13t8 -3.5q5 -12 -76 -55.5t-177.5 -90.5t-108.5 -54zM-228 -259q0 -12 102 81q70 61 65 62q-9 1 -96 -72
q-71 -60 -71 -71z" />
    <glyph glyph-name="z" unicode="z" horiz-adv-x="348" 
d="M48 34q-19 -36 -106.5 -97.5t-175 -103.5t-106.5 -28q-8 6 -8.5 8.5t3.5 12.5q16 30 102 88.5t197 116.5q64 34 65 39q1 3 -10 3q-37 3 -39 23q0 8 59 37q37 18 54.5 30t23 19.5t8.5 9.5l-33 -5q-19 -3 -50 -13.5t-50.5 -15.5t-24.5 0q-16 16 40 40q72 29 126 31
q16 0 28.5 -12.5t8.5 -24.5q-2 -11 -26 -31.5t-57 -40.5q-31 -17 -19 -24q8 -8 59 13q27 10 95 37t101 39.5t39 12.5q27 0 9 -15q-8 -7 -19 -11q-75 -28 -180 -74t-114 -64zM-94 -48q72 47 65 47q-14 1 -138 -74q-79 -48 -101 -69q-6 -5 20 8q89 46 154 88z" />
    <glyph glyph-name="braceleft" unicode="{" horiz-adv-x="406" 
d="M153 513v-141q-44 46 -54 108.5t17 119.5h185q28 0 50 -15.5t31 -38t5 -48.5t-24 -46t-46.5 -24t-49 5t-38 30.5t-15.5 49.5h-61zM-50 802q0 16 11.5 27.5t28.5 12.5h577q16 0 27.5 -12t11.5 -28v-577q0 -8 -3 -15.5t-8.5 -12.5t-12.5 -8.5t-15 -3.5h-577q-8 0 -15.5 3.5
t-13 8.5t-8.5 12.5t-3 15.5v577zM80 662q-52 -77 -43.5 -173t76.5 -164q77 -76 186 -77.5t190 77.5q-14 15 -43 44q-46 -46 -109.5 -57t-122.5 16v65q39 -28 87 -28q62 0 105.5 43.5t43.5 105t-43.5 105t-105.5 43.5h-141q60 57 143.5 56t142.5 -60q15 15 43 44
q-78 77 -188 77q-45 0 -86.5 -14t-75.5 -40.5t-59 -62.5zM121 39h-16v102h-20v14h56v-14h-20v-102zM136 22q2 0 3.5 -1.5t1.5 -3.5v-2h-4v2h-1h-18h-1v-6q0 -1 0.5 -1h0.5h18q2 0 3.5 -1.5t1.5 -3.5v-6q0 -2 -1.5 -3.5t-3.5 -1.5h-18q-2 0 -3.5 1.5t-1.5 3.5v1h4v-1
q0 -1 0.5 -1h0.5h18h0.5t0.5 1v6h-1h-18q-2 0 -3.5 1.5t-1.5 4.5v6q0 2 1.5 3.5t3.5 1.5h18zM-12 155q17 0 17 -16v-39q0 -16 -17 -16h-21v-45h-17v116h38zM-11 103v33q0 3 -1.5 4t-4.5 1h-16v-44h16q3 0 4.5 1t1.5 5zM58 58v97h17v-100q0 -16 -17 -16h-21q-17 0 -17 16v100
h17v-97q0 -4 1 -5t4 -1h11q3 0 4 1t1 5zM378 -6h-5v28h5v-28zM417 52v-13h-50v116h49v-14h-33v-35h27v-14h-27v-40h34zM578 52h28v-13h-45v116h17v-103zM422 141v14h55v-14h-19v-102h-17v102h-19zM525 155q17 0 17 -16v-84q0 -16 -17 -16h-21q-17 0 -17 16v84q0 16 17 16h21
zM526 58v78q0 3 -1.5 4t-4.5 1h-11q-3 0 -4 -1t-1 -4v-78q0 -4 1 -5t4 -1h11q3 0 4.5 1t1.5 5zM438 22q2 0 3.5 -1.5t1.5 -3.5v-18q0 -2 -1.5 -3.5t-3.5 -1.5h-18q-2 0 -3.5 1.5t-1.5 3.5v18q0 2 1.5 3.5t3.5 1.5h18zM439 -1v18h-1h-18h-1v-18q0 -1 1 -1h18h1v1zM177 17v5
h28v-5h-12v-24h-4v24h-12zM331 22q2 0 3.5 -1.5t1.5 -3.5v-18q0 -2 -1.5 -3.5t-3.5 -1.5h-24v28h24zM331 -1v18v0h-18h-1v-18v-1h1h18v1zM238 155h25l22 -116h-17l-5 27h-24l-5 -27h-16zM241 79h20l-11 61zM266 -1v23h4v-23q0 -3 -1.5 -4.5t-3.5 -1.5h-18q-2 0 -3.5 1.5
t-1.5 4.5v23h4v-23v-1h1h18q1 0 1 1zM333 155q17 0 17 -16v-20h-17v17q0 4 -1 5t-4 1h-10q-3 0 -4 -1t-1 -5v-79q0 -3 1 -4t4 -1h10q3 0 4 1t1 4v18h17v-20q0 -16 -17 -16h-20q-17 0 -17 16v84q0 16 17 16h20zM207 102q0 -14 -13 -16l19 -47h-18l-18 47h-9v-47h-16v116h38
q17 0 17 -16v-37zM190 104v32q0 3 -1 4t-4 1h-17v-42h17q3 0 4 1t1 4zM411 873v-12h-39v100h15v-88h24zM458 861q-15 0 -15 14v86h14v-83q0 -3 1 -4t4 -1h9q3 0 4 1t1 4v83h14v-86q0 -14 -15 -14h-17zM518 906q-14 0 -14 15v26q0 14 14 14h16q15 0 15 -14v-15h-15v13
q0 2 -1 3t-3 1h-7q-3 0 -4 -1t-1 -3v-23q0 -2 1 -3t4 -1h11q15 0 15 -14v-29q0 -14 -15 -14h-15q-15 0 -15 14v15h14v-12q0 -3 1 -4t4 -1h7q3 0 3.5 1t0.5 4v24q0 3 -0.5 3.5t-3.5 0.5h-12zM578 873h28v-12h-43v100h42v-12h-27v-30h22v-12h-22v-34zM53 873v-12h-43v100h42
v-12h-28v-30h23v-12h-23v-34h29zM86 902h-7v-40h-15v99h33q14 0 14 -14v-31q0 -12 -10 -14l16 -41h-16zM79 949v-36h13q3 0 4 1t1 4v27q0 2 -1 3t-4 1h-13zM323 884l-4 -22h-14l18 99h20l19 -99h-14l-4 22h-21zM333 948l-8 -52h17zM139 906q-14 0 -14 15v26q0 14 15 14h15
q15 0 15 -14v-15h-15v13q0 2 -1 3t-3 1h-7q-3 0 -4 -1t-1 -3v-23q0 -2 1 -3t4 -1h11q15 0 15 -14v-29q0 -14 -15 -14h-15q-15 0 -15 14v15h14v-12q0 -3 1 -4t4 -1h7q3 0 3.5 1t0.5 4v24q0 3 -0.5 3.5t-3.5 0.5h-12zM-36 900v-38h-14v99h32q15 0 15 -14v-33q0 -14 -15 -14
h-18zM-36 949v-38h14q3 0 4 1t1 4v29q0 2 -1 3t-4 1h-14zM260 933v-71h-14v99h16l20 -70v70h13v-99h-14zM198 862q-15 0 -15 13v72q0 14 15 14h18q15 0 15 -14v-72q0 -13 -15 -13h-18zM198 945v-67q0 -3 1 -4t3 -1h10q2 0 3 1t1 4v67q0 2 -1 3t-3 1h-10q-2 0 -3 -1t-1 -3z
" />
    <glyph glyph-name="verticalbar" unicode="|" horiz-adv-x="389" 
d="M121 315q-13 -86 -28 -200q-14 -103 -18.5 -125.5t-13.5 -23.5q-6 0 -8.5 3t-2.5 13q0 45 27 262.5t36 233.5q3 14 10.5 14.5t12.5 -11.5q3 -18 0.5 -42t-13.5 -110q-2 -9 -2 -14z" />
    <glyph glyph-name="braceright" unicode="}" horiz-adv-x="406" 
d="M3 372q-44 46 -54 108.5t17 119.5h185q28 0 50 -15.5t31 -38t5 -48.5t-24 -46t-46.5 -24t-49 5t-38 30.5t-15.5 49.5h-61v-141zM-160 841h577q16 0 27.5 -11.5t11.5 -27.5v-577q0 -16 -11.5 -28t-27.5 -12h-577q-8 0 -15.5 3.5t-13 8.5t-8.5 12.5t-3 15.5v577
q0 16 11.5 27.5t28.5 11.5zM151 662h-141q60 57 143.5 56t142.5 -60q14 15 43 44q-78 78 -188 78q-45 0 -86.5 -14.5t-75.5 -41t-59 -62.5q-52 -77 -43.5 -173t76.5 -164q77 -76 186 -77.5t190 77.5q-14 15 -43 44q-46 -46 -109.5 -57t-122.5 16v65q39 -28 87 -28
q62 0 105.5 43.5t43.5 105t-43.5 105t-105.5 43.5zM183 155q17 0 17 -16v-20h-17v17q0 4 -1 5t-4 1h-10q-3 0 -4 -1t-1 -5v-79q0 -3 1 -4t4 -1h10q3 0 4 1t1 4v18h17v-20q0 -16 -17 -16h-20q-17 0 -17 16v84q0 16 17 16h20zM271 141v14h56v-14h-19v-102h-17v102h-20z
M-162 155q17 0 17 -16v-39q0 -16 -17 -16h-21v-45h-17v116h38zM-161 103v33q0 3 -1.5 4t-4.5 1h-16v-44h16q3 0 4.5 1t1.5 5zM375 155q17 0 17 -16v-84q0 -16 -17 -16h-21q-17 0 -17 16v84q0 16 17 16h21zM375 58v78q0 3 -1 4t-4 1h-11q-3 0 -4 -1t-1 -4v-78q0 -4 1 -5t4 -1
h11q3 0 4 1t1 5zM427 52h29v-13h-45v116h16v-103zM288 22q2 0 3.5 -1.5t1.5 -3.5v-18q0 -2 -1.5 -3.5t-3.5 -1.5h-18q-2 0 -3.5 1.5t-1.5 3.5v18q0 2 1.5 3.5t3.5 1.5h18zM289 -1v18h-1h-18h-1v-18q0 -1 1 -1h18h1v1zM57 102q0 -14 -13 -16l19 -47h-18l-18 47h-9v-47h-17
v116h39q17 0 17 -16v-37zM40 104v32q0 3 -1 4t-4 1h-17v-42h17q3 0 4 1t1 4zM267 52v-13h-50v116h49v-14h-33v-35h27v-14h-27v-40h34zM88 155h25l22 -116h-17l-5 27h-24l-5 -27h-16zM91 79h20l-11 61zM228 -6h-5v28h5v-28zM116 -1v23h4v-23q0 -3 -1.5 -4.5t-3.5 -1.5h-18
q-2 0 -3.5 1.5t-1.5 4.5v23h4v-23v-1h1h18q1 0 1 1zM-92 58v97h17v-100q0 -16 -17 -16h-21q-17 0 -17 16v100h17v-97q0 -4 1 -5t4 -1h11q3 0 4 1t1 5zM181 22q2 0 3.5 -1.5t1.5 -3.5v-18q0 -2 -1.5 -3.5t-3.5 -1.5h-24v28h24zM181 -1v18v0h-18h-1v-18v-1h1h18v1zM-14 22
q2 0 3.5 -1.5t1.5 -3.5v-2h-4v2h-1h-18h-1v-6q0 -1 0.5 -1h0.5h18q2 0 3.5 -1.5t1.5 -3.5v-6q0 -3 -1.5 -4t-3.5 -1h-18q-2 0 -3.5 1t-1.5 4v1h4v-1q0 -1 0.5 -1h0.5h18h0.5t0.5 1v6h-1h-18q-2 0 -3.5 1.5t-1.5 4.5v6q0 2 1.5 3.5t3.5 1.5h18zM27 17v5h28v-5h-12v-24h-4v24
h-12zM-29 39h-16v102h-20v14h56v-14h-20v-102zM261 873v-12h-39v100h15v-88h24zM368 906q-14 0 -14 15v26q0 14 14 14h16q15 0 15 -14v-15h-15v13q0 2 -1 3t-3 1h-7q-3 0 -4 -1t-1 -3v-23q0 -2 1 -3t4 -1h11q15 0 15 -14v-29q0 -14 -15 -14h-15q-15 0 -15 14v15h14v-12
q0 -3 1 -4t4 -1h7q3 0 3.5 1t0.5 4v24q0 3 -0.5 3.5t-3.5 0.5h-12zM456 873v-12h-43v100h42v-12h-27v-30h22v-12h-22v-34h28zM308 861q-15 0 -15 14v86h14v-83q0 -3 1 -4t4 -1h9q3 0 4 1t1 4v83h14v-86q0 -14 -15 -14h-17zM-97 873v-12h-43v100h42v-12h-28v-30h23v-12h-23
v-34h29zM-64 902h-7v-41h-15v100h33q14 0 14 -14v-31q0 -12 -10 -14l16 -41h-16zM-72 949v-36h14q3 0 4 1t1 4v27q0 2 -1 3t-4 1h-14zM-186 900v-38h-14v99h32q15 0 15 -14v-33q0 -14 -15 -14h-18zM-186 949v-38h14q3 0 4 1t1 4v29q0 2 -1 3t-4 1h-14zM173 884l-4 -23h-14
l18 100h20l19 -100h-14l-4 23h-21zM183 948l-8 -52h17zM110 933v-71h-14v99h15l21 -70v70h13v-99h-15zM-11 906q-14 0 -14 15v26q0 14 15 14h15q15 0 15 -14v-15h-15v13q0 2 -1 3t-3 1h-7q-3 0 -4 -1t-1 -3v-23q0 -2 1 -3t4 -1h11q15 0 15 -14v-29q0 -14 -15 -14h-15
q-15 0 -15 14v15h14v-12q0 -3 1 -4t4 -1h7q3 0 3.5 1t0.5 4v24q0 3 -0.5 3.5t-3.5 0.5h-12zM48 862q-15 0 -15 13v72q0 14 15 14h18q15 0 15 -14v-72q0 -13 -15 -13h-18zM48 945v-67q0 -3 1 -4t3 -1h10q2 0 3 1t1 4v67q0 2 -1 3t-3 1h-10q-2 0 -3 -1t-1 -3z" />
    <glyph glyph-name="asciitilde" unicode="~" horiz-adv-x="494" 
d="M292 155q-23 -9 -42 -6.5t-30.5 10t-31.5 7t-46 -13.5q-31 -19 -40 -8q-10 16 20 37.5t61 21.5q20 0 53 -14q26 -10 34 -10t22 8q9 4 17.5 9t12 7.5t7 4.5t6 1t6.5 -4q5 -5 -0.5 -14.5t-19 -19.5t-29.5 -16z" />
    <glyph glyph-name="nonbreakingspace" unicode="&#xa0;" horiz-adv-x="719" 
 />
    <glyph glyph-name="exclamdown" unicode="&#xa1;" horiz-adv-x="474" 
d="M0 11q0 3 8.5 11.5t33.5 29.5t53.5 44.5t86.5 72t115 96.5q38 31 92 76q65 54 76 62.5t15 4.5q1 -1 1 -2q2 0 4 -2.5t2 -4.5q0 -6 -198.5 -178t-243.5 -205q-32 -26 -43 -13q-2 3 -2 8zM559 442q-16 -18 -31.5 -8t-9.5 34q5 16 19.5 20t26.5 -6q11 -10 10 -17.5
t-15 -22.5z" />
    <glyph glyph-name="cent" unicode="&#xa2;" horiz-adv-x="452" 
d="M51 39q-26 -37 -44 -39q-7 -1 -7 8q0 6 27 37l27 35q-1 0 -5 5t-8 10.5t-8.5 15.5t-6 20.5t1 25.5t9.5 30q15 26 57 63t72 49q18 7 36.5 11.5t25.5 9t21 22.5q32 41 42 27q5 -10 -5 -29q-8 -15 -7.5 -19.5t10.5 -10.5q16 -10 13 -32q-3 -18 -18 -11q-3 2 -6 5
q-16 12 -28.5 5t-41.5 -45q-16 -22 -85 -108q-16 -19 -7 -20q4 0 17 2q31 5 31 -6q0 -12 -27 -20l-27 -3q-23 0 -31 -5t-28 -33zM190 270q-16 3 -72 -38q-36 -26 -51.5 -62t3.5 -50q1 -2 3 -4t4 -3l1 -1q1 0 30.5 39t57.5 78t24 41z" />
    <glyph glyph-name="sterling" unicode="&#xa3;" horiz-adv-x="778" 
d="M328 279l47 48q43 44 91 82.5t73 51.5q40 18 66 8.5t22 -43.5q-4 -32 -24 -37q-15 -4 -17 11q-1 5 1 13q9 27 -12 25q-40 -5 -128 -86q-69 -64 -69 -70t31.5 -4.5t61.5 3t41 -6.5q9 -12 -15 -16q-14 -2 -68 -4q-51 -2 -83 -4l-60 -56q-37 -35 -70.5 -61t-58 -42.5
t-28.5 -19.5q388 -4 388 -20q-1 -6 -111.5 -9.5t-234 -6t-140.5 -5.5q-22 -4 -28 0q-5 7 -3 16q2 11 32 20q30 7 93 47t113 83l56 49h-27q-70 1 -70 12q1 5 5 9q6 5 56.5 9t69.5 4z" />
    <glyph glyph-name="yen" unicode="&#xa5;" horiz-adv-x="490" 
d="M485 426q7 -9 4 -18q-1 -11 -47.5 -50.5t-92 -74t-49.5 -35.5l-22 -17h33q35 0 42 -12q0 -5 -3 -9q-7 -5 -53 -5q-28 0 -41 -2.5t-27 -11.5q-22 -15 -16 -17q1 -1 4 -1q6 -3 17 -4.5t22 -1.5t21.5 -0.5t16.5 -3t5 -6.5q-1 -9 -11.5 -10t-71.5 0q-27 1 -44 2l-60 -54
q-20 -17 -88 -83q-17 -16 -21 -9q-1 1 -3 4q-2 6 9 20.5t30 33t37 35t35 31.5t21 19l-32 3q-43 5 -40 14q4 11 61 10q22 0 35 2t17 4t13.5 10t16.5 13q-4 0 -14 0.5t-24.5 2t-25 4t-10.5 6.5q-2 9 9.5 11.5t52.5 5.5q7 1 11.5 1t12 1t15 1.5t15.5 0.5l125 103l-15 -7
t-37 -16.5t-46.5 -19t-48.5 -16t-39 -6.5q-13 0 -21.5 11.5t-5.5 25.5q4 27 53.5 95.5t63.5 68.5q27 0 -19 -67q-47 -70 -51 -79q-7 -15 3 -15q21 0 88 29.5t126 57t64 25.5z" />
    <glyph glyph-name="section" unicode="&#xa7;" horiz-adv-x="610" 
d="M-67 -66q0 -33 23 -45.5t58 -2.5t69 40q26 23 40.5 50t31.5 92q24 70 42 105t47 66q24 26 48.5 44t42 26t31.5 12t20.5 5.5t6.5 2.5q0 12 11.5 60.5t18.5 63.5q11 27 36 52t54 40t59.5 26t53.5 10t37 -8q10 -8 13 -17t3 -28q0 -54 -58 -110q-45 -43 -72 -38q-6 1 -9 6
q-1 4 -2 6t5 8t16.5 15t33.5 27q21 16 40.5 51t13.5 46q-7 14 -56.5 0.5t-85.5 -39.5q-28 -20 -43.5 -53t-22.5 -72t-15 -80t-28 -87t-53 -82q-27 -29 -51.5 -42.5t-38.5 -14t-32.5 1.5t-25.5 2l-11 -35q-12 -40 -30.5 -73t-40 -55.5t-44.5 -37.5t-45.5 -21t-43 -4.5
t-36.5 10.5q-42 22 -44 66t38 78q33 28 38 15q5 -10 -21 -36q-13 -15 -17.5 -24t-4.5 -22zM382 263q6 22 -1 22q-7 1 -38 -17q-44 -23 -81.5 -72t-39.5 -81q0 -29 51 -2q36 18 66 59t43 91z" />
    <glyph glyph-name="copyright" unicode="&#xa9;" horiz-adv-x="588" 
d="M500 466q41 -24 38 -73t-35.5 -107.5t-77.5 -112t-88 -87.5q-65 -48 -137 -72t-112 -8q-60 25 -27 121q35 99 138 196q106 101 218 130q21 4 35.5 10.5t18.5 8.5t10 1.5t19 -7.5zM262 105q-12 -8 -35.5 -8t-31.5 10q-9 13 -6.5 41t14.5 61q14 30 39 58t52 47.5t56 33
t51.5 13t37.5 -12.5q19 -19 10 -31q-9 -10 -27 1q-23 16 -74 -11t-93 -77.5t-42 -93.5q0 -11 4.5 -13t23.5 0q31 4 30 -7q0 -5 -9 -11zM481 412q-9 38 -142 -34q-60 -33 -90 -57q-76 -61 -128 -152.5t-30 -120.5q12 -13 55.5 -7t85.5 27q136 65 225 201q52 80 51 120
q0 16 -11 12q-12 -3 -16 11z" />
    <glyph glyph-name="guillemotleft" unicode="&#xab;" horiz-adv-x="609" 
d="M122 36q47 -47 21 -47q-5 0 -29 18.5t-48 44t-33.5 52.5t14.5 42q18 13 122.5 43.5t120.5 28.5q22 -3 22 -13q1 -6 -6.5 -10.5t-29.5 -10.5q-19 -5 -54.5 -15.5t-68.5 -21t-58 -19t-27 -9.5q-5 -2 2 -16.5t21.5 -33t30.5 -33.5zM151 119q14 13 150 48.5t149 29.5
q12 -6 8 -19.5t-18 -14.5q-15 -3 -126.5 -32t-128.5 -35q-10 -2 -11.5 -5.5t3.5 -13.5q2 -3 44 -53q42 -48 18 -48q-1 0 -9 6t-21 17.5t-24 23.5q-37 38 -44.5 59.5t10.5 36.5z" />
    <glyph glyph-name="softhyphen" unicode="&#xad;" 
 />
    <glyph glyph-name="registered" unicode="&#xae;" horiz-adv-x="545" 
d="M354 244q-1 -6 -41.5 -34.5t-62.5 -38.5q-25 -10 -63 -11.5t-57 9.5q-44 23 -23.5 89.5t96.5 142.5q49 52 83 64.5t96 2.5q37 -7 52 -26t10.5 -42.5t-18 -50t-30 -48.5t-29.5 -38.5t-13 -18.5zM346 444q-10 7 -52 -14q-47 -23 -92.5 -76.5t-59 -95t8.5 -55.5
q18 -6 51 -0.5t59 19.5q9 4 17 9.5t13 9t5 5.5q0 7 -30 16q-15 3 -27 8t-15.5 6t-9.5 -1.5t-19 -12.5q-40 -31 -41 -15q-1 11 11 21q8 6 33 36t51 61t37 39q9 8 13.5 7t20.5 -15q13 -11 16 -19t0 -18q-2 -11 -14.5 -26.5t-27 -29.5t-17.5 -17q34 -15 44.5 -13t38.5 37
q19 23 32 45t18.5 39.5t3.5 27.5q-2 12 -17 18.5t-29 1.5q-12 -7 -22 2zM261 318q18 7 33 27t5 15q-9 -5 -30 -23q-23 -25 -22 -26q1 0 14 7z" />
    <glyph glyph-name="degree" unicode="&#xb0;" horiz-adv-x="361" 
d="M180 475q12 0 19.5 -9t4.5 -22q-1 -10 -5.5 -13t-10.5 -2t-15.5 -3.5t-18.5 -17.5q-18 -22 -16 -30t26 -4q40 3 62 43q16 29 2 36q-2 1 -4 1q-11 0 -14.5 7.5t2.5 13.5q9 8 24.5 2t21.5 -20q9 -22 -5 -50t-39 -46t-53 -24.5t-48 13.5q-22 26 -8 54t39 49.5t36 21.5z" />
    <glyph glyph-name="guillemotright" unicode="&#xbb;" horiz-adv-x="588" 
d="M257 195q9 15 81 -24q16 -10 27 -17.5t15.5 -15t7 -12.5t-3 -11.5t-10 -10.5t-18.5 -11t-23 -11t-29 -12q-22 -9 -34 -14q-83 -39 -145 -75q-17 -9 -20.5 -9.5t-7.5 5.5l-1 1q-4 6 10 18t45.5 30t59 32.5t72.5 37l63 31.5q-10 6 -26 14.5t-27 14t-21.5 12.5t-14.5 14
t0 13zM-87 -27q-4 -4 -12 3q-5 11 21 25.5t132 59.5q137 56 145 64q2 2 -7 7q-8 5 -20 9q-52 20 -63.5 26t-8.5 14q2 20 61 3q63 -18 84 -47q11 -15 -1 -28q-6 -6 -84.5 -38t-160 -64t-86.5 -34z" />
    <glyph glyph-name="questiondown" unicode="&#xbf;" horiz-adv-x="682" 
d="M376 369q-22 23 10 46q33 25 70 16q11 -3 19 -9q65 -46 -137 -185q-24 -17 -205 -133q-97 -61 -96 -75q0 -2 1 -3q9 -4 35.5 -5t72 6t91.5 18t94.5 31t81.5 44q15 11 19 12t13 -7q7 -7 6 -11.5t-12 -14.5q-21 -23 -68.5 -45.5t-103 -37t-109.5 -23t-95.5 -5.5t-53.5 17
q-23 28 14.5 69.5t108 85t144.5 85.5t128 80t54 60q0 8 -12.5 11t-30.5 -1q-14 -1 -17 -4t-1 -11q4 -12 -4 -16.5t-17 5.5zM551.5 481q-1.5 -8 -3.5 -12t-7 -6t-16 -3q-18 -2 -20.5 0t-0.5 19q1 29 23 33q19 3 24 -16q2 -7 0.5 -15z" />
    <glyph glyph-name="Agrave" unicode="&#xc0;" horiz-adv-x="967" 
d="M570 382q117 69 337 168q398 179 452 122q6 -7 8 -16q2 -29 -60 -87.5t-261 -212.5q-156 -124 -225.5 -182.5t-88.5 -79.5t-35 -50l-5 -10q-14 -28 -44 -71t-68.5 -89t-76.5 -83t-71 -54t-49 -1q-15 16 10.5 60t73.5 96.5t86.5 90.5t63.5 60q53 45 66.5 65.5t18.5 63.5
q2 25 0 37t-13 26q-12 18 -29.5 32.5t-36.5 24t-34 15.5t-29 11t-16 5l-40.5 -25t-105.5 -67t-138.5 -92t-153.5 -110t-137 -112q-20 -17 -31 -26t-20 -14t-12.5 -3t-6.5 9q-4 8 71 78.5t136 116.5q37 27 119.5 83.5t157 106.5t82.5 52q6 6 3 9q-7 5 -80.5 -4.5
t-112.5 -21.5q-45 -14 -152 -66q-52 -24 -52 -11v3q1 6 22 19.5t50 28.5t63 30t58 22q59 19 111 25t80 4.5t58.5 3t56.5 20.5zM430 -214q-7 -11 26 22q92 92 156 170q11 14 14 18q2 4 -8 -5q-60 -51 -133 -134q-41 -45 -55 -71zM1005 370q150 110 253 204q77 71 56 76
q-53 7 -278 -83.5t-410 -193.5l-44 -26q1 -1 13.5 -5.5t31 -13.5t38 -21t37.5 -30t26 -39q9 -24 9 -87q2 1 19 16.5t22.5 20t27.5 23t44 36.5t62.5 50t92.5 73zM967 701q-47 20 -68.5 33.5t-18.5 21.5q6 9 80.5 -17.5t82.5 -35.5q6 -6 0 -17q-6 -8 -19 -5.5t-57 20.5z" />
    <glyph glyph-name="Aacute" unicode="&#xc1;" horiz-adv-x="968" 
d="M570 382q117 70 338 169q399 179 452 120q6 -6 7 -15q2 -29 -60.5 -87.5t-260.5 -212.5q-156 -124 -225.5 -182.5t-88.5 -79.5t-35 -50l-5 -10q-18 -35 -60 -92.5t-90.5 -111.5t-93.5 -83.5t-65 -10.5q-15 16 10.5 60t73.5 96.5t86.5 90.5t63.5 60q38 32 54 50t21.5 33
t9.5 46q2 25 0.5 37t-12.5 26q-12 18 -30 32.5t-37 24t-33.5 15.5t-29.5 11t-16 5l-40.5 -25t-105.5 -67t-138.5 -92t-153.5 -110t-137 -112q-20 -17 -31 -26t-20 -14t-12.5 -3t-6.5 9q-4 8 71 78.5t136 116.5q37 27 119.5 83.5t157 106.5t82.5 52q6 6 3 9q-7 5 -80.5 -4.5
t-112.5 -21.5q-45 -14 -152 -66q-51 -24 -52 -11v3q1 6 22 19.5t50 28.5t63 30t58 22q59 19 111 25t80 4.5t58.5 3t56.5 20.5zM431 -214q-7 -12 27 24q100 101 157 172l11 14q2 4 -8 -5q-59 -50 -132 -132q-41 -47 -55 -73zM1005 370q97 71 218.5 173t91.5 107
q-53 7 -278 -83.5t-411 -193.5l-44 -26q1 -1 13.5 -5.5t31 -13.5t38 -21t37.5 -30t26 -39q9 -24 9 -87q2 1 19 16.5t22.5 20t27.5 23t44 36.5t62.5 50t92.5 73zM1001 701q-41 -23 -54.5 -27.5t-19.5 3.5q-7 8 -3 17q9 10 79.5 45t76.5 26q3 -4 -5 -12.5t-26.5 -21.5
t-47.5 -30z" />
    <glyph glyph-name="Acircumflex" unicode="&#xc2;" horiz-adv-x="968" 
d="M571 382q113 67 332 166q396 179 455 126q8 -7 9 -18q3 -29 -59 -87t-262 -213q-155 -123 -225 -182t-88 -80t-34 -50q-4 -6 -6 -10q-18 -35 -60 -92t-90.5 -111.5t-93.5 -84t-65 -10.5q-11 9 -3.5 29.5t22.5 44t40 53.5t49.5 56.5t51 53t44.5 43.5t30 27
q53 45 66.5 65.5t17.5 63.5q2 25 0.5 37t-12 26.5t-25 27.5t-29 21.5t-30 16t-27 11.5t-22 7t-12.5 4l-40.5 -25t-105.5 -67t-138.5 -92t-153.5 -110t-137 -112q-21 -17 -32 -26t-20 -14t-12.5 -3t-6.5 9q-4 8 71 78.5t136 116.5q40 28 120.5 83.5t156 106t83.5 52.5
q5 7 2 9q-4 3 -39.5 0t-81 -10.5t-71.5 -15.5q-46 -14 -154 -66q-50 -24 -50 -11v3q1 8 35 28t79.5 41t77.5 31q59 19 111 25t80.5 4.5t59 3t56.5 20.5zM431 -214q-7 -12 26 22q93 93 155 169l14 19q2 4 -8 -5q-59 -50 -132 -132q-41 -47 -55 -73zM1006 370q35 26 84.5 64.5
t111 89.5t95.5 87t18 39q-52 7 -277.5 -83.5t-411.5 -193.5l-44 -26q1 -1 14 -5.5t31 -13.5t38 -21t37.5 -30t25.5 -39q9 -24 9 -87q5 4 15 13l15 13.5t17 14.5t23 19t30 25t41.5 34t55 43.5t72.5 56.5zM970 725q-50 -31 -58 -23q-16 17 48 54q35 22 58 23t38 -17
q19 -21 35.5 -51t13.5 -38q-6 -16 -22 3l-16 21q-7 12 -12 20t-11 14t-9 9.5t-9 5t-7.5 2t-9 -2.5t-10 -4.5t-13.5 -7.5t-16 -8z" />
    <glyph glyph-name="Atilde" unicode="&#xc3;" horiz-adv-x="968" 
d="M570 382q117 70 338 169q399 179 452 120q6 -6 7 -15q3 -29 -59 -87t-262 -213q-157 -124 -226 -182.5t-87.5 -79.5t-34.5 -51q-3 -5 -5 -9q-18 -36 -60.5 -92.5t-90.5 -111t-93.5 -84t-64.5 -10.5q-12 13 3.5 45.5t46 70t69 79t68 69.5t47.5 43q53 45 66.5 65.5
t17.5 63.5q2 25 0.5 37t-12.5 26q-12 18 -30 32.5t-37 24t-33.5 15.5t-29.5 11t-16 5l-40.5 -25t-105 -67t-138.5 -92t-154 -110t-137 -112q-20 -17 -31 -26t-20 -14t-12.5 -3t-6.5 9q-4 8 71 78.5t136 116.5q37 27 119.5 83.5t157 106.5t82.5 52q6 6 3 9q-4 3 -39.5 0
t-81 -10.5t-71.5 -15.5q-46 -14 -154 -66q-50 -24 -50 -11v3q2 12 72 48t120 52q59 19 111 25t80 4.5t58.5 3t56.5 20.5zM431 -214q-8 -12 28 24q101 102 156 171l11 15q2 4 -8 -5q-59 -50 -132 -132q-41 -47 -55 -73zM1006 370q35 26 84.5 64.5t111 89.5t95.5 87t18 39
q-52 7 -277.5 -83.5t-411.5 -193.5l-44 -26q1 -1 10 -4.5t22.5 -9t30.5 -15t32.5 -20.5t29.5 -26.5t21 -33.5q9 -24 9 -87q5 4 15 13l15 13.5t17 14.5t23 19t30 25t41.5 34t55 43.5t72.5 56.5zM871 677q-29 -18 -36 -8q-9 14 18 34t54 20q19 0 48 -13q24 -9 31 -9t20 6
q8 4 15 8.5t10.5 7t6.5 4t5 1t5 -2.5q8 -7 -6.5 -22t-35.5 -24q-21 -8 -38.5 -5.5t-27.5 9t-28 6.5t-41 -12z" />
    <glyph glyph-name="Adieresis" unicode="&#xc4;" horiz-adv-x="968" 
d="M570 382q117 70 338 169q399 179 452 120q6 -7 7 -15q3 -29 -59 -87t-262 -213q-157 -124 -226 -182.5t-87.5 -79.5t-34.5 -51q-3 -5 -5 -9q-18 -36 -60.5 -92.5t-90.5 -111t-93.5 -84t-64.5 -10.5q-12 13 3.5 45.5t46 70t69 79t68 69.5t47.5 43q53 45 66.5 65.5
t17.5 63.5q2 25 0.5 37t-12.5 26q-12 18 -30 32.5t-37 24t-33.5 15.5t-29.5 11t-16 5l-40.5 -25t-105 -67t-138.5 -92t-154 -110t-137 -112q-20 -17 -31 -26t-20 -14t-12.5 -3t-6.5 9q-4 8 71 78.5t136 116.5q37 27 119.5 83.5t157 106.5t82.5 52q6 6 3 9q-4 3 -39.5 0
t-81 -10.5t-71.5 -15.5q-46 -14 -154 -66q-50 -24 -50 -11v3q2 12 72 48t120 52q59 19 111 25t80 4.5t58.5 3t56.5 20.5zM431 -214q-8 -12 28 24q101 102 156 171l11 15q2 4 -8 -5q-59 -50 -132 -132q-41 -47 -55 -73zM1006 370q35 26 84.5 64.5t111 89.5t95.5 87t18 39
q-52 7 -277.5 -83.5t-411.5 -193.5l-44 -26q1 -1 13.5 -5.5t31 -13.5t38 -21t37.5 -30t26 -39q9 -24 9 -87q5 4 15 13l15 13.5t17 14.5t23 19t30 25t41.5 34t55 43.5t72.5 56.5zM1155 706q-26 -26 -42 -8q-16 16 0 42q16 25 34 16q8 -6 13 -15q8 -13 7 -17.5t-12 -17.5z
M1077 706q-25 -26 -42 -8q-16 16 0 42q16 25 34 16q8 -4 14 -15q7 -13 6 -17.5t-12 -17.5z" />
    <glyph glyph-name="Aring" unicode="&#xc5;" horiz-adv-x="968" 
d="M571 382q113 67 332 166q396 179 455 126q8 -7 9 -18q3 -29 -59 -87t-262 -213q-155 -123 -225 -182t-88 -80t-34 -50q-4 -6 -6 -10q-18 -35 -60 -92t-90.5 -111.5t-93.5 -84t-65 -10.5q-11 9 -3.5 29.5t22.5 44t40 53.5t49.5 56.5t51 53t44.5 43.5t30 27
q53 45 66.5 65.5t17.5 63.5q2 25 0.5 37t-12 26.5t-25 27.5t-29 21.5t-30 16t-27 11.5t-22 7t-12.5 4l-40.5 -25t-105.5 -67t-138.5 -92t-153.5 -110t-137 -112q-21 -17 -32 -26t-20 -14t-12.5 -3t-6.5 9q-4 8 71 78.5t136 116.5q40 28 120.5 83.5t156 106t83.5 52.5
q5 7 2 9q-4 3 -39.5 0t-81 -10.5t-71.5 -15.5q-46 -14 -154 -66q-50 -24 -50 -11v3q1 8 35 28t79.5 41t77.5 31q59 19 111 25t80.5 4.5t59 3t56.5 20.5zM431 -214q-7 -12 26 22q93 93 155 169q12 14 14 19q2 4 -8 -5q-59 -50 -132 -132q-41 -47 -55 -73zM1006 370
q35 26 84.5 64.5t111 89.5t95.5 87t18 39q-52 7 -277.5 -83.5t-411.5 -193.5l-44 -26q1 -1 14 -5.5t31 -13.5t38 -21t37.5 -30t25.5 -39q9 -24 9 -87q5 4 15 13l15 13.5t17 14.5t23 19t30 25t41.5 34t55 43.5t72.5 56.5zM1106 750q6 -16 -4 -35.5t-27.5 -32t-37 -17
t-33.5 9.5q-12 13 -8.5 28t14.5 28.5t23.5 22.5t17.5 9q9 0 14 -6.5t3 -15.5q0 -7 -3.5 -9t-8 -1.5t-11.5 -2.5t-13 -11q-12 -16 -10.5 -22t18.5 -4q30 3 44 33q10 22 -2 24q-7 0 -10 5.5t1 9.5q7 6 17.5 1.5t15.5 -14.5z" />
    <glyph glyph-name="AE" unicode="&#xc6;" horiz-adv-x="1469" 
d="M1610 659q14 -23 7 -44.5t-21 -37.5t-21 -16q-8 0 -6 11l11 41q6 24 -5.5 30t-48.5 1q-104 -18 -235 -90q-53 -48 -222 -181q1 -12 20 -19.5t59 -14.5q31 -4 42 -10.5t9 -19.5q-2 -12 -29 -28.5t-75 -39t-103.5 -49.5t-128 -72t-134.5 -96q-61 -48 -110.5 -108.5
t-53.5 -91.5q-6 -38 52 -51q104 -25 311 38q96 29 197 73q77 33 79 30q10 -11 -39 -39q-17 -10 -44 -24q-65 -28 -126.5 -49.5t-107.5 -34.5t-89.5 -21.5t-70.5 -12t-52 -4.5t-33 -0.5t-15 0.5q-27 4 -50.5 15.5t-38.5 28.5t-18 35q-103 -104 -137 -72q-15 16 10.5 60
t73.5 96.5t86.5 90.5t63.5 60q54 45 67 65.5t18 63.5q2 25 0.5 37t-12.5 26q-10 15 -25 28t-29 21.5t-30 16t-27 11t-22 7.5t-13 4l-40.5 -25t-105.5 -67t-138.5 -92t-153.5 -110t-137 -112q-20 -17 -31 -26t-20 -14t-12.5 -3t-6.5 9q-4 8 71 78.5t136 116.5
q62 45 204.5 141.5t154.5 100.5q6 6 3 9q-7 5 -80.5 -4.5t-112.5 -21.5q-45 -14 -152 -66q-51 -24 -52 -11v3q1 8 35 28t80 41t78 31q59 19 111 25t80 4.5t58.5 3t56.5 20.5q117 70 338 169q399 179 452 120q6 -6 7 -15q0 -18 -16 -40q62 27 115 42.5t92 17t52 -16.5z
M431 -214q-8 -12 28 24q101 102 156 171l11 15q2 4 -8 -5q-59 -50 -132 -132q-41 -47 -55 -73zM1119 307q-19 0 -47.5 11t-38.5 22l-2 4q-146 -116 -211.5 -171.5t-85.5 -77t-33 -47.5q131 106 361 216q70 34 71 39q1 4 -14 4zM1251 567q88 79 64 83q-53 7 -278 -83.5
t-411 -193.5l-44 -26q1 -1 8 -3.5t17.5 -7t24 -10.5t28 -15t27.5 -19.5t24 -24.5t17 -28q9 -25 9 -88q5 4 15 13l15 13.5t17 14.5t23 19t30 25t41.5 34t55 43.5t72.5 56.5q2 2 23 18q11 25 44.5 56.5t78.5 62t99 60.5z" />
    <glyph glyph-name="Ccedilla" unicode="&#xc7;" horiz-adv-x="723" 
d="M860 656q50 -15 81 -43t31 -59q0 -24 -16 -13q-10 7 -21 24q-42 61 -133.5 66.5t-198.5 -35t-214 -113.5q-126 -85 -224 -199t-120 -193q-9 -28 -10 -57t5.5 -54.5t20 -49t32 -42t42.5 -32.5t51.5 -21t59 -6.5t64 9t68 28t70.5 48.5q19 17 33 13q18 -5 -17 -37
q-112 -102 -235 -100v-6q-4 -12 -27.5 -37t-39.5 -33q-14 -8 -29 -8.5t-17 5.5q0 5 36 34t39 41q1 3 3 7q-50 7 -91 33t-67 68t-34 94t9 117.5t60 131.5q59 93 160.5 179.5t212 146t223.5 86.5t193 7z" />
    <glyph glyph-name="Egrave" unicode="&#xc8;" horiz-adv-x="751" 
d="M892 659q13 -23 6 -44.5t-20.5 -37.5t-21.5 -16q-7 1 -6.5 8.5t10.5 43.5q8 24 -4 30t-49 1q-87 -15 -194.5 -69t-192.5 -124q-25 -20 -40 -34t-22.5 -25.5t-7 -19t10 -14t26 -11t43.5 -8.5q31 -4 41.5 -10.5t8.5 -19.5q-1 -12 -28 -28.5t-75 -39t-104 -49.5t-128 -72
t-134 -96q-61 -48 -110.5 -109t-53.5 -91q-7 -38 52 -52q103 -24 311 39q96 29 197 73q77 33 78 30q3 -4 0.5 -9t-12.5 -12.5t-27.5 -17.5t-43.5 -24q-65 -28 -126.5 -49.5t-107.5 -34.5t-89 -21.5t-70 -12t-52 -4.5t-33 -0.5t-15 0.5h-1q-46 6 -78.5 34t-29.5 58
q11 74 139 190q141 127 395 249q80 38 81 43q-2 4 -14 4q-19 0 -47.5 11t-38.5 22q-41 46 82 140q117 91 279 154q166 65 210 31zM558 701q-46 20 -67.5 33.5t-18.5 21.5q5 9 80 -17.5t83 -35.5q5 -5 0 -17q-6 -8 -19 -5.5t-58 20.5z" />
    <glyph glyph-name="Eacute" unicode="&#xc9;" horiz-adv-x="750" 
d="M891 659q13 -23 6.5 -44.5t-20.5 -37.5t-22 -16t-6 11l11 41q7 24 -4.5 30t-48.5 1q-88 -15 -196 -69t-192 -124q-30 -24 -45.5 -39.5t-21.5 -28t2 -20t25.5 -13.5t49.5 -11q31 -4 42 -10.5t8 -19.5q-1 -12 -27.5 -28.5t-75 -39t-104 -49.5t-128 -72t-134.5 -96
q-61 -48 -110.5 -109t-53.5 -91q-6 -38 51 -51q103 -25 308 36q98 29 201 75q77 33 79 30q9 -11 -39 -39l-44 -24q-65 -28 -126.5 -49.5t-107.5 -34.5t-89.5 -21.5t-70.5 -12t-52 -4.5t-33 -0.5t-15 0.5h-1q-46 6 -78 34t-29 58q9 73 138 190q141 127 395 249q80 38 81 43
q-2 4 -14 4q-19 0 -47.5 11t-38.5 22q-43 49 88.5 146.5t293.5 157t195 15.5zM594 701q-41 -23 -54.5 -27.5t-19.5 3.5q-7 10 -2 17q8 9 78.5 44.5t76.5 26.5q2 -2 0 -6.5t-8 -10t-16 -12.5t-24 -16t-31 -19z" />
    <glyph glyph-name="Ecircumflex" unicode="&#xca;" horiz-adv-x="750" 
d="M891 659q13 -23 6 -44.5t-20.5 -37.5t-21.5 -16t-6 11l12 41q4 17 0.5 24.5t-17 9t-37.5 -2.5q-58 -10 -127.5 -38t-137 -68.5t-123.5 -86.5q-21 -18 -34.5 -30t-23 -23t-11 -18.5t1.5 -13.5t13.5 -11t25.5 -8.5t38 -7.5q16 -2 26 -4.5t16 -6t8 -8t1 -11.5
q-2 -12 -29 -28.5t-75 -39t-103.5 -49.5t-128 -72t-134.5 -96q-61 -48 -110.5 -109t-53.5 -91q-6 -38 52 -52q103 -24 311 39q96 29 197 73q77 33 79 30q10 -11 -39 -39l-44 -24q-65 -28 -126.5 -49.5t-107.5 -34.5t-89.5 -21.5t-70.5 -12t-52 -4.5t-33 -0.5t-15 0.5
q-47 6 -79.5 34t-28.5 58q9 73 138 190q141 127 395 249q80 38 81 43q0 4 -14 4q-8 0 -18 2t-20 5.5t-19.5 7.5t-17 8.5t-11.5 9.5q-43 49 88.5 146.5t294 157t194.5 15.5zM514 725q-51 -31 -59 -23q-16 17 48 54q36 22 58.5 23t37.5 -17q19 -21 35.5 -51t12.5 -38
q-5 -16 -21 3q-6 7 -16 21q-8 12 -12.5 20t-10.5 14t-8.5 9.5t-8.5 5l-8 2t-9 -2.5t-10 -4.5t-13.5 -7.5t-15.5 -8z" />
    <glyph glyph-name="Edieresis" unicode="&#xcb;" horiz-adv-x="751" 
d="M892 659q10 -16 8 -33.5t-10.5 -31.5t-18.5 -23.5t-15 -9.5q-8 0 -6 12q1 10 10 40q7 24 -4.5 30t-48.5 1q-87 -15 -194.5 -69t-192.5 -124q-30 -24 -45.5 -39.5t-22 -28t1.5 -20t25.5 -13.5t49.5 -11q31 -4 42 -10.5t9 -19.5q-1 -12 -28 -28.5t-75 -39t-104 -49.5
t-128 -72t-134 -96q-61 -48 -111 -108.5t-54 -91.5q-7 -43 63.5 -55t205.5 17t292 98q76 33 78 30q3 -4 0.5 -9t-12.5 -12.5t-27.5 -17.5t-43.5 -24q-65 -27 -126 -49t-106.5 -35t-89 -21.5t-70.5 -12t-52.5 -4.5t-33.5 -0.5t-16 0.5h-1q-45 6 -77.5 34t-29.5 58
q11 76 139 190q141 127 395 249q80 38 80 44q0 3 -14 3q-9 0 -22 3t-25.5 8t-23 10.5t-14.5 11.5q-43 49 88.5 146.5t293.5 157t195 15.5zM659 706q-26 -26 -43 -8q-16 15 0 41q15 26 34 17q8 -4 14 -15q7 -13 6.5 -18t-11.5 -17zM582 706q-26 -25 -44 -8q-15 15 0.5 41.5
t34.5 16.5q8 -4 14 -15q7 -13 6 -17.5t-11 -17.5z" />
    <glyph glyph-name="Igrave" unicode="&#xcc;" horiz-adv-x="314" 
d="M490 548q28 1 60.5 15.5t58 31.5t48 30.5t37.5 13t20 -21.5q1 -7 -15 -23t-44.5 -36t-58.5 -36q-44 -23 -256.5 -203t-429.5 -375.5t-271 -257.5q-29 -31 -34 -25q-10 11 1 29t49 59q47 50 118.5 118.5t146 138t154.5 141.5t149.5 134t124.5 111.5t85.5 77.5t27.5 28
q-21 2 -29 19q-9 19 26 27zM491 701q-42 -23 -55 -27.5t-20 3.5q-6 10 -2 17q8 9 79 44.5t77 26.5q4 -6 -16 -22.5t-63 -41.5z" />
    <glyph glyph-name="Iacute" unicode="&#xcd;" horiz-adv-x="314" 
d="M489 548q28 1 61 15.5t58 31.5t48 30.5t38 13t20 -21.5q2 -10 -35 -40.5t-83 -54.5q-44 -23 -256.5 -203t-429.5 -375.5t-272 -257.5q-11 -13 -21 -20.5t-12 -4.5q-4 6 -5 12.5t5.5 17t18 24.5t30.5 34q48 50 119 118.5t146 138t155 141.5t149.5 134t124.5 111.5
t85.5 77.5t27.5 28q-21 2 -29 19q-10 19 27 27q13 3 30 4zM533 701q-47 20 -68.5 33.5t-17.5 21.5q3 6 42 -5.5t77.5 -27t42.5 -20.5q7 -6 0 -17q-6 -8 -19 -5.5t-57 20.5z" />
    <glyph glyph-name="Icircumflex" unicode="&#xce;" horiz-adv-x="314" 
d="M490 548q28 1 60.5 15.5t58 31.5t48 30.5t37.5 13t20 -21.5q1 -7 -15 -23t-44.5 -36t-58.5 -36q-44 -23 -256.5 -203t-429.5 -375.5t-271 -257.5q-29 -31 -34 -25q-10 11 1 29t49 59q47 50 118.5 118.5t146 138t154.5 141.5t149.5 134t124.5 111.5t85.5 77.5t27.5 28
q-21 2 -29 19q-9 19 26 27zM487 725q-50 -30 -60 -23q-15 17 49 54q36 22 58.5 23t37.5 -17q19 -21 35.5 -51t12.5 -38q-5 -16 -21 3q-6 7 -16 21q-8 12 -13 20t-11 14t-8.5 9.5t-8.5 5t-7.5 2t-9 -2.5t-10 -4.5t-13 -7.5t-15.5 -8z" />
    <glyph glyph-name="Idieresis" unicode="&#xcf;" horiz-adv-x="314" 
d="M489 548q28 1 60.5 15.5t58 31.5t48 30.5t37.5 13t20 -21.5q2 -7 -14.5 -23t-44.5 -36t-58 -36q-33 -17 -172.5 -132.5t-298 -254.5t-302.5 -271t-185 -178q-11 -13 -21 -20.5t-12 -4.5q-4 6 -5 12.5t5.5 17t18 24.5t30.5 34q48 50 119 118.5t146 138t154.5 141.5
t149 134t124.5 111.5t85.5 77.5t27.5 28q-21 2 -29 19q-9 19 26 27q13 3 32 4zM486 706q-26 -26 -42 -8q-16 16 0 42q15 25 34 16q7 -4 13 -15q8 -13 7 -17.5t-12 -17.5zM564 706q-26 -26 -43 -8q-15 16 1 42q15 25 33 16q8 -4 14 -15q7 -13 6.5 -17.5t-11.5 -17.5z" />
    <glyph glyph-name="Ntilde" unicode="&#xd1;" horiz-adv-x="964" 
d="M616 53q322 251 601 504q66 59 74 57q4 -1 3 -14q-4 -20 -138 -143.5t-308 -269.5t-286 -230q-34 -26 -64 -44t-53 -27.5t-42 -13.5t-32.5 -1t-21.5 11q-20 22 5.5 82.5t115.5 203.5q111 181 151 255t29 82q-13 10 -117.5 -54.5t-240 -165.5t-233.5 -187
q-52 -46 -93.5 -85t-69 -68.5t-40 -44t-26.5 -32t-17.5 -19t-10.5 8.5q-6 7 -1 23t24.5 42t51.5 57q122 128 286.5 259t343.5 243q143 88 178 44q6 -9 6 -22.5t-6.5 -34t-22.5 -52t-40 -72.5t-59 -99q-77 -121 -119.5 -193t-57 -104.5t-7.5 -39.5q9 -10 76.5 31t160.5 113z
M807 677q-29 -18 -36 -8q-9 14 18 34t53 20q19 0 49 -13q23 -9 30 -9t19 6q9 4 16 8.5t10.5 7t7 4t5.5 1t5 -2.5q5 -5 0 -13.5t-17 -17.5t-27 -15q-20 -8 -37 -5.5t-27.5 9t-28.5 6.5t-40 -12z" />
    <glyph glyph-name="Ograve" unicode="&#xd2;" horiz-adv-x="782" 
d="M252 343q115 95 305 184q227 108 323 88q66 -13 47 -90q-19 -72 -84.5 -161.5t-154 -173.5t-194.5 -162t-205.5 -132.5t-188 -80t-139.5 -7.5q-27 8 -45 31t-17 49q-4 106 146 237q67 58 68 68q2 12 48 61.5t91 88.5zM462 49q68 49 129.5 102t106 100.5t82.5 94.5
t59.5 84t36 69.5t12.5 50t-11 25.5q-19 8 -54 5.5t-87 -19t-108.5 -39.5t-119 -55.5t-118 -66.5t-105.5 -74t-83 -77q-15 -19 -14 -20q2 -5 45 15q109 50 200.5 57.5t118.5 -31.5q13 -19 11 -34t-22 -46q-19 -27 -58.5 -63t-51.5 -36q-16 0 -5 17q7 9 20 17q20 15 47 45.5
t36 48.5q19 45 -45 51.5t-116 -10.5q-44 -11 -109 -39.5t-104 -54.5q-15 -10 -22 -16t-9.5 -12t-4.5 -18q-3 -19 5 -48.5t17 -29.5q8 0 6 -10q-3 -20 -28 0q-31 26 -34 56q-2 17 -5 22q-6 2 -41.5 -33t-57.5 -64q-41 -52 -47 -97t22 -66q34 -27 125 -5q0 1 10 4t28.5 10
t43 17.5t58 27t70 36t81.5 48t90 61.5zM713 686q-94 40 -86 55q4 9 78.5 -17.5t83.5 -34.5q6 -7 0 -18q-6 -8 -19 -5.5t-57 20.5z" />
    <glyph glyph-name="Oacute" unicode="&#xd3;" horiz-adv-x="781" 
d="M251 343q116 95 307 185q228 107 323 87q65 -14 45 -90q-19 -72 -84.5 -161.5t-154 -173.5t-194.5 -162t-205.5 -132.5t-188 -80t-139.5 -7.5q-27 8 -44.5 31t-16.5 49q-4 107 146 237q66 59 67 68q2 12 48 61.5t91 88.5zM461 49q54 38 103 79t88.5 79.5t74.5 76.5
t60.5 72t46 65.5t32.5 57t17.5 45.5t4 33t-10.5 18q-19 8 -54 5.5t-87 -19t-109 -39.5t-119 -55.5t-118 -66.5t-106 -74t-82 -77q-15 -19 -15 -20q1 -5 45 15q109 50 201 57.5t118 -31.5q14 -18 11.5 -34t-22.5 -46q-18 -26 -58 -62.5t-52 -36.5q-15 0 -5 15q7 11 21 19
q20 15 46.5 45.5t35.5 48.5q19 45 -44.5 51.5t-115.5 -10.5q-44 -11 -109 -39.5t-105 -54.5q-22 -13 -27.5 -21t-8.5 -25q-2 -12 1.5 -31t9.5 -33t11 -14q7 0 7 -10q-3 -19 -27 -1q-30 23 -34 52q-1 3 -1 5q-4 20 -5 22q-6 2 -42 -32.5t-57 -64.5q-41 -53 -47 -97.5
t22 -65.5q33 -27 124 -5q0 1 10 4t28.5 10t43.5 17.5t58.5 27t69.5 36t81 48t90 61.5zM763 693q-41 -23 -54.5 -27.5t-19.5 3.5q-7 9 -2 17q8 9 79 44.5t77 26.5q2 -3 0 -7t-8.5 -9.5t-16.5 -12.5t-23.5 -16t-31.5 -19z" />
    <glyph glyph-name="Ocircumflex" unicode="&#xd4;" horiz-adv-x="782" 
d="M252 343q115 95 305 184q227 108 323 88q66 -13 47 -90q-19 -72 -84.5 -161.5t-154 -173.5t-194.5 -162t-205.5 -132.5t-188 -80t-139.5 -7.5q-27 8 -45 31t-17 49q-4 106 146 237q67 58 68 68q2 12 48 61.5t91 88.5zM462 49q53 38 102.5 79t89 79.5t74 76.5t60.5 72
t46 65.5t32 57t18 45.5t4 33t-11 18q-28 17 -116.5 -7t-191.5 -71t-207 -115.5t-160 -132.5q-15 -19 -14 -20q2 -5 45 15q109 50 200.5 57.5t118.5 -31.5q13 -19 11 -34t-22 -46q-19 -27 -58.5 -63t-51.5 -36q-16 0 -5 17q7 9 20 17q20 15 47 45.5t36 48.5q19 45 -45 51.5
t-116 -10.5q-44 -11 -109 -39.5t-104 -54.5q-21 -13 -27 -21t-9 -25q-3 -19 5 -48.5t17 -29.5q8 0 6 -10q-3 -20 -28 0q-31 26 -34 56q-2 17 -5 22q-6 2 -41.5 -33t-57.5 -64q-41 -52 -47 -97t22 -66q34 -27 125 -5q0 1 10 4t28.5 10t43.5 17.5t58 27t69.5 36t81.5 48
t90 61.5zM646 693q-51 -29 -60 -21q-15 17 49 54q36 21 58 22t38 -17q12 -13 24 -32t19.5 -35t4.5 -21q-5 -17 -21 2q-6 8 -16 22l-13 19.5t-11 14t-8.5 10t-8.5 4.5t-7.5 2t-9 -2.5t-10 -4.5t-13 -7.5t-15.5 -9.5z" />
    <glyph glyph-name="Otilde" unicode="&#xd5;" horiz-adv-x="781" 
d="M251 343q116 95 307 185q228 107 323 87q65 -14 45 -90q-19 -72 -84.5 -161.5t-154 -173.5t-194.5 -162t-205.5 -132.5t-188 -80t-139.5 -7.5q-27 8 -44.5 31t-16.5 49q-4 107 146 237q66 59 67 68q2 12 48 61.5t91 88.5zM461 49q53 38 102.5 79t89 79.5t74.5 76.5
t60.5 72t46 65.5t32.5 57t17.5 45.5t4 33t-10.5 18q-29 17 -117.5 -7t-191.5 -71t-207 -115.5t-159 -132.5q-15 -19 -15 -20q1 -5 45 15q109 50 201 57.5t118 -31.5q14 -18 11.5 -34t-22.5 -46q-12 -17 -35 -40.5t-45.5 -41t-29.5 -17.5q-15 0 -5 15q6 10 21 19
q20 15 46.5 45.5t35.5 48.5q19 45 -44.5 51.5t-115.5 -10.5q-29 -7 -69 -22.5t-79.5 -35t-65.5 -36.5q-22 -13 -27.5 -21t-8.5 -25q-3 -19 5.5 -48.5t16.5 -29.5q7 0 7 -10q-3 -19 -27 -1q-30 23 -34 52q-1 3 -1 5q-4 20 -5 22q-6 2 -42 -32.5t-57 -64.5q-41 -53 -47 -97.5
t22 -65.5q33 -27 124 -5q0 1 10 4t28.5 10t43.5 17.5t58 27t69.5 36t81.5 48t90 61.5zM629 683q-29 -18 -37 -8q-9 14 18 34t54 20q19 0 49 -13q23 -9 30 -9t20 6q8 4 15 8.5t10.5 7t7 4t5.5 1t5 -2.5q7 -8 -7 -22t-36 -24q-21 -8 -38 -5.5t-27.5 9t-28.5 6.5t-40 -12z" />
    <glyph glyph-name="Odieresis" unicode="&#xd6;" horiz-adv-x="781" 
d="M251 343q116 95 307 185q228 107 323 87q65 -14 45 -90q-19 -72 -84.5 -161.5t-154 -173.5t-194.5 -162t-205.5 -132.5t-188 -80t-139.5 -7.5q-27 8 -44.5 31t-16.5 49q-4 107 146 237q67 61 67 68q3 12 49 62t90 88zM462 49q53 38 102.5 79t89 79.5t74 76.5t60.5 72
t46 65.5t32 57t17.5 45.5t4 33t-10.5 18q-29 17 -117.5 -7t-191 -71t-206.5 -115.5t-160 -132.5q-15 -19 -14 -20q3 -4 44 15q110 50 201.5 57.5t117.5 -31.5q14 -18 11.5 -34t-22.5 -46q-18 -26 -58 -62.5t-52 -36.5q-15 0 -5 15q7 10 21 19q20 15 46.5 45.5t35.5 48.5
q19 45 -44.5 51.5t-115.5 -10.5q-44 -11 -109 -39.5t-104 -54.5q-15 -10 -22 -16t-10 -12t-5 -18q-2 -19 6 -48.5t16 -29.5q9 0 7 -10q-3 -20 -28 0q-31 26 -34 56q-2 17 -5 22q-6 2 -42 -32.5t-57 -64.5q-41 -53 -47 -97.5t22 -65.5q34 -27 124 -5q0 1 6.5 3t18 6t27 10
t36.5 15t45 20.5t53 27t59.5 33t66 40.5t70.5 49zM770 699q-25 -25 -42 -8q-16 16 0 43q15 24 34 15q7 -4 13 -15q8 -14 7 -17.5t-12 -17.5zM692 699q-25 -25 -42 -8q-16 16 0 43q16 24 34 15q8 -4 13 -15q8 -14 7 -17.5t-12 -17.5z" />
    <glyph glyph-name="multiply" unicode="&#xd7;" horiz-adv-x="376" 
d="M68 106q-39 -31 -49.5 -36t-17.5 4q-2 3 1 8t12.5 14t21 18t31.5 26t38 33q-5 12 -11.5 25.5t-10.5 22t-8 17.5t-6.5 14.5t-3.5 10.5t-0.5 8.5t3.5 5.5q18 19 43 -35q3 -7 9 -22q8 -18 11 -26q11 9 24 20t22 18.5t20 16.5t18 14.5t15.5 11.5t14 9t11 5t9 2t6.5 -3
q10 -12 -6 -28t-109 -87q-9 -7 17 -51.5t20 -50.5q-9 -8 -24 10t-29 40t-19 22q-7 0 -53 -37z" />
    <glyph glyph-name="Oslash" unicode="&#xd8;" horiz-adv-x="940" 
d="M1089 695q9 -2 -71 -71l-27 -23q28 -22 15 -76q-19 -72 -84.5 -161.5t-154 -173.5t-194.5 -162t-205.5 -132.5t-188 -80t-139.5 -7.5q-13 4 -19 8q-11 -9 -25 -21t-21.5 -18.5t-15.5 -13.5t-12.5 -11t-5.5 -6q-11 -12 -19 -17.5t-13.5 -5t-8.5 6.5q-6 11 30 43q3 1 70 59
q-23 26 -22 56q-4 106 146 237q67 58 68 68q2 12 48 61.5t91 88.5q77 63 200 131.5t248.5 112t184.5 27.5q113 86 125 81zM281 249q-15 -19 -14 -20q2 -5 45 15q73 33 141 47.5t115 8.5q223 181 354 282q-66 0 -190.5 -49t-254.5 -128.5t-196 -155.5zM30 -145
q235 198 503 417q-41 -2 -86 -12q-44 -11 -109 -39.5t-104 -54.5q-15 -10 -22 -16t-9.5 -12t-3.5 -18q-4 -19 4 -48.5t17 -29.5q8 0 6 -10q-3 -20 -28 0q-31 26 -34 56q-1 17 -5 22q-3 1 -21 -14.5t-41 -39.5t-37 -43q-39 -50 -46.5 -92.5t16.5 -65.5zM541 49
q53 38 102 78.5t88.5 78.5t74 76t60 71.5t46 65t32.5 57t18 46t5 33.5t-10 19q-66 -55 -351 -284q17 -9 25 -20q13 -19 11 -34t-22 -46q-19 -27 -58.5 -63t-51.5 -36q-16 0 -4 17q6 9 19 17q20 15 47 45.5t36 48.5q16 38 -31 49q-251 -199 -525 -427q36 -13 108 4q0 1 10 4
t28.5 10t43.5 17.5t58 27t69.5 36t81.5 48t90 61.5z" />
    <glyph glyph-name="Ugrave" unicode="&#xd9;" horiz-adv-x="669" 
d="M1067 679q15 -22 -158.5 -187.5t-378 -338.5t-299.5 -241q-60 -44 -134.5 -86t-155 -66.5t-116.5 -1.5q-55 35 8.5 148.5t233.5 283.5q143 143 325 272t239 129q18 0 29.5 -8t8.5 -18q-3 -8 -35 -8q-42 0 -142 -65.5t-178.5 -129t-126.5 -107.5q-173 -160 -270 -286
t-78 -169q3 -5 5.5 -8t7.5 -5t11.5 -2.5t18.5 -0.5q67 0 169.5 58t261.5 179q177 137 439.5 371.5t273.5 265.5q1 6 11 12.5t18.5 8.5t11.5 0zM850 679q-95 39 -87 54q5 9 79 -17.5t84 -34.5q6 -7 0 -18q-6 -9 -19 -6t-57 22z" />
    <glyph glyph-name="Uacute" unicode="&#xda;" horiz-adv-x="669" 
d="M1067 679q15 -22 -158.5 -187.5t-378 -338.5t-299.5 -241q-60 -44 -134.5 -86t-155 -66.5t-116.5 -1.5q-55 35 8.5 148.5t233.5 283.5q93 93 211.5 187t217 154t136.5 60q17 0 28.5 -8t8.5 -18q-3 -8 -35 -8q-42 0 -141.5 -65t-179.5 -129.5t-126 -107.5
q-173 -160 -270 -286t-78 -169q5 -10 13 -13t30 -3q67 0 169.5 58t261.5 179q177 137 439.5 371.5t273.5 265.5q1 4 5.5 8t10 7t11 5t9.5 2.5t5 -1.5zM863 678q-42 -23 -55 -27.5t-19 3.5q-7 10 -3 18q8 9 79 44t77 27q9 -14 -79 -65z" />
    <glyph glyph-name="Ucircumflex" unicode="&#xdb;" horiz-adv-x="669" 
d="M1067 679q15 -22 -158.5 -187.5t-378 -338.5t-299.5 -241q-60 -44 -134.5 -86t-155 -66.5t-116.5 -1.5q-55 35 8.5 148.5t233.5 283.5q143 143 325 272t240 129q17 0 28.5 -8t8.5 -18q-3 -8 -35 -8q-42 0 -141.5 -65t-179.5 -129.5t-126 -107.5q-173 -160 -270 -286
t-78 -169q5 -10 13 -13t30 -3q67 0 169.5 58t261.5 179q177 137 439.5 371.5t273.5 265.5q1 4 5.5 8t10 7t11 5t9.5 2.5t5 -1.5zM713 701q-51 -29 -58 -21q-17 15 47 54q36 21 58.5 22t38.5 -17q19 -22 35.5 -51.5t12.5 -36.5q-5 -17 -21 2q-7 7 -17 21q-6 11 -11 18
t-9.5 13.5t-8.5 9.5t-7 6t-7.5 3h-7t-8.5 -3t-10 -4.5t-12.5 -7t-14.5 -8.5z" />
    <glyph glyph-name="Udieresis" unicode="&#xdc;" horiz-adv-x="669" 
d="M1067 679q15 -22 -158.5 -187.5t-378 -338.5t-299.5 -241q-60 -44 -134.5 -86t-155 -66.5t-116.5 -1.5q-55 35 8.5 148.5t233.5 283.5q143 143 325 272t241 129q17 0 28 -8t8 -18q-3 -8 -35 -8q-42 0 -142 -65.5t-178.5 -129t-126.5 -107.5q-173 -160 -270 -286t-78 -169
q5 -10 13 -13t30 -3q67 0 169.5 58t261.5 179q177 137 439.5 371.5t273.5 265.5q1 4 5.5 8t10 7t11 5t9.5 2.5t5 -1.5zM872 683q-25 -25 -43 -8q-15 16 0.5 42t34.5 15q7 -4 13 -15q8 -13 7 -17t-12 -17zM794 683q-25 -25 -42 -8q-16 16 0 43q15 24 34 14q7 -4 13 -15
q8 -13 7 -17t-12 -17z" />
    <glyph glyph-name="Yacute" unicode="&#xdd;" horiz-adv-x="755" 
d="M94 90q36 11 123.5 72t184.5 136.5t191 147.5t161.5 112t78.5 22q20 -29 -52 -137.5t-201 -248t-261 -246.5q-139 -114 -288.5 -210t-242.5 -130q-82 -30 -87.5 6t50.5 97q69 80 78 67q2 -4 -47 -62q-72 -85 -44 -88q31 -3 173 80q156 88 305 202.5t251.5 216t177 190.5
t104 141t10.5 52q-17 0 -96.5 -58.5t-172.5 -133t-204 -153t-178 -109.5q-45 -19 -72.5 -10.5t-30.5 33.5q-4 26 13 69t49.5 94.5t76 109.5t94 116t101.5 112.5t100 99.5t89.5 77t69.5 46t39 5q10 -8 9 -19t-16 -11q-45 0 -212 -173q-178 -184 -293 -349q-119 -172 -52 -170
q8 0 21 4zM904 832q5 -7 -15 -23t-65 -41q-41 -24 -54 -28.5t-19 3.5q-7 10 -2 18q7 9 78 44t77 27z" />
    <glyph glyph-name="germandbls" unicode="&#xdf;" horiz-adv-x="662" 
d="M1 10q-10 26 62.5 104.5t161.5 139.5q34 22 92.5 53t129.5 57.5t94 14.5q78 -44 -129 -141q1 -1 6.5 -3.5t12 -6t14 -9.5t11.5 -14.5t4 -19t-8 -25t-24 -30.5q-58 -61 -187 -61q-53 -3 -75 2.5t-32 21.5q-17 27 3 40q14 8 19 -2q1 -3 0 -9q-4 -16 22 -22q52 -14 141 9
q96 25 101 64q1 4 0 8q-2 13 -23 19.5t-41.5 12.5t-20.5 19q0 11 10 17.5t54 25.5q98 38 118 63q8 10 -7 9q-36 -2 -143 -54q-204 -98 -321 -252q-29 -39 -34 -41q-6 -2 -11 10z" />
    <glyph glyph-name="agrave" unicode="&#xe0;" horiz-adv-x="399" 
d="M47 51q37 0 131.5 44.5t167.5 79t73 17.5q0 -5 -79.5 -52t-176 -89.5t-132.5 -34.5q-16 4 -26 19.5t-7 31.5q4 10 0 10q-6 0 -63 -26q-104 -51 -145 -51q-11 0 -21 10q-28 27 24.5 76t141.5 86.5t154 35.5q29 0 50 -13t15 -27q-6 -12 -16 -15t-16 7q-7 8 -37 9.5
t-64 -6.5q-56 -12 -161 -75q-64 -42 -59 -51q13 -4 125.5 48.5t120.5 52.5q27 0 3 -50q-19 -34 -15 -36q2 -1 12 -1zM46 251q-93 39 -87 53q4 7 43 -4.5t77.5 -27t43.5 -19.5q5 -8 -1 -19q-5 -8 -19 -5t-57 22z" />
    <glyph glyph-name="aacute" unicode="&#xe1;" horiz-adv-x="399" 
d="M47 51q37 0 131.5 44.5t167.5 79t73 17.5q0 -5 -79.5 -52t-176 -89.5t-132.5 -34.5q-16 4 -26 19.5t-6 31.5q3 10 -1 10q-6 0 -63 -26q-104 -51 -145 -51q-11 0 -21 10q-28 27 24.5 76t141.5 86.5t155 35.5q28 0 49 -13t15 -27q-6 -12 -16 -15t-16 7q-6 8 -37 9.5
t-65 -6.5q-30 -7 -88.5 -36t-100.5 -57.5t-30 -32.5q13 -4 125.5 48.5t120.5 52.5q26 0 2 -50q-19 -34 -14 -36q2 -1 12 -1zM27 251q-42 -24 -54.5 -28.5t-19.5 2.5q-7 10 -2 19q8 9 79 44t77 26q4 -6 -16 -22t-64 -41z" />
    <glyph glyph-name="acircumflex" unicode="&#xe2;" horiz-adv-x="399" 
d="M47 51q37 0 131.5 44.5t167.5 79t73 17.5q0 -5 -79.5 -52t-176 -89.5t-132.5 -34.5q-16 4 -26 19.5t-6 31.5q4 10 -1 10q-6 0 -63 -26q-104 -51 -145 -51q-11 0 -21 10q-28 27 24.5 76t141.5 86.5t155 35.5q28 0 49 -13t15 -27q-6 -12 -16 -15t-16 7q-6 8 -37 9.5
t-65 -6.5q-30 -7 -88.5 -36t-100.5 -57.5t-30 -32.5q10 -3 67 22t114 52t65 27q25 0 3 -50q-20 -34 -15 -36q2 -1 12 -1zM55 273q-51 -29 -58 -21q-17 16 48 53q35 22 58 23t38 -18q19 -20 35.5 -50t13.5 -38q-7 -17 -23 3q-6 7 -16 22q-7 12 -12 19.5t-11 13.5t-8.5 9.5
t-8 5t-8 1.5t-9.5 -2.5t-10 -4.5t-13 -7.5t-16 -8.5z" />
    <glyph glyph-name="atilde" unicode="&#xe3;" horiz-adv-x="398" 
d="M47 51q37 0 131.5 44.5t167 79t72.5 17.5q0 -5 -79 -52t-175.5 -89.5t-132.5 -34.5q-16 4 -26 19.5t-6 31.5q3 10 -1 10q-6 0 -63 -26q-106 -51 -145 -51q-11 0 -21 10q-28 27 24.5 76t141.5 86.5t155 35.5q28 0 49 -13t15 -27q-6 -12 -16 -15t-16 7q-6 8 -37 9.5
t-65 -6.5q-55 -12 -161 -75q-64 -42 -58 -51q10 -3 67 22t114 52t65 27q26 0 2 -50q-19 -34 -14 -36q2 -1 12 -1zM-52 225q-29 -17 -36 -7q-9 14 17.5 33.5t53.5 19.5q23 0 49 -12q23 -9 30.5 -9t20.5 7q8 3 15 7.5t10.5 7t6.5 4t5 1.5t5 -3q5 -5 0 -13.5t-17 -17.5t-25 -15
q-21 -7 -38.5 -5t-28 8.5t-28 6.5t-40.5 -13z" />
    <glyph glyph-name="adieresis" unicode="&#xe4;" horiz-adv-x="399" 
d="M47 51q36 0 131 44.5t168 79t73 17.5q0 -5 -79.5 -52t-176 -89.5t-132.5 -34.5q-16 4 -26 19.5t-7 31.5q4 10 0 10q-6 0 -63 -26q-105 -51 -145 -51q-11 0 -21 10q-28 27 24.5 76t141.5 86.5t154 35.5q29 0 50 -13t15 -27q-6 -12 -16 -15t-16 7q-7 8 -37 9.5t-64 -6.5
q-56 -12 -161 -75q-64 -42 -59 -51q14 -4 126 48.5t120 52.5q27 0 3 -50q-19 -34 -15 -36q2 -1 12 -1zM87 255q-24 -26 -42 -8q-16 15 -0.5 41t35.5 16q7 -3 13 -14q7 -13 6 -18t-12 -17zM10 255q-25 -26 -43 -8q-15 15 0.5 41t34.5 16q8 -3 14 -14q7 -13 6 -18t-12 -17z
" />
    <glyph glyph-name="aring" unicode="&#xe5;" horiz-adv-x="399" 
d="M47 51q37 0 131.5 44.5t167.5 79t73 17.5q0 -5 -79.5 -52t-176 -89.5t-131.5 -34.5q-17 4 -27 19.5t-6 31.5q4 11 -1 10q-6 0 -63 -26q-105 -51 -145 -51q-9 0 -21 10q-28 27 24.5 76t142 86.5t154.5 35.5q28 0 49 -13t15 -27q-6 -12 -16 -15t-15 7q-7 8 -37.5 9.5
t-64.5 -6.5q-56 -12 -161 -75q-64 -42 -59 -51q14 -4 126 48.5t120 52.5q27 0 3 -50q-19 -34 -15 -36q2 -1 12 -1zM98 299q7 -15 -3 -35t-27.5 -32.5t-37.5 -17.5t-34 9q-12 13 -8.5 28.5t15 29t23.5 22.5t18 9q8 0 13 -6t4 -16q-1 -7 -4 -9t-7.5 -1.5t-11.5 -2.5t-13 -12
q-13 -15 -11.5 -21t19.5 -3q29 3 44 33q9 22 -3 23q-7 0 -9.5 5.5t1.5 9.5q6 6 17 1.5t15 -14.5z" />
    <glyph glyph-name="ae" unicode="&#xe6;" horiz-adv-x="605" 
d="M556 175q67 29 69 20q0 -3 -2 -9q-3 -14 -168 -88q-140 -62 -218 -78t-103 11l-4 4q-72 -25 -98 -19q-17 4 -27 19.5t-6 31.5q4 11 -1 10q-6 0 -63 -26q-105 -51 -145 -51q-9 0 -21 10q-28 27 23.5 74.5t137.5 84.5q92 41 160 39q28 0 49 -13t15 -27q-6 -12 -16 -15
t-16 7q-6 8 -36.5 9.5t-64.5 -6.5q-28 -6 -76 -30q-95 -44 -137 -81q-14 -13 -7 -15q14 -4 126 48.5t120 52.5q27 0 3 -50q-19 -34 -15 -36q2 -1 12 -1q25 0 72 18q0 28 20.5 59.5t56 56.5t74.5 33q38 6 52.5 -15t-9.5 -46q-11 -11 -36 -25.5t-53 -27t-45 -14.5
q-25 -5 -29 -21q-3 -13 18 -18q81 -17 370 115q9 4 18 9zM192 137l-13 -13q30 8 70 28q46 22 42 29q-5 8 -48 -11q-35 -15 -51 -33z" />
    <glyph glyph-name="ccedilla" unicode="&#xe7;" horiz-adv-x="342" 
d="M228 159q121 42 130 38q3 -3 4 -7q0 -17 -273 -114q-109 -40 -156 -50q-1 -2 -1 -3q-4 -12 -27.5 -37t-39.5 -32q-13 -9 -28.5 -9.5t-16.5 6.5q0 4 33.5 31.5t39.5 39.5q-18 1 -25 10q-17 23 -5.5 49t44 53t69 48t71 32.5t50.5 7.5q12 -4 16.5 -16.5t-2.5 -23.5
q-6 -9 -19 -9.5t-16 6.5q-8 13 -74 -22.5t-95 -66.5l-23 -28q3 0 17.5 -0.5t35 3t96 27t195.5 67.5z" />
    <glyph glyph-name="egrave" unicode="&#xe8;" horiz-adv-x="396" 
d="M347 175q67 29 69 20q1 -3 -2 -9q-4 -15 -169 -88q-269 -119 -320 -67q-15 15 -15.5 37t12 45t33 44.5t49 38t57.5 22.5q38 6 52.5 -15t-9.5 -46q-17 -17 -62.5 -40t-71.5 -27q-24 -5 -29 -21q-3 -13 18 -18q81 -17 372 116zM-16 137l-14 -13q33 10 70 28q46 22 42 29
q-5 8 -48 -11q-35 -14 -50 -33zM112 251q-94 39 -86 53q3 7 42 -4.5t77.5 -27t43.5 -19.5q4 -8 0 -19q-5 -8 -19.5 -5t-57.5 22z" />
    <glyph glyph-name="eacute" unicode="&#xe9;" horiz-adv-x="396" 
d="M347 175q67 29 69 20q1 -3 -2 -9q-3 -14 -168 -88q-270 -119 -321 -67q-15 15 -15.5 37t12 45t33 44.5t49 38t57.5 22.5q38 6 52.5 -15t-9.5 -46q-17 -17 -62.5 -40t-71.5 -27q-24 -5 -28 -21q-4 -13 17 -18q81 -17 370 115zM-16 137l-14 -13q30 8 70 28q46 22 42 29
q-5 8 -48 -11q-35 -14 -50 -33zM80 251q-24 -13 -34.5 -19t-20 -9.5t-13 -2.5t-6.5 5q-8 11 -3 19q8 8 78.5 43.5t76.5 26.5q5 -6 -15 -22t-63 -41z" />
    <glyph glyph-name="ecircumflex" unicode="&#xea;" horiz-adv-x="397" 
d="M348 175q67 29 69 20q0 -3 -2 -9q-4 -15 -169 -88q-269 -119 -321 -67q-15 15 -15.5 37t12 45t33 44.5t49 38t58.5 22.5q38 6 52.5 -15t-10.5 -46q-16 -17 -62 -40t-71 -27q-25 -5 -30 -21q-3 -13 18 -18q82 -16 370 115q10 5 19 9zM-16 137l-13 -13q32 10 69 28
q44 22 42 28q-2 9 -44 -8q-37 -15 -54 -35zM66 273q-50 -29 -59 -21q-15 16 49 53q36 22 58 23t38 -18q19 -20 35.5 -50t12.5 -38q-6 -15 -19 0q-6 7 -18 25l-13 19.5t-11 13.5t-8.5 9.5t-8.5 5t-8 1.5t-9 -2.5t-10 -4.5t-13 -7.5t-16 -8.5z" />
    <glyph glyph-name="edieresis" unicode="&#xeb;" horiz-adv-x="397" 
d="M348 175q68 30 69 20q0 -3 -2 -9q-4 -15 -169 -88q-269 -119 -321 -67q-15 15 -15 37t12.5 45t32.5 44.5t48.5 38t57.5 22.5q39 6 53.5 -15t-9.5 -46q-17 -17 -63 -40t-72 -27q-24 -5 -29 -21q-3 -13 18 -17q81 -18 369 113zM-15 137l-15 -13q30 8 70 28q44 22 42 28
q-2 9 -43 -8q-37 -15 -54 -35zM117 255q-25 -26 -42 -8q-16 15 0 42q15 25 34 16q7 -4 13 -15q8 -13 7 -17.5t-12 -17.5zM39 255q-25 -26 -42 -8q-16 15 0 42q15 25 34 16q8 -6 13 -15q8 -13 7 -17.5t-12 -17.5z" />
    <glyph glyph-name="igrave" unicode="&#xec;" horiz-adv-x="349" 
d="M268 163q89 38 97 37q4 -1 4 -8q0 -8 -44 -31t-196 -92q-80 -37 -121.5 -55t-70.5 -26t-39.5 -5t-19.5 16q-8 12 -8 18.5t10 24.5q7 16 30 49t52 67.5t58.5 53.5t44.5 4q4 -8 3 -12t-11 -9q-36 -24 -92 -89t-56 -83q0 -12 87.5 22.5t271.5 117.5zM73 251q-95 39 -87 53
q5 10 79.5 -16.5t83.5 -34.5q6 -8 0 -19q-5 -8 -19 -5t-57 22z" />
    <glyph glyph-name="iacute" unicode="&#xed;" horiz-adv-x="349" 
d="M268 163q90 38 97 37q4 -1 4 -8q0 -8 -44 -31t-196 -92q-80 -38 -121.5 -55.5t-70.5 -25.5t-40 -5t-20 16q-7 12 -7 18.5t10 24.5q6 15 29 48.5t52 68t59 53.5t45 4q4 -8 3 -12t-11 -9q-36 -24 -91.5 -89t-55.5 -83q0 -12 87 22.5t271 117.5zM50 251q-42 -24 -54.5 -28.5
t-19.5 2.5q-6 10 -3 19q10 9 80.5 44t76.5 26q4 -6 -16 -22t-64 -41z" />
    <glyph glyph-name="icircumflex" unicode="&#xee;" horiz-adv-x="350" 
d="M268 163q90 39 98 37q4 -1 4 -8q0 -8 -43.5 -30.5t-196.5 -92.5q-81 -38 -122.5 -55.5t-70.5 -25.5t-39.5 -5t-19.5 16q-8 12 -8 18.5t11 24.5q6 15 29 48.5t52 68t58.5 53.5t44.5 4q4 -8 2.5 -12t-10.5 -9q-36 -24 -91.5 -89t-55.5 -83q0 -12 87.5 22.5t270.5 117.5z
M29 273q-51 -29 -59 -21q-16 16 48 53q36 22 58.5 23t37.5 -18q19 -20 35.5 -50t12.5 -38q-5 -17 -21 3q-6 7 -16 22l-13 19.5t-10.5 13.5t-8.5 9.5t-8.5 5t-7.5 1.5t-9 -2.5t-10.5 -4.5t-13.5 -7.5t-15 -8.5z" />
    <glyph glyph-name="idieresis" unicode="&#xef;" horiz-adv-x="349" 
d="M268 163q90 38 97 37q4 0 4 -8t-44 -31t-196 -92q-80 -37 -121.5 -55t-70.5 -26t-40 -5t-20 16q-7 12 -7 18.5t10 24.5q6 15 29 48.5t52 68t58.5 53.5t44.5 4q5 -8 4 -12t-11 -9q-36 -24 -91.5 -89t-55.5 -83q0 -12 87 22.5t271 117.5zM55 255q-25 -26 -42 -8
q-16 15 0 42q15 25 34 16q7 -4 13 -15q8 -13 7 -17.5t-12 -17.5zM133 255q-25 -25 -44 -8q-14 15 1 41q16 26 35 17q7 -4 13 -15q7 -13 6.5 -17.5t-11.5 -17.5z" />
    <glyph glyph-name="ntilde" unicode="&#xf1;" horiz-adv-x="563" 
d="M580 198q3 -5 1 -10t-17.5 -16t-43 -26.5t-75.5 -41.5q-132 -72 -181 -87.5t-71 7.5q-11 11 -11 29.5t6 35.5t12 37.5t6 31.5q-5 13 -47 4t-107.5 -38.5t-114.5 -61.5q-53 -35 -57 -8q0 15 75 93q27 28 42 43t25.5 23.5t14 8t7.5 -2.5q7 -8 7.5 -14t-4.5 -12.5t-22 -24.5
q-15 -16 -25 -27l52 22q141 62 179 29q7 -6 6 -31t-9 -54q-16 -62 0 -62q35 0 217 91q33 18 65.5 33t50.5 22.5t19 6.5zM172 225q-30 -17 -35 -7q-9 15 17.5 34t53.5 19q24 0 48 -12q23 -9 30.5 -9t19.5 7q10 4 19 9.5t11.5 7.5t7 3t6.5 -3q7 -8 -7.5 -22.5t-36.5 -23.5
q-20 -7 -37 -5t-27.5 8.5t-28.5 6.5t-41 -13z" />
    <glyph glyph-name="ograve" unicode="&#xf2;" horiz-adv-x="448" 
d="M190 153q11 0 33 3.5t47 8.5t53 11t53.5 11t46 8t33 2.5t12.5 -5.5q0 -14 -105.5 -42t-177.5 -30q-39 -2 -52.5 -5.5t-35.5 -18.5q-49 -32 -118.5 -59t-100.5 -11q-15 9 -17.5 26t9.5 33q22 34 101.5 87t111.5 55q21 2 43 4.5t29 3.5t15 -1.5t15 -9.5q11 -11 12 -23
t-3 -19.5t-12.5 -17t-9.5 -11.5h18zM-29 75q37 13 74.5 34t37.5 27q0 3 -2 5t-4.5 4t-7 8t-7.5 15l-8 19q-1 -1 -25.5 -17.5t-53.5 -36.5t-53.5 -40.5t-25.5 -28.5q0 -15 63 7zM148 176q24 25 -1 26q-25 0 -44 -16q-14 -11 -1 -20q24 -12 46 10zM184 262q-93 39 -87 53
q5 10 79.5 -16.5t84.5 -34.5q5 -8 -1 -18q-5 -9 -19 -6t-57 22z" />
    <glyph glyph-name="oacute" unicode="&#xf3;" horiz-adv-x="448" 
d="M190 153q11 0 33 3.5t47 8.5t53 11t53.5 11t46 8t33 2.5t12.5 -5.5q0 -9 -49 -26t-117.5 -31t-116.5 -15q-38 -2 -51.5 -5.5t-36.5 -18.5q-50 -32 -118.5 -59t-100.5 -11q-15 9 -17.5 26t9.5 33q14 22 57.5 55.5t89.5 59.5t67 27q21 2 42.5 4.5t29 3.5t15 -1.5t14.5 -9.5
q11 -11 12 -23t-3 -19.5t-12.5 -17t-9.5 -11.5h18zM-29 75q37 13 75 34t38 27q0 4 -3 6t-9 8t-10 18l-7 19q-1 0 -26 -17t-54 -37t-53.5 -40.5t-25.5 -28.5q0 -15 63 7zM148 176q24 25 -1 26q-25 0 -44 -16q-14 -11 -1 -20q24 -12 46 10zM95 268q-42 -24 -54.5 -28t-19.5 4
q-7 10 -3 18q8 9 79 44t77 26q9 -13 -79 -64z" />
    <glyph glyph-name="ocircumflex" unicode="&#xf4;" horiz-adv-x="448" 
d="M190 153q11 0 33 3.5t47 8.5t53 11t53.5 11t46 8t33 2.5t12.5 -5.5q0 -9 -49 -26t-117.5 -31t-116.5 -15q-38 -2 -51.5 -5.5t-36.5 -18.5q-50 -32 -118.5 -59t-100.5 -11q-15 9 -17.5 26t9.5 33q22 34 101.5 87t112.5 55q21 2 42.5 4.5t29 3.5t15 -1.5t14.5 -9.5
q11 -11 12 -23t-3 -19.5t-12.5 -17t-9.5 -11.5h18zM-28 75q36 13 74 34t38 27q0 4 -3 6t-9 8t-10 18l-7 19q-1 -1 -13 -9t-29 -19t-37.5 -25.5t-38 -27.5t-29 -25t-12.5 -17q0 -16 67 8zM148 176q24 25 -1 26q-25 0 -44 -16q-12 -12 -1 -20q24 -12 46 10zM135 269
q-51 -30 -58 -21q-17 15 47 53q36 22 58.5 23t37.5 -18q19 -21 36 -50.5t13 -37.5q-5 -16 -21 2q-7 7 -17 22q-6 10 -11 17.5t-9.5 14t-8.5 9.5t-7 6t-7.5 2.5t-7 0t-8.5 -2.5t-9.5 -5t-12.5 -7t-15 -8z" />
    <glyph glyph-name="otilde" unicode="&#xf5;" horiz-adv-x="448" 
d="M190 153q12 0 33.5 3.5t46.5 8.5t53 11t53.5 11t46.5 8t33 2.5t12 -5.5q0 -14 -105 -42t-178 -30q-39 -2 -52.5 -5.5t-36.5 -18.5q-49 -32 -118 -59t-101 -11q-14 9 -16.5 26t8.5 33q23 34 102.5 87t111.5 55q21 2 43 4.5t29.5 3.5t15 -1.5t14.5 -9.5q9 -9 11.5 -18
t-0.5 -17t-7.5 -14.5t-10 -13t-7.5 -8.5h19zM-29 75q12 4 25.5 10t26 12t23.5 12.5t19 11.5t13 9t5 6q0 3 -1.5 5t-4.5 4t-7 8t-8 15l-8 19q-1 -1 -13 -9t-29 -19t-37 -25.5t-37 -27.5t-29 -25t-13 -17q0 -15 63 7zM148 176q23 25 -2 26q-26 0 -44 -16q-12 -12 0 -20
q24 -12 46 10zM94 258q-29 -17 -36 -7q-8 14 18.5 33t54.5 19q18 0 47 -12q24 -9 31 -9.5t20 7.5q9 4 17.5 9.5t12 8t7 2.5t6.5 -4q7 -7 -7.5 -21.5t-35.5 -23.5q-21 -8 -38 -5.5t-28 9t-28.5 6.5t-40.5 -12z" />
    <glyph glyph-name="odieresis" unicode="&#xf6;" horiz-adv-x="448" 
d="M190 153q11 0 33 3.5t47 8.5t53 11t53.5 11t46 8t33 2.5t12.5 -5.5q0 -14 -105.5 -42t-177.5 -30q-23 -1 -30.5 -1.5t-19 -3.5t-19 -7t-19.5 -12q-49 -32 -118.5 -59t-100.5 -11q-15 9 -17.5 26t9.5 33q22 34 101.5 87t111.5 55q16 1 31.5 3t23.5 3l16 2t12.5 0t9 -3.5
t9.5 -7.5q11 -11 12 -23t-3 -19.5t-12.5 -17t-9.5 -11.5h18zM-29 75q37 13 74.5 34t37.5 27q0 3 -2 5t-4.5 4t-7 8t-7.5 15l-8 19q-1 0 -40 -26.5t-78 -56.5t-40 -40q0 -15 63 7zM148 176q24 25 -1 25.5t-44 -15.5q-14 -11 -1 -20q24 -12 46 10zM205 274q-26 -26 -43 -8
q-16 15 -0.5 41.5t35.5 16.5q7 -4 13 -15q7 -12 6.5 -17t-11.5 -18zM127 274q-25 -25 -43 -8q-15 15 1 41q15 26 34 17q8 -4 13 -15q8 -13 7 -17.5t-12 -17.5z" />
    <glyph glyph-name="oslash" unicode="&#xf8;" horiz-adv-x="449" 
d="M191 153q11 0 33 3.5t47 8.5t53 11t53.5 11t46 8t33 2.5t12.5 -5.5q0 -14 -105.5 -42t-177.5 -30q-39 -2 -52.5 -5.5t-35.5 -18.5q-35 -23 -89 -47t-93 -28q-15 -11 -24 -21q-32 -36 -39 -16q-7 10 28 41l-2 1q-15 9 -17.5 26t9.5 33q22 34 101.5 87t111.5 55q14 1 33 3
t21 2q64 46 75 41q9 -3 6 -8q-5 -7 -39 -36q2 -1 6 -5q9 -9 12 -18t-0.5 -17t-7.5 -14.5t-10 -13t-7 -8.5h18zM-103 64q0 -7 20 -5q57 51 143 117l-5 11q-1 -1 -25.5 -17.5t-53.5 -36.5t-53.5 -40.5t-25.5 -28.5zM-3 85q16 7 32 15t28 15t19.5 13t7.5 8t-8 11
q-34 -28 -79 -62zM149 176q8 9 10 15.5t-2 8.5t-11 1l-17 -12l-28 -22q1 0 1.5 -0.5l0.5 -0.5q24 -12 46 10z" />
    <glyph glyph-name="ugrave" unicode="&#xf9;" horiz-adv-x="458" 
d="M389 154q80 52 87 42q2 -1 2 -5q0 -12 -103.5 -82.5t-142.5 -84.5q-24 -8 -45.5 -9.5t-33.5 13.5t-5 45q6 21 1 21.5t-50 -30.5q-64 -44 -99.5 -53.5t-55.5 10.5q-10 9 -12 16.5t-2 24.5q8 44 48 101.5t62 57.5q19 0 19 -5q-2 -8 -24 -34q-24 -27 -46 -66t-22 -57
q0 -44 150 65q111 80 116 83q10 6 13 6q25 0 -8 -50q-5 -8 -16 -23q-43 -63 -43 -81q0 -32 110 31q45 26 100 64zM139 251q-93 39 -87 53q4 7 43.5 -4.5t77.5 -27t43 -19.5q5 -8 -1 -19q-5 -8 -19 -5t-57 22z" />
    </font>
</defs>
</svg>
